<?xml version="1.0" encoding="utf-8"?>
<!-- Generator: Adobe Illustrator 21.1.0, SVG Export Plug-In . SVG Version: 6.00 Build 0)  -->
<svg width="650" height="110" version="1.1" id="Layer_1" xmlns="http://www.w3.org/2000/svg" xmlns:xlink="http://www.w3.org/2000/xlink" viewBox="0 0 440 80" style="" xml:space="preserve">
<style type="text/css" style="background: #e08181">
	.st0{fill:#ffffff;}
	.st1{fill:#FF0000;}
	.st2{fill:#FFEE00;}
	.st3{fill:#005FE8;}
	.st4{fill:#BECC30;}
	.st5{fill:#FF0099;}
	.st6{font-family:'Avenir-Light';}
	.st7{font-size:23.7845px;}


.eye{
  animation: eyeB 4s infinite;
}
  @keyframes eyeB {
    50% {
	ry: 1.2;
	animation-timing-function: ease-in;
    }
    55% {
    ry: 0;
    }
    60% {
    ry: 1.2;
    }    
    70% {
    ry: 0;
    }
    80% {
    ry: 1.2;
    }
    90% {
    ry: 0;
    }           
    100% {
    ry: 1.2;
	animation-timing-function: ease-out;
    }
  }
.blacktail{
	animation: pendulo 1s infinite ease-in-out;
	
}
.redtail{
	animation: pendulo 1s infinite ease-in-out;
	
	fill: #FF0000;
}
 @keyframes pendulo{
	0%,100%{
		transform-origin: 16%;
		transform: rotate(6deg);
	}
	50%{
		transform: rotate(-6deg);
	}
}

</style>
<g id="Layer_2_1_">
</g>
<g id="Layer_1_1_">
	<g id="Layer_2">
		<path class="st0" d="M73.6,18.6c-1.2,0.3-2.5,0.9-3.6,1.9c-0.7,0.7-1.2,1.5-1.5,2.3c-0.7,1.6-0.6,3-0.6,3s-0.3,3.1,2.8,3.8
			c0.1,0,0.2,0,0.2,0.1c0.1,0,0.3,0,0.4,0.1c1.1,0.2,2.3,0.1,3.3,0c-0.1,0-0.1,0-0.2-0.1s-0.2-0.2-0.3-0.3C74,28.7,74,26.9,74,26.9
			s0-1.2,0.3-3.1c0.2-1.3,0.7-3,1.4-4.8c0.1-0.2,0.2-0.5,0.3-0.7c-0.2,0-0.5,0-0.9,0.1C74.7,18.4,74.2,18.5,73.6,18.6z"/>
	</g>
	<ellipse class="eye" cx="72.7" cy="21.1" rx="1.2" ry="1.2"/>
	<path class="blacktail" d="M62.9,49c0.2,3.2,0.5,8.3,0.9,11c0,0,0.1,1.7,1.9,1.8h0.1c0,1.1,0.1,2.2,0.1,3.4c0,0,0.1,1.5,1.7,1.7c0,0,0.2,0,0.4,0
		c0,1.5-0.1,2.9-0.1,4.4c0,0-0.1,1.8,2,1.8c1.7,0,1.7-1.8,1.7-1.8c0-1.7,0.2-3.4,0.3-5.1c0.3-4.1,0.6-8.1,1.1-12.1
		c0.3-2.4,0.6-5.3,1.1-7.7c0.4-1.6-2.6-2-3.6-2.2c-1.5-0.2-3.1-0.1-4.6,0.3c-1.2,0.3-2.5,0.9-3,2.1C62.7,47.2,62.9,49,62.9,49z"/>
	<path class="redtail" d="M70.3,48.8c-0.9,10-1.3,22.4-1.3,22.4s0.1,0.8,0.8,0.8c0.7,0,0.8-0.8,0.8-0.8c0.3-9.2,1.3-18.3,2-23.1
		c-0.4-1.4-1.1-3.2-4.6-2.8s-4,3.9-4,3.9c0.2,4.4,0.8,10.3,0.8,10.7c0.1,0.6,0.5,0.8,0.9,0.8c0,0,0,0,0.1,0
		c-0.1-4.9-0.1-8.9-0.1-11.4c0.4,0,0.8,0,1.3,0c-0.3,7.8,0.1,15.5,0,15.8c0,0.3,0.3,0.8,0.8,0.8c0.1,0,0.1,0,0.2,0
		c0.2-6.9,0.7-13.3,0.9-16.7C69,49.1,70.3,48.8,70.3,48.8z"/>
	<g id="verde">
		<g>
			<path class="st0" d="M94.6,56.2l-2.1,6.5c-0.2,0.7-0.3,1.5-0.5,2.2h-0.2l-2.5-8.7h-6.8l-2.9,16.6H86l0.8-7.1
				c0.1-0.7,0.1-1.3,0.2-2h0.2c0,0.7,0.2,1.4,0.4,2.1l2.4,7h3.9l2.6-7.5c0.2-0.5,0.3-1.1,0.4-1.7H97l0.9,9.1h6.4l-3-16.6L94.6,56.2
				L94.6,56.2z"/>
			<polygon class="st0" points="116.8,66.3 124.4,66.3 124.4,62.8 116.8,62.8 116.8,60.2 125.1,60.2 125.1,56.2 109.3,56.2 
				109.3,72.8 125.4,72.8 125.4,68.8 116.8,68.8 			"/>
			<polygon class="st0" points="151.5,56.1 143.4,56.1 140.7,59.6 140.5,59.6 137.8,56.1 129.7,56.1 136,64.2 129,72.8 137.6,72.8 
				140.5,69.2 140.7,69.2 143.7,72.8 152,72.8 145.3,64.2 			"/>
			<rect x="155.9" y="56.1" class="st0" width="8.1" height="16.7"/>
			<path class="st0" d="M179.6,67.7c-1.7,0-3.1-1.4-3.1-3.1c0-1.7,1.4-3.1,3.1-3.1c0.8,0,1.5,0.3,2.1,0.8l4.4-3.5
				c-1.8-1.9-4.4-3.1-7.3-3.1c-5.3,0-9.6,3.9-9.6,8.8c0,4.8,4.3,8.8,9.6,8.8c3,0,5.6-1.2,7.4-3.1l-4.4-3.3
				C181.3,67.4,180.5,67.7,179.6,67.7z"/>
			<path class="st0" d="M49.9,44.1c-1.3-0.4-2.7-1.7-3.9-3l-9.5-11l9.4-11c1.1-1.2,2.4-2.5,3.8-2.9c0.9-0.1,1.6-0.9,1.6-1.8
				c0-1-0.8-1.8-1.8-1.9H36.7c-1,0.1-1.8,0.9-1.8,1.9s0.7,1.7,1.6,1.8c0.4,0.1,0.3,0.5-0.3,1.1l-5.3,6.2l-5.3-6.2
				c-0.6-0.6-0.7-1-0.3-1.1c0.9-0.1,1.6-0.9,1.6-1.8c0-1-0.8-1.8-1.9-2H12.3c-1,0.1-1.8,1-1.8,2c0,0.9,0.7,1.7,1.6,1.8
				c1.3,0.4,2.6,1.7,3.8,2.9l9.4,11l-9.5,11c-1.2,1.3-2.6,2.6-3.9,3C11,44.3,10.3,45,10.3,46s0.8,1.8,1.8,1.8h12.7
				c1,0,1.8-0.8,1.8-1.8s-0.7-1.7-1.6-1.8c-0.4-0.1-0.3-0.5,0.3-1.1l5.5-6.4l5.5,6.4c0.6,0.6,0.7,1,0.3,1.1C35.8,44.2,35,45,35,46
				s0.8,1.8,1.8,1.8h12.7c1,0,1.8-0.8,1.8-1.8C51.5,45,50.8,44.3,49.9,44.1z"/>
			<path class="st0" d="M131.6,21c2.3,1.6,5.2,0.5,5.9-1.2c1.2-2.9,0.4-6.8-2.9-7.3c-2.6-0.4-4.6,0.5-6.9,3.2
				c-2.3,2.7-2.7,3.5-3.5,4.7c-0.2-3.4-1.4-6.1-2-6.7c-0.6-0.6-2.1-1.3-4.1-0.4c-2.1,0.9-5.4,2.4-5.4,2.4c-1.8,0.8-1.4,3.8,0.7,4.3
				c1.8,0.5,2.8,3.3,2.8,5.2c0,1.6,0.1,10.8,0.1,13.9c0,0.2,0,0.4-0.1,0.8c-0.3,2.2-2,3.6-3.4,3.6c-1.5,0-3.5-2-3.6-4.2v-0.1
				c0-0.2,0.2-12.6-0.3-17.1c-0.5-4.6-4.6-7.6-7.7-8.7c-3.7-1.3-12.7-2.6-16.7-1.2c-1.2,0.4-3,2.8,0.8,2.5c4.1-0.3,6.9,0.7,9.3,1.8
				s5.2,5.3,5.3,10.4v3.6c0.1,5.6,0.2,11.5-6.2,12.8c-5.1,0.5-6.1-4.8-6.1-6s-0.2-5.1,4.2-6c3-0.5,4,0.9,5.4,0
				c1.3-0.9,1.1-2.6-0.1-3C96,28.1,93.8,28,93.7,28c-5.5,0.1-7.9,0.8-10.7,2.6c-0.7,0.4-1.2,0.9-1.7,1.4c-0.4,0.5-1,1.2-1.5,2.1l0,0
				c0,0,0,0.1-0.1,0.1c-0.1,0.2-0.2,0.4-0.2,0.5l0,0c-0.6,1.6-0.6,3.8-0.6,4.3v0.1c-0.1,0-0.1,0.1-0.2,0.1C77,41,75.2,42,73.2,42.7
				c-0.4,0.1-0.9,0.3-1.4,0.4C71.7,44.2,71,45,70.2,45c-0.7,0-1.4-0.6-1.6-1.5c-0.3,0-0.5,0-0.8,0C67.6,44.4,67,45,66.2,45
				c-0.9,0-1.6-0.8-1.6-1.9c-0.4-0.2-0.8-0.4-1.2-0.6h-0.1c-0.5-0.3-1-0.7-1.4-1.1c-0.1-0.1-0.2-0.2-0.3-0.3c0,0,0,0-0.1-0.1
				s-0.3-0.3-0.4-0.4c-1-1-1.8-2.3-2.4-3.5c-0.1-0.2-0.2-0.4-0.3-0.6c-0.1-0.2-0.2-0.3-0.2-0.5l0,0c0-0.1-0.1-0.2-0.1-0.3
				c-0.1-0.1-0.1-0.3-0.2-0.4c0-0.1-0.1-0.2-0.1-0.3v-0.1c-0.1-0.2-0.2-0.4-0.2-0.6c0-0.1-0.1-0.2-0.1-0.3c-0.1-0.2-0.1-0.4-0.2-0.6
				c0-0.1-0.1-0.2-0.1-0.3s0-0.2-0.1-0.2c0-0.1,0-0.1-0.1-0.2c0-0.1,0-0.1,0-0.2c-0.1-0.5-0.2-1-0.3-1.4c-0.2-1.3-0.3-2.6-0.2-3.8
				c0.6-5.4,4.6-9.1,7.2-10.6c2.6-1.5,5.3-2.1,9.3-1.8c3.8,0.3,2.1-2.2,0.8-2.5c-3.8-0.9-7.5-1-10.8-0.5c-0.2,0-0.3,0-0.4,0.1h-0.1
				c-1.2,0.2-2.4,0.7-3.5,1.1c-0.7,0.2-2,0.8-2,0.8c-6.2,3-10.4,8.6-10.4,16c0,9.9,7.5,18.1,17.1,19.1c0.4,0,0.9,0.1,1.3,0.1
				c0.3,0,0.5,0,0.8,0c0.2,0,0.4,0,0.6,0c0.5,0,0.9,0,1.4-0.1c0.5,0,0.9-0.1,1.3-0.2c0.1,0,0.2,0,0.3,0l0,0c0.4-0.1,0.7-0.1,1.1-0.2
				c0.1,0,0.2,0,0.2-0.1c0.5-0.1,0.9-0.3,1.4-0.4c0.3-0.1,0.5-0.2,0.8-0.3c0.2-0.1,0.5-0.2,0.7-0.3s0.4-0.2,0.6-0.3
				c0.3-0.1,0.5-0.3,0.8-0.4c0.5-0.3,1-0.6,1.5-0.9c0.3-0.2,0.5-0.3,0.8-0.5c0.2-0.1,0.3-0.3,0.5-0.4c0.6-0.5,1.1-1,1.7-1.5
				c0,0,0,0,0.1-0.1c0.2-0.2,0.5-0.4,0.7-0.7c0.1,0.2,0.3,0.5,0.4,0.7c0.5,0.8,1.5,2.5,2.8,3.3c3.5,2.3,7.8,2.1,10.7,1.6
				c3.5-0.6,5.6-3.6,6.5-4.8c0.4,3.5,1.5,3.8,2.6,3.8l2.6,0.1H117c1.1,0,3.8,0.1,6.9-0.4c-0.1-0.1-0.2-0.2-0.2-0.2
				c-0.8-1.4,2.3-5.4,2.3-5.4l0,0c-0.1-0.1-0.4-0.2-0.8-0.5l0,0c-1.2-0.9-3.2-2.8-2.9-5.7c0.1,0,0.2,0,0.4,0.1
				c1.4,0.1,2.2-0.6,3-1.6c0-0.3,0-0.5,0-0.7c0-3.3,0.4-7,1.8-9.4C128.6,21,130.2,20.1,131.6,21z"/>
			<path class="st0" d="M163.9,14.3c-4.1-3.3-13.3-3.1-17.8-0.5c-3,1.7-6.3,3.4-9.4,11c0.6-0.6,1.2-1,1.8-0.9l0,0
				c0.1,0,0.2,0,0.2,0.1c2.2,0.9,2.7,6.7,2.7,6.9c0.1,0,0.7,0,1.5,0.2c0.2,0,0.3,0.1,0.5,0.1c0.2,0.1,0.4,0.1,0.6,0.2l0,0
				c0.2,0.1,0.4,0.2,0.6,0.3c0.1,0,0.2,0.1,0.2,0.1l0,0c0.2,0.2,0.5,0.3,0.7,0.5c-0.2-1.2-0.2-2.4-0.2-3.4c-0.1-1.2-0.1-2.8,0.9-6
				c1.3-3.9,5.5-5.8,6.6-6.1s5.3-0.2,6,2.9c0.7,5-1.6,6-3.1,7.2c-1,0.9-3.9,1.7-6.8,2.2c-0.1,0.1-0.2,0.1-0.3,0.2
				c-1.9,1.2-1.3,4.1,0.3,4.4c7-0.6,14.4-2.3,16.5-5C168,25.6,170.4,20.1,163.9,14.3z"/>
			<path class="st0" d="M188.4,43.8c-1.2,0.3-3.3,0.3-3.3,0.3c-2.6,0-4.7-1-4.7-7.8c0,0,0-3.7,0-8.2c0-3.7,0.1-8.4,0.1-8.6
				c0.3,0,6.2,0,6.2,0c1.2,0,2.9-0.5,2.9-2.4c0-1.8-1.5-2.4-2.9-2.4h-6.2c0-0.3-0.1-3.1-0.1-3.1c0-1.9-0.4-3.4-1.7-3.4
				s-1.3,0.9-2.1,3c-0.9,2.2-3.5,3-6.8,2.9c-0.5,0-0.8,0.2-0.9,0.6c-0.1,0.4,0,0.8,0.5,1.1c1.5,1,1.7,2.4,2.1,3.8
				c0.5,1.8,0.5,4.9,0.4,8.2c0,1.2,0,8.1,0,8.1c0,7,1.8,13.4,9.7,13.4c0,0,3.8-0.4,6.8-1.9c1.9-0.9,2.7-1.6,2.6-2.6
				C191,43.4,189.9,43.4,188.4,43.8z"/>
			<path class="st0" d="M209.4,11.2c-0.7-2-1.5-2.7-2.7-3h-0.3c-1.3-0.1-2.3,0.4-3.5,2.1c-2.1,3-3.8,8.6-4.2,13.2s-0.3,18,0.6,26.4
				c0.1,0.8,0.3,1.4,0.5,1.7c0.1,0.2,0.3,0.3,0.4,0.3l0,0l0,0c0.2,0,0.3,0,0.5-0.2c0.3-0.2,0.7-0.7,1-1.5c3.2-7.9,7-20.7,8-25.2
				C210.6,20.5,210.5,14.6,209.4,11.2z"/>
		</g>
	</g>
	<g id="rojo">
		<g>
			<path class="st1" d="M198.2,55.7c-4.8,0-8.8,3.9-8.8,8.8c0,4.8,3.9,8.7,8.8,8.7c4.8,0,8.7-3.9,8.7-8.7S203,55.7,198.2,55.7z
				 M198.2,66.9c-1.3,0-2.4-1.1-2.4-2.4c0-1.3,1.1-2.4,2.4-2.4c1.3,0,2.4,1.1,2.4,2.4C200.6,65.8,199.5,66.9,198.2,66.9z"/>
			<path class="st1" d="M68.5,20.3c-3.8,3.6-4.6,12.1-4.6,12.1s-0.5,3.9-0.4,10.1c0.4,0.2,0.8,0.4,1.2,0.6c0-0.1,0-0.1,0-0.2
				c0-1.2,0.7-2.1,1.6-2.1s1.6,0.9,1.6,2.1c0,0.2,0,0.4-0.1,0.6c0.3,0,0.5,0,0.8,0c0-0.2-0.1-0.4-0.1-0.6c0-1.2,0.7-2.1,1.6-2.1
				s1.6,0.9,1.6,2.1c0,0.1,0,0.1,0,0.2c0.5-0.1,0.9-0.2,1.4-0.4l0.1-0.4c0,0,0.5-4.3,1.3-7.5c0.7-3.2,1.2-5.1,1.2-5.1H75
				c0,0-0.1,0-0.3,0l0,0l0,0c-1,0.1-2.2,0.2-3.3,0c-0.1,0-0.3,0-0.4-0.1c-0.1,0-0.2,0-0.2-0.1c-3.2-0.8-2.8-3.8-2.8-3.8
				s-0.1-1.4,0.6-3c0.3-0.7,0.8-1.5,1.5-2.3c1-1,2.4-1.6,3.6-1.9c0.6-0.2,1.1-0.2,1.5-0.3c0.4-0.1,1.1-0.1,1.3-0.1
				c0.2-0.5,0.5-1,0.7-1.4C77.1,16.8,72.3,16.6,68.5,20.3z"/>
		</g>
	</g>
	<g id="negro">
		<g>
			<path d="M66.2,45.4c0.8,0,1.4-0.7,1.7-1.6c0.1-0.2,0.1-0.4,0.1-0.7c0-1.2-0.8-2.2-1.7-2.2c-1,0-1.7,1-1.7,2.2c0,0.1,0,0.2,0,0.2
				C64.6,44.5,65.3,45.4,66.2,45.4z"/>
			<path d="M70.1,40.9c-1,0-1.7,1-1.7,2.2c0,0.2,0,0.4,0.1,0.6c0.2,0.9,0.9,1.6,1.7,1.6c0.9,0,1.7-0.9,1.7-2c0-0.1,0-0.1,0-0.2
				C71.9,41.9,71.1,40.9,70.1,40.9z"/>
			<path d="M151,40.9c0.3-0.5,0.6-1.1,0.7-1.7h-0.2c-0.1,0-0.2,0-0.2,0c-0.1,0-0.3,0-0.4-0.1c-0.1,0-0.3-0.1-0.4-0.1
				c-0.1,0-0.2-0.1-0.4-0.2c-1.7-1-1.9-3.1-2.9-4.6c-0.1-0.1-0.2-0.3-0.3-0.4c-0.1-0.1-0.2-0.3-0.3-0.4c-0.1-0.1-0.3-0.3-0.4-0.4
				c-0.1-0.1-0.3-0.3-0.4-0.4c-0.2-0.2-0.4-0.3-0.6-0.5c-0.2-0.1-0.4-0.3-0.6-0.4c-0.1,0-0.1-0.1-0.2-0.1c-0.2-0.1-0.4-0.2-0.6-0.3
				c-0.2-0.1-0.4-0.2-0.6-0.2c-0.2-0.1-0.3-0.1-0.5-0.1c-0.1,0-0.2-0.1-0.4-0.1c-0.6-0.1-0.8-0.1-0.9-0.1c0-0.2-0.5-5.9-2.7-6.8
				c-0.1,0-0.4-0.1-0.5-0.1c-0.6,0-1.3,0.4-1.9,0.9c-1.6,1.7-2.8,5.1-2.8,5.1s-1.5-0.5-3.3,0c-2.8,0.7-3.9,2.6-5,3.9
				c-0.8,1-1.6,1.6-3,1.4c-0.1,0-0.2,0-0.3,0c-0.2,2.9,1.6,5.1,2.8,6l0,0c0.4,0.3,0.7,0.5,0.8,0.5l0,0l0,0c0,0-3.1,4-2.3,5.4
				c0,0.1,0.1,0.2,0.2,0.2c0.6,0.5,2.2,0.5,4,0.3c-2.3,2-6.7,5.4-6.7,5.4s4.7,1.1,13.2-2.6c0.3,0,0.5,0,0.6,0c0.2,0,0.8,0.1,1.2,0.4
				c0.4,0.2,1.2,0,1.2,0c0.2,0.1,0.5,0.2,0.7,0.1c0.5-0.1,0.8-0.7,1.2-0.9c0.5-0.2,0.9-0.2,1.3-0.5c0.3-0.2,0.4-0.4,0.6-0.7
				c2.4,1.4,4.8,2,5.5,1.3c0.2-0.2,0.3-0.5,0.3-1c15,2.2,21.4-8.1,21.8-10.4C164.9,39.4,156.8,42.7,151,40.9z"/>
			<path d="M83.8,21.5c-0.4-2-1-3.3-2.2-4.4s-2.7-1.6-3.8-1.7c-1.1-0.1-2.7,0-4.9,0.6c-2.2,0.7-3.9,1.9-5.1,2.9s-2.8,2.6-4.4,7.8
				c0,0-3.2-0.3-5.1,1.2c-1.9,1.5-1.6,3.8-1.6,4.4c0,0.2,0.1,0.6,0.3,1.3c0.3,1.4,0.9,2.7,1.6,3.9c0.7,1.2,1.6,2.1,2.6,3.1
				c0.1,0.1,0.3,0.3,0.4,0.4c0.1,0.1,0.2,0.2,0.3,0.3c-0.1-0.1-0.2-0.2-0.3-0.3c0,0,0,0,0.1,0.1s0.2,0.2,0.3,0.3
				c0.5,0.4,0.9,0.8,1.4,1.1c0,0,0.1,0,0.1,0.1c0-6.3,0.3-9.8,0.3-9.8s0.8-8.6,4.7-12.3s8.4-3.5,8.4-3.5c-0.3,0.5-0.5,1-0.7,1.5
				l-0.1,0.1c-0.1,0.3-0.2,0.4-0.3,0.6C75,21,74.6,22.7,74.4,24C74,25.8,74,27,74,27s0,0.5,0,1.1c0,0.1,0,0.3,0,0.4l0,0
				c0,0,0,0,0,0.1s0,0.2,0,0.3V29c0,0.1,0.1,0.2,0.1,0.3c0,0.1,0.1,0.2,0.2,0.2c0,0,0,0.1,0.1,0.1l0,0c0.1,0,0.1,0.1,0.2,0.1
				c0.2,0,0.3,0,0.3,0l0.7-0.1c0,0-0.5,2-1.2,5.2s-1.3,7.6-1.3,7.6L73,42.8c2.1-0.6,3.9-1.7,5.7-3.4c0.1-0.1,0.1-0.1,0.2-0.2
				c-0.1,0.1-0.1,0.1-0.2,0.2c0.1-0.1,0.1-0.1,0.2-0.2v-0.1c0-0.5,0.1-2.7,0.7-4.4c0.1-0.2,0.2-0.4,0.2-0.6c0,0,0-0.1,0.1-0.1
				c0.4-0.8,0.9-1.5,1.5-2.1c0.4-0.5,0.7-0.7,0.7-0.7S82,29.1,80,27.9c0,0,0.5-0.4,1.2-1.7c0,0-2.7-1-4.3-1.9c0.2,0,4,0,6.7,2
				C83.6,26.4,84.2,23.5,83.8,21.5z M58.1,32.7C58,32.3,58,32,57.9,31.6c0-0.6,0.1-1.1,0.3-1.6l0,0l0,0c0-0.1,0.1-0.2,0.1-0.3
				c0.1-0.1,0.2-0.3,0.3-0.4c-0.1,0.1-0.2,0.2-0.3,0.4c0,0.1-0.1,0.1-0.1,0.2c0-0.1,0.1-0.1,0.1-0.2c0.1-0.1,0.2-0.3,0.3-0.4
				l0.1-0.1l0.1-0.1c-0.1,0-0.1,0.1-0.1,0.1c0.3-0.3,0.8-0.6,1.2-0.8l0,0l0,0l0,0c0.2-0.1,0.3-0.1,0.5-0.2h0.1l0,0
				c0.2,0,0.3-0.1,0.5-0.1l0,0l0,0l0,0l0,0c0.2,0,0.5-0.1,0.7-0.1l0,0c0,0,0,0,0.1,0c0,0,0,0-0.1,0c0.4-0.1,0.8-0.1,1-0.1h0.1l0,0
				h0.1l0,0c-0.3,0.9-0.5,2.2-0.7,3.6c-0.1,0.8-0.2,1.3-0.2,2.1v0.2c-0.2,2-0.1,3.4-0.2,4.6c0-1,0-2.2,0.1-3.9
				c-0.1,1.7-0.1,2.8-0.1,3.9c0,0.7,0,1.2,0,1.2l0,0c-1.4-1.6-2.6-3.3-3-4.3c-0.1-0.3-0.2-0.5-0.2-0.6l0,0l0,0l0,0
				c0,0,0-0.1-0.1-0.1c0,0,0,0.1,0.1,0.1c-0.1-0.2-0.4-1-0.6-1.9L58.1,32.7z M78,17.3L78,17.3L78,17.3z M78.3,35.6
				c0.1-0.5,0.3-1,0.5-1.4C78.5,34.6,78.4,35.1,78.3,35.6z M77.2,29.6c1-0.3,1.8-0.8,1.8-0.8l0,0l0,0c0.2,0.1,0.4,0.2,0.5,0.3
				c0.1,0,0.1,0.1,0.1,0.1s0.1,0,0.1,0.1c0,0-0.1,0-0.1-0.1c1.1,0.8,1.2,2,1.2,2c-0.7,0.7-1.3,1.6-1.6,2.1l0,0l0,0l0,0
				c-0.1,0.1-0.1,0.2-0.1,0.2c-1.3,2-1.2,5.5-1.2,5.5c-1.1,1.2-3,2.1-3,2.1l0,0l0,0l0,0c0.1-0.9,0.5-3,0.9-5
				c-0.1,0.6-0.2,1.2-0.3,1.7c0.1-0.6,0.2-1.1,0.3-1.7c0-0.2,0.1-0.5,0.1-0.7c0-0.1,0-0.1,0-0.2c0-0.2,0.1-0.4,0.1-0.6
				c0,0.2-0.1,0.4-0.1,0.6c0.1-0.5,0.2-0.9,0.3-1.3l0,0v-0.1l0,0l0,0l0,0C76.8,31.3,77.2,29.6,77.2,29.6c1-0.3,1.8-0.8,1.8-0.8l0,0
				C79,28.8,78.2,29.4,77.2,29.6c0,0-0.4,1.7-0.9,4.1l0,0l0,0C76.8,31.3,77.2,29.6,77.2,29.6z M82.4,24L82.4,24
				c-3-1.3-5.9-1.1-6.5-1.1c-0.1,0-0.1,0-0.1,0l0,0l0,0l0,0c0.1-0.5,0.3-1,0.4-1.5c0.4-1.2,0.8-2.2,1.2-3c0,0.1-0.1,0.2-0.1,0.3
				c0-0.1,0.1-0.2,0.1-0.3c0.1-0.2,0.2-0.4,0.3-0.6l0,0c0,0,0,0,0-0.1c0.1-0.2,0.2-0.3,0.2-0.4c0.1-0.2,0.2-0.4,0.2-0.4
				c0.3,0.1,0.6,0.2,0.8,0.3c-0.3-0.1-0.5-0.2-0.8-0.3c0.3,0.1,0.6,0.2,0.8,0.3l0,0c0.1,0,0.1,0.1,0.2,0.1s0.1,0,0.2,0.1l0,0
				c1.2,0.6,2,1.7,2.4,2.8l0,0l0,0l0,0c0,0,0,0,0,0.1c0.1,0.3,0.2,0.5,0.2,0.8l0,0c0,0.1,0,0.2,0.1,0.3c0,0.2,0.1,0.4,0.1,0.5
				s0,0.2,0,0.3c0,0.1,0,0.2,0,0.3c0,0.1,0,0.1,0,0.2l0,0v0.1v-0.1C82.5,23.4,82.4,24,82.4,24z"/>
		</g>
	</g>
	<g id="color1">
		<g>
			<path class="st2" d="M79.3,17.4L79.3,17.4c-0.1,0-0.1-0.1-0.2-0.1s-0.1-0.1-0.2-0.1l0,0c-0.3-0.1-0.5-0.2-0.8-0.3
				c0,0-0.3,0.6-0.7,1.4c-0.4,0.8-0.8,1.8-1.2,3c-0.2,0.5-0.3,1-0.4,1.5c0,0,0,0,0.1,0c0.6,0,3.5-0.2,6.4,1.1c0,0,0.2-1.9-0.5-3.8
				C81.3,19,80.5,18,79.3,17.4z"/>
			<path class="st2" d="M79.1,28.6c0,0-0.8,0.6-1.9,0.8c0,0-0.5,1.7-1,4.2c0,0,0,0,0,0.1v0.1l0,0c1.1-0.2,2.1-0.4,3.2-0.6l0,0
				c0.3-0.4,1-1.4,1.7-2.1C81.1,31.1,81,29.4,79.1,28.6z"/>
			<path class="st2" d="M61.4,27.9c-1.2,0.2-2.6,0.7-3.2,1.7c-0.1,0.1-0.1,0.2-0.2,0.3c-0.2,0.5-0.3,1.1-0.3,1.7
				c0,0.4,0.1,0.8,0.2,1.2c1.5,0.4,3.1,0.8,4.7,1c0.1-0.8,0.2-1.6,0.3-2.4c0.2-1.5,0.5-2.8,0.8-3.8C63.6,27.7,62.6,27.6,61.4,27.9z"
				/>
		</g>
		<g>
			<path class="st3" d="M58.5,34.6L58.5,34.6c0,0.1,0.1,0.3,0.3,0.6c0.5,1,1.6,3.1,3.3,4.8c0,0,0-0.5,0-1.2c0.1-1.2,0.2-3.1,0.4-5.1
				c-1.6-0.3-3.1-0.6-4.7-1C58,33.6,58.4,34.4,58.5,34.6z"/>
			<path class="st3" d="M79.4,33.2c-1,0.3-2.1,0.5-3.2,0.6c-0.1,0.4-0.2,0.9-0.3,1.3c-0.5,2.3-1,5.1-1.2,6.1c0,0,2-0.9,3.2-2.2
				c0,0-0.1-3.6,1.3-5.7C79.3,33.4,79.3,33.3,79.4,33.2z"/>
		</g>
		<g>
			<path class="st4" d="M131.6,49.1c-0.5-0.3-0.9-0.1-1.2-0.4c-0.4-0.4-0.1-0.6-0.3-0.8c-0.1-0.1-0.4,0.1-0.5,0
				c-1.8,2-2.4,2.5-3.9,3.6c0,0,1.8,0.2,7-1.7C131.5,49.6,132.1,49.4,131.6,49.1z"/>
			<path class="st4" d="M163.6,41.6l-0.4,0.1c-0.8,0.3-1.6,0.5-2.4,0.7c-0.1,0-0.2,0-0.3,0.1c-2.6,0.6-4.9,0.8-7.3,0.4
				c-0.5-0.1-1-0.2-1.6-0.4c-0.2-0.1-0.4-0.1-0.6-0.2c-0.2-0.1-0.4-0.1-0.6-0.2c-0.1,0.1-0.2,0.2-0.4,0.3l0,0
				c-0.2,0.2-0.5,0.4-0.7,0.5c-0.1,0.1-0.3,0.1-0.4,0.2c-0.1,0-0.2,0.1-0.3,0.1c-1.4,0.7-2.7,0.9-2.7,0.9l0,0l0,0
				c0,0.1,0.1,0.3,0.3,0.7v0.1c0,0.1,0.1,0.2,0.1,0.2c0,0.1,0.1,0.2,0.1,0.2c0.1,0.3,0.2,0.7,0.3,1.1l0,0c0.1,0.3,0.2,0.6,0.2,0.9
				c0.3,0,0.5,0.1,0.8,0.1c5.4,0.5,10.6-1,12.8-2.2c1.1-0.6,2-1.2,2.8-1.7c0.2-0.1,0.4-0.3,0.6-0.4l0,0c0.5-0.4,0.9-0.7,1.3-1.1
				c0.5-0.5,0.9-0.9,1.2-1.4C165.4,41.1,164.5,41.4,163.6,41.6z"/>
		</g>
		<path class="st2" d="M136.7,37.5L136.7,37.5c0-0.1,0-0.1,0-0.2c0,0.1-0.1,0.3-0.1,0.4c-0.8,2.4-2.7,3-3.2,5.8
			c-0.2,1.1,0.9,1.9,2.2,2.1c1.3,0.1,2.6-0.3,2.7-1.4C138.5,41.2,136.8,40.1,136.7,37.5z"/>
	</g>
	<g id="rosa">
		<g>
			<path class="st5" d="M137.1,34c0.2-0.3,1.2-1.3,2.8-2.2c0,0-0.3-5.2-1.8-5.5c-1.6,0-3.2,4.9-3.2,4.9
				C136.4,32.4,137.1,33.6,137.1,34z"/>
			<path class="st5" d="M136.7,37.5c0.1,2.6,1.8,3.7,1.6,6.6c-0.1,1.2-1.4,1.6-2.7,1.4c-1.3-0.2-2.4-0.9-2.2-2.1
				c0.5-2.8,2.3-3.4,3.2-5.8c-1.7,2.7-5.3,4.3-5.5,6.8c-0.3,4,3.5,4,4.7,4.5c1.8,0.1,4.9,0.1,4.2-3.9
				C139.6,42.4,137.4,40.5,136.7,37.5z"/>
			<path class="st5" d="M142.1,44.7L142.1,44.7c0.1,0.5,0.3,0.9,0.3,1.3s-0.2,0.8-0.3,1.3c0,0.1-0.1,0.2-0.1,0.3
				c1.8,1,3.3,1.4,3.6,1.2c0.6-0.4-1.1-4.2-1.1-4.2S143.4,44.8,142.1,44.7z"/>
			<path class="st5" d="M125.2,46c0.2,0.4,1.8,0.5,3.8,0c0-0.1,0-0.2,0-0.4c0-0.5-0.1-0.9,0-1.3c0.1-0.5,0.4-0.8,0.6-1.1v-0.1
				c-1.3-0.3-2.2-0.7-2.2-0.7S124.9,45.4,125.2,46z"/>
			<path class="st5" d="M133.9,31.7c-6.5-1.6-6.3,5-10.5,4.9c0.5,3.8,6.4,5.1,7.5,5.1c0.2,0,0.4,0,0.5,0c0.3-0.3,0.3-0.9,0.8-1.1
				c0.5-0.1,0.8-0.8,1.3-1c0.4-0.2,0.8-0.2,1.2-0.5c0.3-0.2,0.4-0.8,0.9-1c0.4-0.2,1.1-0.8,1.3-2.2
				C136.8,35.4,135.8,32.2,133.9,31.7z"/>
			<path class="st5" d="M140.9,32.7c-2,0-3.8,2.8-4,3.3c-0.2,1.4,0.3,2.2,0.7,2.4c0.4,0.3,0.4,0.9,0.6,1.2c0.3,0.4,0.7,0.4,1,0.7
				c0.4,0.3,0.5,1,1,1.3c0.4,0.2,0.3,0.9,0.5,1.2c0.2,0,0.3,0.1,0.5,0.2c1.1,0.3,7.1,0.6,8.5-3C145.7,39.1,147.6,32.8,140.9,32.7z"
				/>
		</g>
	</g>
	<rect x="222.3" y="5.9" class="st0" width="1.5" height="70.3"/>
	<path class="st0" d="M41.5,63.4c-1,0-1.9,0.3-2.7,0.8v-5.4h-2.1v14.1h2.1v-0.8c0.8,0.5,1.7,0.8,2.6,0.8h0.1c1,0,2-0.3,2.8-1
		c1.2-0.9,1.9-2.2,1.9-3.7V68c0-1-0.4-2-1-2.8C44.3,64.1,42.9,63.4,41.5,63.4z M44,68.2c0,0.5-0.2,1-0.5,1.4
		c-0.5,0.7-1.3,1.1-2.1,1.1c-0.5,0-0.9-0.1-1.3-0.3c-0.9-0.5-1.4-1.3-1.4-2.3c0-1.4,1.2-2.6,2.6-2.7c0.6,0,1.2,0.2,1.6,0.6
		c0.6,0.5,1,1.2,1,2C43.9,68,44,68.2,44,68.2z"/>
	<path class="st0" d="M55,67.6c0,0.4-0.1,0.9-0.2,1.3c-0.2,1.1-1.2,1.8-2.3,1.8c-0.5,0-1.1-0.1-1.5-0.4c-0.8-0.8-1.3-1.9-1.2-3v-3.9
		h-2.1v3.9c0,0.9,0.2,1.8,0.5,2.6c0.6,1.8,2.4,3.1,4.3,3c0.9,0,1.8-0.2,2.6-0.7v1.5c0,0.3-0.1,0.7-0.2,1c-0.3,1-1.3,1.7-2.3,1.6
		h-0.2v2.1h0.2c1.4,0,2.6-0.5,3.5-1.6c0.7-0.9,1.1-2,1.1-3.1V63.4H55V67.6z"/>
	<g>
		<polygon class="st0" points="260.2,59.4 257.1,59.4 254.4,63.2 251.7,59.4 248.6,59.4 252.9,64.9 248.4,70.5 248.4,68.9 
			239.3,68.9 239.3,63.3 247.5,63.3 247.5,60.9 239.3,60.9 239.3,55.9 248,55.9 248,53.5 236.7,53.5 236.7,71.3 247.8,71.3 
			248.4,71.3 250.8,71.3 254.4,66.6 258,71.3 261.2,71.3 255.9,64.9 		"/>
		<path class="st0" d="M270.3,59.5c-0.7-0.3-1.5-0.4-2.5-0.4c-0.5,0-0.9,0-1.4,0.1c-0.4,0.1-0.8,0.2-1.3,0.4
			c-0.4,0.2-0.9,0.4-1.2,0.7v-1h-2.4v17.2h2.4v-6.2c0.4,0.3,0.8,0.5,1.2,0.7c0.4,0.2,0.9,0.3,1.3,0.4c0.6,0.1,1,0.1,1.4,0.1
			c1,0,1.8-0.1,2.5-0.4c1.6-0.6,2.8-1.8,3.3-3.3c0.6-1.7,0.6-3.4,0-5C273,61.2,271.8,60,270.3,59.5z M264.1,63.7
			c0.2-0.4,0.5-0.8,0.9-1.2c0.5-0.3,0.9-0.7,1.4-0.9s1-0.3,1.6-0.3c0.5,0,1.1,0.2,1.5,0.5c0.3,0.2,0.8,0.5,1.2,0.9
			c0.3,0.3,0.6,0.7,0.8,1.2c0.4,0.9,0.4,2.1,0,3.1c-0.2,0.4-0.5,0.9-0.8,1.2c-0.5,0.4-0.9,0.7-1.3,0.9c-0.5,0.2-1,0.3-1.6,0.3
			c-0.5,0-1-0.2-1.6-0.4c-0.4-0.2-0.9-0.5-1.3-0.9c-0.4-0.5-0.7-0.9-0.9-1.3c-0.2-0.5-0.3-1-0.3-1.6
			C263.7,64.6,263.8,64.1,264.1,63.7z"/>
		<path class="st0" d="M285.1,67.9c-0.3,0.5-0.8,0.9-1.4,1.2c-0.6,0.2-1.3,0.4-1.9,0.4c-0.6,0-1.3-0.2-1.9-0.5
			c-0.4-0.1-0.8-0.5-1.1-0.9c-0.2-0.3-0.4-0.7-0.5-1.2c0-0.2-0.1-0.4-0.1-0.6h9.1v-1.5c0-0.7-0.1-1.4-0.3-2
			c-0.2-0.8-0.7-1.4-1.1-1.9c-0.4-0.5-1-0.9-1.8-1.3c-0.7-0.3-1.5-0.4-2.4-0.4c-1.7,0-3.4,0.7-4.4,1.8c-0.5,0.6-0.9,1.2-1.2,2
			c-0.3,0.7-0.4,1.5-0.4,2.5c0,0.9,0.1,1.6,0.4,2.4c0.2,0.7,0.6,1.4,1.2,2c0.6,0.5,1.2,1,2,1.3c0.7,0.3,1.5,0.4,2.5,0.4
			s1.9-0.2,2.9-0.6c1-0.4,1.7-1.1,2.3-2l0.4-0.4l-2-1.1L285.1,67.9z M278.4,63.8c0.1-0.3,0.2-0.7,0.5-1c0.3-0.4,0.7-0.7,1.1-1
			c0.3-0.3,0.8-0.4,1.6-0.4c0.5,0,0.9,0,1.3,0.2c0.4,0.2,0.8,0.5,1.1,0.7s0.6,0.6,0.7,0.9c0.1,0.3,0.2,0.5,0.2,0.7L278.4,63.8
			L278.4,63.8z"/>
		<path class="st0" d="M295.1,59c-0.9,0-1.7,0.2-2.4,0.7c-0.2,0.2-0.5,0.4-0.7,0.6v-1h-2.4l0.2,11.9h2.3v-6.4c0-0.5,0.1-1,0.2-1.4
			c0.1-0.4,0.3-0.7,0.5-1c0.2-0.3,0.6-0.6,0.9-0.7c0.4-0.2,0.9-0.3,1.4-0.3c0.1,0,0.2,0,0.3,0l0.6,0.3l0.4-2.5l-0.8-0.2H295.1z"/>
		<path class="st0" d="M299,54c-0.4-0.1-0.8,0-1.1,0.3s-0.5,0.7-0.5,1.2s0.2,0.8,0.4,1.1l0.1,0.1c0.3,0.3,0.7,0.4,1,0.4
			c0,0,0.1,0,0.2,0c0.3,0,0.6-0.1,0.8-0.3c0.3-0.3,0.5-0.7,0.5-1.1C300.5,54.9,300,54.2,299,54z"/>
		<rect x="297.8" y="59.3" class="st0" width="2.4" height="12"/>
		<path class="st0" d="M311.9,67.9c-0.3,0.5-0.8,0.9-1.4,1.2c-0.6,0.2-1.3,0.4-1.9,0.4c-0.6,0-1.3-0.2-1.9-0.5
			c-0.4-0.1-0.8-0.5-1.1-0.9c-0.2-0.3-0.4-0.7-0.5-1.2c0-0.2-0.1-0.4-0.1-0.6h9v-1.5c0-0.7-0.1-1.4-0.3-2c-0.2-0.8-0.7-1.4-1.1-1.9
			c-0.4-0.5-1-0.9-1.8-1.3c-0.7-0.3-1.5-0.4-2.4-0.4c-0.6,0-1.5,0.1-2.4,0.5c-0.7,0.4-1.3,0.8-1.8,1.3c-0.5,0.6-0.9,1.2-1.2,2
			c-0.3,0.7-0.4,1.5-0.4,2.5c0,0.9,0.1,1.6,0.4,2.4c0.2,0.7,0.6,1.4,1.2,2c0.6,0.5,1.2,1,2,1.3c0.7,0.3,1.5,0.4,2.5,0.4
			s1.9-0.2,2.9-0.6c1-0.4,1.7-1.1,2.3-2l0.3-0.5l-2.1-0.9L311.9,67.9z M305.3,63.9L305.3,63.9c0.1-0.4,0.2-0.8,0.5-1.1
			c0.3-0.4,0.7-0.7,1.1-1c0.3-0.3,0.8-0.4,1.6-0.4c0.5,0,0.9,0,1.3,0.2c0.4,0.2,0.8,0.5,1.1,0.7c0.3,0.2,0.6,0.6,0.7,0.9
			c0.1,0.3,0.2,0.5,0.2,0.7H305.3z"/>
		<path class="st0" d="M326,60.7c-0.3-0.6-0.8-0.9-1.4-1.3c-1.4-0.6-3-0.8-4.9,0.3c-0.3,0.2-0.6,0.4-0.8,0.7v-1.1h-2.4v11.8h2.5v-6
			c0-0.7,0.1-1.3,0.3-1.8c0.2-0.4,0.4-0.9,0.7-1.2s0.6-0.5,1-0.7c0.8-0.3,1.9-0.3,2.4,0c0.3,0.2,0.5,0.5,0.7,0.7
			c0.1,0.2,0.2,0.5,0.3,0.9c0.1,0.4,0.1,0.8,0.1,1.2v7h2.4v-6.9c0-0.6-0.1-1.3-0.2-1.9C326.5,61.8,326.3,61.2,326,60.7z"/>
		<path class="st0" d="M337.7,68.2c-0.4,0.4-0.8,0.7-1.2,1c-0.3,0.2-0.7,0.3-1.3,0.3c-0.5,0-1.1-0.2-1.6-0.4
			c-0.3-0.2-0.8-0.5-1.2-0.9c-0.3-0.3-0.6-0.7-0.8-1.2c-0.4-0.9-0.4-2.1,0-3.1c0.2-0.4,0.5-0.9,0.8-1.2c0.5-0.4,0.9-0.7,1.3-0.9
			c0.5-0.2,1-0.3,1.6-0.3c0.6,0,1,0.1,1.4,0.3c0.6,0.3,0.9,0.6,1.3,1l0.3,0.3l1.8-1.5l-0.3-0.4c-0.6-0.7-1.3-1.2-2-1.5
			c-0.9-0.3-1.6-0.5-2.4-0.5c-1,0-1.8,0.1-2.5,0.4c-0.8,0.3-1.5,0.8-2,1.3c-0.5,0.6-1,1.2-1.3,2c-0.7,1.6-0.7,3.4,0,5
			c0.3,0.8,0.8,1.5,1.3,2c0.6,0.5,1.2,1,2,1.3c0.7,0.3,1.5,0.4,2.5,0.4c0.8,0,1.5-0.2,2.3-0.7c0.7-0.3,1.4-0.8,2-1.5l0.4-0.5l-2.1-1
			L337.7,68.2z"/>
		<rect x="341.4" y="59.3" class="st0" width="2.4" height="12"/>
		<path class="st0" d="M342.6,54c-0.4-0.1-0.8,0-1.1,0.3S341,55,341,55.5s0.2,0.8,0.4,1.1l0.1,0.1c0.3,0.3,0.7,0.4,1,0.4
			c0,0,0.1,0,0.2,0c0.3,0,0.6-0.1,0.8-0.3c0.3-0.3,0.5-0.7,0.5-1.1c0.1-0.5-0.1-0.9-0.4-1.2C343.4,54.2,343,54.1,342.6,54z"/>
		<path class="st0" d="M356.7,63.4c0.1-1.2-0.4-2.5-1.4-3.5c-1.1-0.7-2.4-1.1-3.5-1c-0.6,0-1.6,0-2.4,0.4c-0.7,0.3-1.4,0.7-2.1,1.3
			l-0.4,0.3l1.4,1.8l0.4-0.3c1.5-1.1,3.5-1.4,5-0.6c0.3,0.2,0.8,0.8,0.7,1.6v0.2h-1.2c-0.6,0-1.3,0-2,0.1c-0.7,0.1-1.5,0.2-2.1,0.5
			c-0.8,0.2-1.4,0.7-1.9,1.3c-0.5,0.6-0.7,1.4-0.7,2.2c-0.2,1.1,0.4,2.2,1.3,2.9c0.5,0.4,1.2,0.6,1.5,0.7h0.2
			c0.4,0.1,0.8,0.2,1.3,0.2c0.7,0,1.7-0.1,2.6-0.3c0.3-0.2,0.6-0.4,0.9-0.6c0.1,0.2,0.1,0.3,0.1,0.5l0.1,0.4h2.2V71
			c0-0.2-0.1-0.4-0.1-0.6s0-0.3,0-0.4v-0.2c-0.1-0.2-0.1-0.4-0.1-0.8v-2.6L356.7,63.4z M352.5,69c-0.8,0.3-1.8,0.4-2.5,0.2
			c-0.2-0.1-0.5-0.2-0.6-0.3l-0.1-0.1h-0.1c-0.2-0.1-0.2-0.1-0.3-0.3c-0.1-0.2-0.2-0.5-0.2-0.7c0-0.4,0.1-0.7,0.3-0.9
			c0.2-0.3,0.6-0.4,0.9-0.6c0.5-0.2,0.9-0.3,1.4-0.4c0.5-0.1,1.1-0.1,1.7-0.1h1.2V66c0,0.4-0.1,0.8-0.2,1.3c-0.1,0.3-0.2,0.7-0.5,1
			S352.9,68.8,352.5,69z"/>
		<path class="st0" d="M365.4,64.5c-0.5-0.3-1.1-0.4-1.6-0.5h-0.2c-0.3,0-0.7-0.1-1-0.2c-0.1,0-0.3-0.1-0.4-0.1
			c-0.2-0.1-0.3-0.1-0.4-0.2c-0.2-0.1-0.4-0.2-0.6-0.3c-0.3-0.2-0.4-0.5-0.4-0.7c0-0.1,0-0.3,0.1-0.4c0.2-0.2,0.3-0.4,0.4-0.4
			c0.1-0.1,0.3-0.1,0.4-0.2c0.1,0,0.2-0.1,0.3-0.1c0.7-0.2,1.5-0.1,2,0.2c0.4,0.3,0.7,0.7,0.8,1l0.2,0.6l2.2-1.3l-0.2-0.4
			c-0.3-0.8-1-1.5-1.7-1.8c-0.7-0.4-1.5-0.6-2.6-0.6c-0.4,0-0.9,0.1-1.5,0.2c-0.5,0.1-0.9,0.4-1.4,0.7c-0.5,0.4-0.8,0.8-1,1.2
			c-0.3,0.4-0.4,1-0.4,1.6c0,0.6,0.1,1.2,0.6,1.9c0.3,0.5,0.8,0.9,1.4,1.1c0.4,0.1,1,0.4,1.7,0.5c0.7,0.1,1.1,0.2,1.6,0.4
			c0.3,0.1,0.6,0.2,1,0.5c0.1,0.1,0.3,0.4,0.3,0.7c0,0.2,0,0.3-0.1,0.4l-0.6,0.6c-0.1,0.1-0.4,0.2-0.6,0.3c-0.2,0.1-0.4,0.1-0.7,0.1
			c-0.6,0-1.1-0.1-1.7-0.4c-0.5-0.3-0.8-0.6-1.1-1.1l-0.2-0.5l-2.2,1.3L358,69c0.4,0.8,1,1.4,2,1.9c0.8,0.5,1.8,0.7,2.8,0.7
			c0.5,0,1.1-0.1,1.6-0.4c0.5-0.1,1-0.3,1.5-0.7c0.5-0.3,0.8-0.7,1.1-1.3c0.2-0.6,0.3-1.1,0.3-1.7c0-0.5-0.1-1.3-0.6-2
			C366.4,65.1,365.9,64.7,365.4,64.5z"/>
		<polygon class="st0" points="389.1,53.5 386,53.5 381.5,59.9 376.9,53.5 373.8,53.5 380,62 373.5,71.3 376.6,71.3 381.6,64.1 
			386.6,71.3 389.8,71.3 383,62 		"/>
		<path class="st0" d="M398,68.2c-0.4,0.4-0.8,0.7-1.2,1c-0.3,0.2-0.7,0.3-1.3,0.3c-0.5,0-1-0.2-1.6-0.4c-0.3-0.2-0.8-0.5-1.2-0.9
			c-0.3-0.3-0.6-0.7-0.8-1.2c-0.4-0.9-0.4-2.1,0-3.1c0.2-0.5,0.5-0.9,0.8-1.2c0.5-0.4,0.9-0.7,1.3-0.9c0.5-0.2,1-0.3,1.6-0.3
			c0.6,0,1,0.1,1.4,0.3c0.6,0.3,0.9,0.6,1.3,1l0.3,0.3l1.8-1.5l-0.3-0.4c-0.6-0.7-1.3-1.2-2-1.5c-0.9-0.3-1.6-0.5-2.4-0.5
			c-1,0-1.8,0.1-2.5,0.4c-0.8,0.3-1.5,0.7-2,1.3s-1,1.2-1.3,2c-0.7,1.6-0.7,3.4,0,5c0.3,0.8,0.7,1.5,1.3,2c0.6,0.5,1.2,1,2,1.3
			c0.7,0.3,1.5,0.4,2.5,0.4c0.8,0,1.5-0.2,2.3-0.7c0.7-0.3,1.4-0.8,2-1.5l0.4-0.5l-2.1-1L398,68.2z"/>
		<path class="st0" d="M411.4,63.5c0.1-1.2-0.4-2.5-1.4-3.5c-1.1-0.7-2.4-1.1-3.5-1c-0.6,0-1.6,0-2.4,0.4c-0.8,0.4-1.5,0.8-2.1,1.3
			l-0.4,0.3l1.4,1.8l0.4-0.3c1.5-1.1,3.5-1.4,5-0.6c0.3,0.2,0.8,0.8,0.7,1.6v0.2h-1.2c-0.6,0-1.3,0-2,0.1c-0.7,0.1-1.5,0.2-2.1,0.5
			c-0.8,0.2-1.4,0.7-1.9,1.3s-0.7,1.4-0.7,2.2c-0.2,1.1,0.4,2.2,1.3,2.9c0.5,0.4,1.2,0.6,1.5,0.7h0.2c0.4,0.1,0.8,0.2,1.3,0.2
			c0.7,0,1.7-0.1,2.5-0.4c0.3-0.2,0.6-0.4,0.8-0.6c0.1,0.2,0.1,0.3,0.1,0.5l0.1,0.4h2.3V71c0-0.5,0-0.8-0.1-1.2
			c-0.1-0.2-0.1-0.4-0.1-0.8v-2.6L411.4,63.5z M407.2,69c-0.8,0.3-1.8,0.4-2.5,0.2c-0.2-0.1-0.5-0.2-0.6-0.3l-0.1-0.1h-0.1
			c-0.2,0-0.2-0.1-0.3-0.3c-0.2-0.3-0.4-1,0.1-1.6c0.2-0.3,0.6-0.4,0.9-0.6c0.5-0.2,0.9-0.3,1.4-0.4c0.5-0.1,1.1-0.1,1.7-0.1h1.2V66
			c0,0.4-0.1,0.8-0.2,1.3c-0.1,0.3-0.2,0.7-0.5,1S407.6,68.8,407.2,69z"/>
		<path class="st0" d="M419.8,59h-0.5c-0.9,0-1.7,0.2-2.4,0.7c-0.2,0.2-0.5,0.4-0.7,0.6v-1h-2.4l0.3,11.9h2.3v-6.3
			c0-0.5,0.1-1,0.2-1.4c0.1-0.4,0.3-0.7,0.5-1c0.2-0.3,0.6-0.6,0.9-0.7c0.4-0.2,0.9-0.3,1.4-0.3c0.1,0,0.2,0,0.3,0l0.7,0.3l0.2-2.6
			L419.8,59z"/>
		<path class="st0" d="M429.9,67.9c-0.3,0.5-0.8,0.9-1.4,1.2c-0.6,0.2-1.3,0.4-1.9,0.4c-0.6,0-1.3-0.2-1.9-0.5
			c-0.4-0.1-0.8-0.5-1.1-0.9c-0.2-0.3-0.4-0.7-0.5-1.2c0-0.2-0.1-0.4-0.1-0.6h9v-1.5c0-0.7-0.1-1.4-0.3-2c-0.2-0.8-0.7-1.4-1.1-1.9
			c-0.4-0.5-1-0.9-1.8-1.3c-0.7-0.3-1.5-0.4-2.4-0.4c-0.6,0-1.5,0.1-2.4,0.5c-0.7,0.4-1.3,0.8-1.8,1.3c-0.5,0.6-0.9,1.2-1.2,2
			c-0.3,0.7-0.4,1.5-0.4,2.5c0,0.9,0.1,1.6,0.4,2.4c0.2,0.7,0.6,1.4,1.2,2c0.6,0.5,1.2,1,2,1.3c0.7,0.3,1.5,0.4,2.5,0.4
			s1.9-0.2,2.9-0.6c1-0.4,1.7-1.1,2.3-2l0.3-0.5l-2.1-0.9L429.9,67.9z M423.3,63.9L423.3,63.9c0.1-0.4,0.2-0.8,0.5-1.1
			c0.3-0.4,0.7-0.7,1.1-1c0.3-0.3,0.8-0.4,1.6-0.4c0.5,0,0.9,0,1.3,0.2c0.4,0.2,0.8,0.5,1.1,0.7c0.3,0.2,0.6,0.6,0.7,0.9
			c0.1,0.3,0.2,0.5,0.2,0.7H423.3z"/>
		<path class="st0" d="M440.8,68.8l-0.6,0.2c-0.1,0.1-0.3,0.1-0.4,0.2c-0.1,0.1-0.2,0.1-0.4,0.2c-0.1,0-0.4,0-0.6,0
			c-0.3,0-0.5-0.2-0.7-0.3c-0.2-0.1-0.3-0.4-0.3-0.7v-6.7h3.1l-0.2-2.3h-3.1v-3.2h-2.4v3.2h-2.4v2.3h2.4v6.7c0,0.4,0.1,0.7,0.2,1
			l0.1,0.2c0.2,0.3,0.4,0.7,0.6,1l0.1,0.1c0.3,0.3,0.7,0.6,1.1,0.7c0.6,0.1,1,0.2,1.4,0.2c0.3,0,0.7,0,1-0.1l1.3-0.4L440.8,68.8z"/>
		<path class="st0" d="M241.2,44.1c1.2,0.5,2.4,0.7,3.7,0.7c1.2,0,2.5-0.3,3.8-0.7c1.1-0.4,2.1-1,3-1.9c0.8-0.8,1.4-1.8,1.9-3
			c0.9-2.4,0.9-5.1,0-7.5c-0.5-1.2-1.1-2.2-1.9-3c-0.8-0.8-1.8-1.4-3-1.9c-2.5-0.9-5.1-0.9-7.5,0c-1.1,0.4-2.1,1-3,1.9
			c-0.8,0.8-1.4,1.8-1.9,3c-0.4,1.2-0.6,2.4-0.6,3.7s0.2,2.7,0.6,3.8c0.4,1.1,1,2.1,1.9,3C239,43,240,43.6,241.2,44.1z M238.2,35.4
			c0-1.1,0.2-1.9,0.5-2.7c0.3-0.7,0.7-1.5,1.3-2.2c0.5-0.7,1.2-1.1,2-1.5c0.9-0.4,1.9-0.6,2.8-0.6c0.9,0,1.8,0.2,2.8,0.5
			c0.9,0.5,1.5,1,2,1.5c0.6,0.8,1,1.5,1.3,2.3c0.7,1.6,0.7,3.6,0,5.4c-0.3,0.7-0.7,1.4-1.3,2.1c-0.5,0.6-1.1,1.1-2,1.5
			c-1.8,0.7-3.8,0.7-5.5,0c-1-0.5-1.6-0.9-2.1-1.5c-0.6-0.6-1-1.3-1.3-2.1C238.4,37.2,238.2,36.3,238.2,35.4z"/>
		<path class="st0" d="M262.5,34.6h2.2l0.1,9.7h2.2v-9.8h2.6v-2.3H267v-2.6c0-2.4,1-2.4,1.5-2.4c0.4,0,0.6,0,1,0.2l0.6,0.3l0.6-2.2
			l-0.4-0.2c-0.6-0.2-1.2-0.3-1.8-0.3c-0.4,0-0.7,0.1-1,0.2h-0.2c-0.5,0.1-1,0.4-1.3,0.7c-0.3,0.4-0.7,0.8-0.9,1.3
			c-0.2,0.7-0.3,1.4-0.3,2v3.1h-2.3V34.6z"/>
		<path class="st0" d="M258.8,29.6c0-2.4,1-2.4,1.5-2.4c0.4,0,0.6,0,1,0.2l0.6,0.3l0.6-2.2l-0.4-0.2c-0.6-0.2-1.2-0.3-1.8-0.3
			c-0.4,0-0.7,0.1-1,0.2h-0.2c-0.5,0.1-1,0.4-1.3,0.7c-0.3,0.4-0.7,0.8-0.9,1.3c-0.2,0.7-0.3,1.3-0.3,2v3.1h-2.3v2.3h2.3v9.7h2.4
			v-9.8h2.4v-2.3h-2.6V29.6z"/>
		<path class="st0" d="M272.3,30.1c0,0,0.1,0,0.2,0c0.3,0,0.6-0.1,1-0.4c0.3-0.3,0.5-0.7,0.5-1.1c0.1-0.4,0-0.8-0.3-1.1
			c-0.3-0.3-0.7-0.5-1.1-0.5c-0.4-0.1-0.8,0-1.1,0.3S271,28,271,28.5s0.1,0.8,0.4,1.2C271.6,30,272,30.1,272.3,30.1z"/>
		<rect x="271.2" y="32.3" class="st0" width="2.4" height="12"/>
		<path class="st0" d="M277.9,42.9c0.6,0.5,1.2,1,2,1.3c0.7,0.3,1.5,0.4,2.5,0.4c0.8,0,1.5-0.2,2.2-0.7c0.7-0.3,1.4-0.8,2-1.5
			L287,42l-1.9-1.2l-0.3,0.3c-0.4,0.4-0.8,0.7-1.2,1c-0.3,0.2-0.8,0.3-1.4,0.3c-0.5,0-1.1-0.2-1.6-0.4c-0.3-0.2-0.8-0.5-1.2-0.9
			c-0.3-0.3-0.6-0.7-0.8-1.2c-0.4-0.9-0.4-2.1,0-3.1c0.2-0.5,0.5-0.9,0.8-1.2c0.5-0.4,0.9-0.7,1.3-0.9c0.5-0.2,1-0.3,1.6-0.3
			c0.6,0,1,0.1,1.4,0.3c0.6,0.3,0.9,0.6,1.3,1l0.3,0.3l1.8-1.5l-0.3-0.4c-0.6-0.7-1.3-1.2-2-1.5c-0.9-0.3-1.6-0.5-2.4-0.5
			c-1,0-1.8,0.1-2.5,0.4c-0.8,0.3-1.5,0.8-2,1.3c-0.5,0.6-1,1.2-1.3,2c-0.6,1.6-0.6,3.5,0,5.1C276.9,41.7,277.4,42.4,277.9,42.9z"/>
		<rect x="288.3" y="32.3" class="st0" width="2.4" height="12"/>
		<path class="st0" d="M289.5,30.1c0,0,0.1,0,0.2,0c0.3,0,0.6-0.1,0.9-0.4c0.3-0.3,0.5-0.7,0.5-1.1c0.1-0.4,0-0.8-0.3-1.1
			c-0.3-0.3-0.7-0.5-1.1-0.5c-0.4-0.1-0.8,0-1.1,0.3s-0.5,0.7-0.5,1.2s0.1,0.8,0.4,1.2C288.8,30,289.2,30.1,289.5,30.1z"/>
		<path class="st0" d="M303.7,44c0-0.2-0.1-0.4-0.1-0.6c0-0.1,0-0.3,0-0.4v-0.2c-0.1-0.2-0.1-0.5-0.1-0.8v-2.6l0.4-2.9
			c0.1-1.2-0.4-2.5-1.4-3.5c-1.1-0.7-2.4-1.1-3.5-1c-0.6,0-1.5,0-2.4,0.4c-0.8,0.4-1.5,0.8-2.1,1.3l-0.4,0.3l1.4,1.8l0.4-0.3
			c1.5-1.1,3.5-1.4,5-0.6c0.3,0.2,0.8,0.8,0.7,1.6v0.2h-1.2c-0.8,0-1.4,0-2,0.1c-0.7,0.1-1.5,0.2-2.1,0.5c-0.8,0.2-1.4,0.7-1.9,1.3
			c-0.5,0.7-0.7,1.5-0.7,2.2c-0.2,0.6,0.1,1.2,0.3,1.8c0.2,0.4,0.5,0.8,1,1.1c0.5,0.4,1.2,0.6,1.5,0.7h0.2c0.4,0.1,0.8,0.2,1.3,0.2
			c0.7,0,1.7-0.1,2.6-0.4c0.3-0.2,0.6-0.4,0.8-0.6c0.1,0.2,0.1,0.3,0.1,0.5l0.1,0.4h2.1V44z M296,39.9c0.2-0.3,0.6-0.4,0.9-0.6
			c0.5-0.2,0.9-0.3,1.4-0.4c0.5-0.1,1.1-0.1,1.7-0.1h1.1v0.3c0,0.4,0,0.7-0.1,1.1v0.1c-0.1,0.3-0.2,0.7-0.5,1s-0.6,0.5-1,0.7
			c-0.8,0.3-1.8,0.4-2.5,0.2c-0.2-0.1-0.5-0.2-0.6-0.3l-0.1-0.1h-0.1c-0.2-0.1-0.2-0.1-0.3-0.3c-0.1-0.2-0.2-0.5-0.2-0.7
			C295.7,40.4,295.8,40.1,296,39.9z"/>
		<rect x="306.4" y="25.3" class="st0" width="2.4" height="19"/>
		<path class="st0" d="M331.7,41.4c-0.3,0.3-0.7,0.5-1,0.6c-1.3,0.3-2.5,0.3-3.3-0.2c-0.6-0.3-1-0.8-1.4-1.4l-0.2-0.4l-2.7,1.4
			l0.3,0.5c0.7,1,1.5,1.8,2.6,2.2s2.2,0.6,3.3,0.6c0.8,0,1.5-0.1,2.2-0.4c0.7-0.2,1.3-0.6,1.9-1c0.5-0.5,0.9-1,1.2-1.6
			c0.4-0.6,0.5-1.4,0.5-2.2c0.1-1-0.1-2-0.7-2.8c-0.4-0.7-1.1-1.2-1.8-1.6c-0.7-0.3-1.5-0.6-2.2-0.8s-1.4-0.4-2-0.7
			c-0.5-0.3-1-0.6-1.4-1c-0.3-0.4-0.5-1-0.5-1.6c0-0.5,0-0.9,0.2-1.2s0.5-0.6,0.7-0.8c0.3-0.2,0.7-0.4,1-0.5
			c0.4-0.1,0.9-0.2,1.4-0.2c1,0,2.1,0.5,2.7,1.5l0.3,0.4l2.2-1.6l-0.3-0.4c-0.4-0.7-1.2-1.3-2.2-1.8c-0.9-0.2-1.8-0.5-2.8-0.5
			c-0.8,0-1.6,0.1-2.2,0.3c-0.7,0.2-1.4,0.6-1.9,1c-0.5,0.5-1,1-1.3,1.7c-0.4,0.6-0.5,1.3-0.5,2.2c0,0.9,0.1,1.6,0.4,2.2
			c0.2,0.6,0.7,1.1,1.1,1.5c0.5,0.4,1,0.8,1.6,1c0.2,0.1,0.5,0.2,0.8,0.3c0.2,0.1,0.5,0.2,0.8,0.3l1.7,0.5c0.5,0.1,0.9,0.3,1.3,0.6
			c0.3,0.1,0.5,0.4,0.8,0.7c0.2,0.3,0.3,0.7,0.3,1.2s0,0.9-0.2,1.2S331.9,41.2,331.7,41.4z"/>
		<path class="st0" d="M339.1,27c-0.4-0.1-0.8,0-1.1,0.3s-0.5,0.7-0.5,1.2s0.1,0.8,0.4,1.2c0.2,0.3,0.6,0.4,0.9,0.4c0,0,0.1,0,0.2,0
			c0.3,0,0.6-0.1,1-0.4c0.3-0.3,0.5-0.7,0.5-1.1c0.1-0.4,0-0.8-0.3-1.1C339.9,27.2,339.5,27,339.1,27z"/>
		<rect x="337.7" y="32.3" class="st0" width="2.4" height="12"/>
		<path class="st0" d="M348.3,44.5l1.3-0.4l-0.2-2.3l-0.6,0.2c-0.1,0.1-0.3,0.1-0.4,0.2c-0.1,0.1-0.2,0.1-0.4,0.2
			c-0.1,0-0.4,0-0.6,0c-0.3,0-0.5-0.1-0.7-0.3c-0.2-0.1-0.3-0.4-0.3-0.7v-6.7h2.6v-0.5h0.3v-1.7h-3.1v-3.2h-2.4v3.2h-2.4v2.3h2.4
			v6.6c0,0.4,0.1,0.7,0.2,1l0.1,0.2c0.2,0.3,0.4,0.7,0.6,1l0.1,0.1c0.3,0.3,0.7,0.6,1.1,0.7c0.6,0.1,1,0.2,1.4,0.2
			C347.6,44.6,348,44.6,348.3,44.5z"/>
		<path class="st0" d="M361.7,42l0.3-0.5l-2.1-1l-0.2,0.4c-0.3,0.5-0.8,0.9-1.4,1.2c-0.6,0.2-1.3,0.4-1.9,0.4
			c-0.6,0-1.3-0.2-1.9-0.5c-0.4-0.1-0.8-0.5-1.1-0.9c-0.2-0.3-0.4-0.7-0.5-1.2c0-0.2-0.1-0.4-0.1-0.6h9.1v-1.5c0-0.7-0.1-1.4-0.3-2
			c-0.2-0.8-0.7-1.4-1.1-1.9c-0.4-0.5-1-0.9-1.8-1.3c-0.7-0.3-1.5-0.4-2.4-0.4c-0.6,0-1.5,0.1-2.4,0.5c-0.7,0.4-1.3,0.8-1.8,1.3
			c-0.6,0.6-0.9,1.4-1.2,2c-0.3,0.7-0.4,1.5-0.4,2.5c0,0.9,0.1,1.6,0.4,2.4c0.2,0.7,0.6,1.4,1.2,2c0.6,0.5,1.2,1,2,1.3
			c0.6,0.3,1.5,0.4,2.4,0.4c0.2,0,0.3,0,0.5,0c0.7,0,1.5-0.2,2.4-0.6C360.4,43.6,361.1,42.9,361.7,42z M353.1,36.9L353.1,36.9
			c0.1-0.4,0.2-0.8,0.5-1.1c0.3-0.4,0.7-0.7,1.1-1c0.3-0.3,0.8-0.4,1.6-0.4c0.5,0,0.9,0,1.3,0.2c0.4,0.2,0.8,0.5,1.1,0.7
			s0.6,0.6,0.7,0.9c0.1,0.3,0.2,0.5,0.2,0.7H353.1z"/>
	</g>
	</g>
</svg>
