<svg id="Layer_1" xmlns="http://www.w3.org/2000/svg" viewBox="0 0 135.6 37"><style>.st0{fill:#fff}</style><g id="Group_485" transform="translate(819 7904)"><g id="Group_483" transform="translate(.052)"><g id="Group_482"><path id="Path_1463" class="st0" d="M-766.5-7891.4v8.8l1.6 2.1h5.2v-10.9h-6.8z"/><path id="Path_1464" class="st0" d="M-737.3-7880.4h6.8v-10.9h-6.8v10.9z"/><circle id="Ellipse_1285" class="st0" cx="-733.9" cy="-7895.3" r="3.4"/><path id="Path_1465" class="st0" d="M-785.7-7894.5c-.4-1.4-1.3-2.6-2.5-3.4-.4-.2-.7-.4-1.1-.5h-.1c-.3-.1-.6-.2-.9-.2h-.5c-.5 0-.9.1-1.3.2h-.1c-.1 0-.2.1-.4.1-1.7.6-2.9 2-3.3 3.7-2.2.5-3.8 2.4-4 4.6v.5c0 .6.1 1.2.3 1.8.6 1.7 2 2.9 3.7 3.3.4 1.9 1.8 3.3 3.7 3.8.5.1.9.2 1.4.2.2 0 .3 0 .5-.1.3 0 .6-.1.9-.2.4-.1.7-.3 1.1-.4 1.3-.7 2.3-1.9 2.6-3.4 1.7-.4 3.1-1.7 3.7-3.3.2-.6.3-1.2.3-1.8v-.5c-.1-2-1.8-3.9-4-4.4zm-5 7.9c-1.6 0-2.8-1.3-2.9-2.8 0-.2 0-.4.1-.6 0-.1.1-.2.1-.3.4-1.5 2-2.4 3.5-2 1 .3 1.7 1 2 2 0 .1 0 .2.1.3 0 .2.1.4.1.6-.2 1.5-1.4 2.8-3 2.8z"/><path id="Path_1466" class="st0" d="M-763-7898.8c-1.9 0-3.4 1.5-3.4 3.4s1.5 3.4 3.4 3.4 3.4-1.5 3.4-3.4c0-1.8-1.5-3.3-3.4-3.4z"/><path id="Path_1467" class="st0" d="M-748.6-7895.5l-2.8-3.1h-7.5v18.1h6.8v-9l2.9 1.1c-.4-.6-.6-1.2-.6-1.9 0-1 .4-2 1.2-2.7 1.3 1.2 1.6 3.1.6 4.6l2.9-1.1v9h6.9v-18.1h-7.7l-2.7 3.1z"/><path id="Path_1468" class="st0" d="M-709.2-7887.9c-.6 1.3-1.9 2.1-3.3 2-.9 0-1.8-.4-2.5-1-.7-.7-1.1-1.6-1.1-2.6s.4-1.9 1.1-2.6c.7-.7 1.6-1 2.5-1 1.2-.1 2.4.5 3.1 1.6h2.6c.3-1.4 1-2.8 1.9-3.9-1.8-2.3-4.6-3.6-7.5-3.5-2.6 0-5 1-6.9 2.8-1.8 1.8-2.8 4.2-2.8 6.7 0 .8.1 1.6.3 2.3 0 .1.1.2.1.3h5.3v6c1.2.5 2.6.8 3.9.8 2.9 0 5.6-1.2 7.5-3.4-1-1.3-1.7-2.8-1.9-4.5h-2.3z"/><path id="Path_1469" class="st0" d="M-723-7886v-12.5h-6.8v18.1h12.6v-5.6h-5.8z"/><path id="Path_1470" class="st0" d="M-696.6-7899c-5.3-.1-9.7 4.2-9.8 9.5.2 5.4 4.7 9.6 10.1 9.5 5.2-.2 9.3-4.3 9.5-9.5-.1-5.3-4.4-9.6-9.8-9.5zm0 13.2c-2.1 0-3.7-1.7-3.7-3.8 0-2.1 1.7-3.7 3.8-3.7 2 0 3.7 1.7 3.7 3.7 0 2.2-1.7 3.8-3.8 3.8z"/><path id="Path_1471" class="st0" d="M-772.3-7889.1l6.5-9.5h-9.1l-2.6 3.1-2.8-3.1h-7.4c1.3.7 2.3 1.9 2.8 3.4 2.3.7 3.9 2.8 4.2 5.2v.5c0 .7-.1 1.4-.4 2-.6 1.8-2 3.1-3.8 3.7-.5 1.4-1.4 2.6-2.8 3.4h7.5l2.6-3.1 2.8 3.1h9.1l-6.6-8.7z"/><path id="Path_1472" class="st0" d="M-796.4-7883.8c-1.8-.6-3.2-1.9-3.8-3.7-.2-.7-.4-1.3-.4-2v-.5c.2-2.4 1.8-4.5 4.1-5.2.5-1.4 1.5-2.6 2.8-3.4h-7.6l-2.7 3.1-2.8-3.1h-9l6.5 8.7-6.5 9.5h9.2l2.6-3.1 2.8 3.1h7.4c-1.2-.8-2.1-2-2.6-3.4z"/></g></g><g id="Group_484" transform="translate(0 19.718)"><path id="Path_1473" class="st0" d="M-815.1-7897.2c0-.1 0-.1.1-.1l.1-.1h1.2c.1 0 .1 0 .2.1l1 3.3 1-3.3c.1-.1.1-.2.2-.2h1.2c.1 0 .1 0 .1.1l.1.1c.1.8.2 1.7.3 2.5s.2 1.7.3 2.5c0 .1 0 .1-.1.2h-1c-.1 0-.1 0-.2-.1l-.3-2.8-.8 2.8s0 .1-.1.1l-.1.1h-.9c-.1 0-.1 0-.1-.1s-.1-.1-.1-.1l-.8-2.8-.3 2.8c0 .1 0 .1-.1.2h-1c-.1 0-.1 0-.2-.1l.3-5.1z"/><path id="Path_1474" class="st0" d="M-808.9-7897.2c0-.1 0-.1.1-.1l.1-.1h3.6c.1 0 .1 0 .1.1l.1.1v.9c0 .1 0 .1-.1.1s-.1.1-.1.1h-2.3v.9h1.8c.1 0 .1 0 .1.1.1 0 .1.1.1.1v.8c0 .1 0 .1-.1.1s-.1.1-.1.1h-1.8v.9h2.4c.1 0 .1 0 .2.1v1c0 .1-.1.1-.2.1h-3.6c-.1 0-.1 0-.1-.1-.1 0-.1-.1-.1-.1l-.1-5.1z"/><path id="Path_1475" class="st0" d="M-804.9-7892.2c0-.1.1-.1.1-.1l.1-.1 1.6-2.4c-.3-.4-.6-.8-.8-1.2-.3-.4-.5-.8-.8-1.2v-.2h1.4c.1 0 .2.1.2.2l.9 1.3.9-1.3c.1-.1.1-.2.2-.2h1.3v.1c0 .1 0 .1-.1.1l-1.5 2.5 1.7 2.5c0 .1.1.1.1.1v.1c0 .1 0 .1-.1.1h-1.3c-.1 0-.1 0-.1-.1-.1 0-.1-.1-.1-.1l-1-1.5-1 1.5c0 .1-.1.1-.1.1-.1 0-.1.1-.1.1h-1.2c-.3-.2-.3-.2-.3-.3z"/><path id="Path_1476" class="st0" d="M-799.5-7897.2c0-.1 0-.1.1-.1s.1-.1.1-.1h1c.1 0 .1 0 .1.1s.1.1.1.1v5c0 .1 0 .1-.1.2h-1c-.1 0-.1 0-.2-.1l-.1-5.1z"/><path id="Path_1477" class="st0" d="M-793.2-7897c.1 0 .1.1.1.1v.2l-.6.9-.1.1s-.1 0-.1-.1c-.1-.1-.2-.2-.4-.2s-.3-.1-.5 0c-.2 0-.4 0-.5.1-.2.1-.3.2-.4.3-.1.1-.2.3-.3.5-.1.4-.1.8 0 1.1.1.2.1.3.3.5.1.1.3.2.4.3.2.1.3.1.5.1s.3 0 .5-.1c.1 0 .3-.1.4-.2 0 0 .1 0 .1-.1.1 0 .1.1.1.1l.6.9v.1c0 .1-.1.1-.1.1-.2.2-.5.3-.7.4-.3.1-.5.1-.8.1-.2 0-.5 0-.7-.1s-.5-.2-.7-.3c-.4-.2-.8-.6-1-1-.1-.2-.2-.4-.3-.7-.1-.3-.1-.5-.1-.8 0-.2 0-.5.1-.7s.1-.5.3-.7c.2-.4.6-.8 1-1 .2-.1.4-.2.7-.3.2-.1.5-.1.7-.1.3 0 .6 0 .8.1s.5.2.7.4z"/><path id="Path_1478" class="st0" d="M-791.1-7897.2s0-.1.1-.1h.1c0-.1.1 0 .1 0h.9c.1 0 .1 0 .1.1 0 0 .1 0 .1.1l.1.2 1.9 4.9v.1c-.1.1-.1.1-.2.1h-1c-.1 0-.1 0-.1-.1-.1 0-.1-.1-.1-.1-.1-.1-.1-.3-.2-.4-.1-.1-.1-.3-.2-.4h-1.9c-.1.1-.1.3-.2.4-.1.1-.1.3-.2.4-.1.1-.1.2-.2.2h-1c-.1 0-.1 0-.1-.1-.1 0-.1-.1 0-.1l2-5.2zm.7 1.5c-.1.1-.1.3-.2.4-.1.2-.1.3-.2.4 0 .1-.1.3-.2.4-.1.1-.1.3-.2.4h1.1l-.3-1.6z"/><path id="Path_1479" class="st0" d="M-787.4-7897.2c0-.1 0-.1.1-.1s.1-.1.1-.1h1.3c.1 0 .1.1.1.1l.9 1.5.9 1.5v-2.9c0-.1.1-.1.1-.1.1 0 .1-.1.1-.1h1c.1 0 .1 0 .1.1l.1.1v5c0 .1 0 .1-.1.1s-.1.1-.1.1h-1.1c-.1 0-.1 0-.1-.1 0 0 0-.1-.1-.1l-.9-1.6-.9-1.6v3.1c0 .1 0 .1-.1.1 0 .1-.1.1-.1.1h-1c-.1 0-.1 0-.1-.1s-.1-.1-.1-.1l-.1-4.9z"/><path id="Path_1480" class="st0" d="M-780-7897.2c0-.1 0-.1.1-.1s.1-.1.1-.1h3.4c.1 0 .1 0 .1.1l.1.1v.9c0 .1 0 .1-.1.1l-.1.1h-2.2v1.1h1.6c.1 0 .1 0 .1.1.1 0 .1.1.1.1v.9c0 .1 0 .1-.1.1l-.1.1h-1.6v1.7c0 .1 0 .1-.1.2h-1.1c-.1 0-.1-.1-.1-.2l-.1-5.2z"/><path id="Path_1481" class="st0" d="M-775.8-7897.2c0-.1 0-.1.1-.1s.1-.1.1-.1h1.1c.1 0 .1 0 .1.1l.1.1v3.9h2c.1 0 .1 0 .1.1l.1.1v.9c0 .1 0 .1-.1.1s-.1.1-.1.1h-3.2c-.1 0-.1 0-.2-.1l-.1-5.1z"/><path id="Path_1482" class="st0" d="M-772.2-7894.7c0-.2 0-.5.1-.7s.1-.5.3-.7c.2-.4.6-.8 1-1 .2-.1.4-.2.7-.3.2-.1.5-.1.7-.1s.5 0 .7.1.5.1.7.3c.4.2.8.6 1 1 .1.2.2.4.3.7.1.2.1.5.1.7s0 .5-.1.7-.1.5-.3.7c-.1.2-.3.4-.4.6-.2.2-.3.3-.6.4-.2.1-.4.2-.7.3-.2.1-.5.1-.7.1s-.5 0-.7-.1-.5-.2-.7-.3c-.4-.2-.8-.6-1-1-.1-.2-.2-.4-.3-.7-.1-.2-.1-.5-.1-.7zm1.4 0c0 .2 0 .4.1.6s.2.3.3.5c.1.1.3.2.4.3.2.1.4.1.6.1.2 0 .4 0 .6-.1.2-.1.3-.2.4-.3.1-.1.2-.3.3-.5s.1-.4.1-.6 0-.4-.1-.6-.2-.3-.3-.5c-.1-.1-.3-.2-.4-.3-.2-.1-.4-.1-.6-.1-.2 0-.4 0-.6.1-.2.1-.3.2-.4.3-.1.1-.2.3-.3.5s-.1.4-.1.6z"/><path id="Path_1483" class="st0" d="M-765.1-7897.2c0-.1 0-.1 0 0 0 0 0-.1.1-.1h.1c0-.1.1 0 .1 0h.9c.1 0 .1 0 .1.1 0 0 .1 0 .1.1l.1.2 1.9 4.9v.1c-.1.1-.1.1-.2.1h-1c-.1 0-.1 0-.1-.1-.1 0-.1-.1-.1-.1-.1-.1-.1-.3-.2-.4-.1-.1-.1-.3-.2-.4h-1.9c-.1.1-.1.3-.2.4-.1.1-.1.3-.2.4-.1.1-.1.2-.2.2h-1c-.1 0-.1 0-.1-.1-.1 0-.1-.1 0-.1l2-5.2zm.7 1.5c-.1.1-.1.3-.2.4-.1.2-.1.3-.2.4 0 .1-.1.3-.2.4-.1.1-.1.3-.2.4h1.1l-.3-1.6z"/><path id="Path_1484" class="st0" d="M-762.7-7897.2c0-.1 0-.1.1-.1l.1-.1h3.9c.1 0 .1 0 .1.1l.1.1v.9c0 .1 0 .1-.1.1l-.1.1h-1.2v3.9c0 .1 0 .1-.1.1l-.1.1h-1c-.1 0-.1 0-.1-.1l-.1-.1v-3.9h-1.2c-.1 0-.1 0-.1-.1-.1-.1-.1-.1-.1-.2l-.1-.8z"/><path id="Path_1485" class="st0" d="M-757.9-7897.2c0-.1 0-.1.1-.1s.1-.1.1-.1h1c.1 0 .1 0 .1.1s.1.1.1.1v5c0 .1 0 .1-.1.2h-1c-.1 0-.1 0-.2-.1l-.1-5.1z"/><path id="Path_1486" class="st0" d="M-755.7-7897.2c0-.1 0-.1.1-.1s.1-.1.1-.1h1.3c.1 0 .1.1.1.1l.9 1.5.9 1.5v-2.9c0-.1.1-.1.1-.1.1 0 .1-.1.1-.1h1c.1 0 .1 0 .1.1l.1.1v5c0 .1 0 .1-.1.1s-.1.1-.1.1h-1.1c-.1 0-.1 0-.1-.1 0 0 0-.1-.1-.1l-.9-1.6-.9-1.6v3.1c0 .1 0 .1-.1.1 0 .1-.1.1-.1.1h-1c-.1 0-.1 0-.1-.1s-.1-.1-.1-.1l-.1-4.9z"/><path id="Path_1487" class="st0" d="M-746.8-7895.9c-.1-.1-.3-.2-.4-.2-.2 0-.3-.1-.5-.1s-.4 0-.6.1c-.2.1-.3.2-.4.3-.1.1-.2.3-.3.5-.1.4-.1.8 0 1.1.1.2.1.3.3.5.1.1.3.2.4.3.2.1.4.1.6.1h.3c.1 0 .2-.1.3-.1v-1c0-.1 0-.1.1-.1l.1-.1h1c.1 0 .1 0 .1.1s.1.1.1.1v1.8c0 .1-.1.1-.1.2-.1.1-.3.2-.4.2-.2.1-.3.1-.4.2s-.3.1-.5.1-.3.1-.5.1-.5 0-.7-.1-.5-.2-.7-.3c-.4-.2-.8-.6-1-1-.1-.2-.2-.4-.3-.7-.1-.2-.1-.5-.1-.7s0-.5.1-.7.1-.5.3-.7c.2-.4.6-.8 1-1 .2-.1.4-.2.7-.3.2-.1.5-.1.7-.1.3 0 .6 0 .8.1.3.1.5.2.7.4.1 0 .1.1.1.1v.2l-.6.8-.1.1-.1-.2z"/><path id="Path_1488" class="st0" d="M-743.2-7897.2c0-.1 0-.1.1-.1s.1-.1.1-.1h3.4c.1 0 .1 0 .1.1l.1.1v.9c0 .1 0 .1-.1.1l-.1.1h-2.2v1.1h1.6c.1 0 .1 0 .1.1.1 0 .1.1.1.1v.9c0 .1 0 .1-.1.1l-.1.1h-1.6v1.7c0 .1 0 .1-.1.2h-1.1c-.1 0-.1-.1-.1-.2l-.1-5.2z"/><path id="Path_1489" class="st0" d="M-738.9-7897.2c0-.1 0-.1.1-.1s.1-.1.1-.1h1c.1 0 .1 0 .1.1s.1.1.1.1v5c0 .1 0 .1-.1.2h-1c-.1 0-.1 0-.2-.1l-.1-5.1z"/><path id="Path_1490" class="st0" d="M-736.7-7897.2c0-.1 0-.1.1-.1l.1-.1h3.6c.1 0 .1 0 .1.1l.1.1v.9c0 .1 0 .1-.1.1s-.1.1-.1.1h-2.3v.9h1.8c.1 0 .1 0 .1.1.1 0 .1.1.1.1v.8c0 .1 0 .1-.1.1s-.1.1-.1.1h-1.8v.9h2.4c.1 0 .1 0 .2.1v1c0 .1-.1.1-.2.1h-3.6c-.1 0-.1 0-.1-.1-.1 0-.1-.1-.1-.1l-.1-5.1z"/><path id="Path_1491" class="st0" d="M-731.5-7893.8l.2.2c.1.1.2.1.2.2.1.1.2.2.4.2.1 0 .2.1.4.1.1 0 .2 0 .3-.1s.2-.1.2-.1c.1 0 .1-.1.1-.2s.1-.1.1-.2 0-.2-.1-.2l-.2-.2c-.1-.1-.2-.1-.3-.1s-.2 0-.2-.1c-.3-.1-.5-.2-.8-.3-.2-.1-.4-.2-.5-.4-.1-.1-.2-.3-.3-.5s-.1-.4-.1-.6.1-.4.2-.6c.1-.2.2-.3.4-.5l.6-.3c.3-.1.5-.1.8-.1.2 0 .4 0 .6.1.2 0 .4.1.6.3.1 0 .1.1.2.2s.2.1.2.2l.2.2s0 .1.1.1v.1c0 .1-.1.1-.1.1l-.6.6s-.1 0-.1.1c-.1 0-.1 0-.1-.1-.1 0-.1-.1-.1-.1l-.1-.1c-.1-.1-.1-.1-.2-.1-.1-.1-.1-.1-.2-.1s-.2 0-.2-.1c-.1 0-.2-.1-.2-.1h-.2c-.1 0-.2.1-.2.1l-.1.1c-.1.1-.1.2 0 .3l.2.2c.1.1.2.1.3.1s.2.1.4.1c.3.1.5.2.7.3l.6.3c.2.1.3.3.4.5.1.2.2.4.2.6 0 .3 0 .5-.2.7-.1.2-.3.4-.5.6s-.4.3-.7.4-.5.1-.8.1-.6-.1-.8-.2c-.3-.1-.5-.2-.7-.4-.1-.1-.2-.2-.3-.2l-.2-.2c-.1-.1-.1-.1-.1-.2s.1-.1.1-.2l.6-.6s.1 0 .1-.1h.1c-.4.2-.4.2-.3.2z"/><path id="Path_1492" class="st0" d="M-728.2-7897.2c0-.1 0-.1.1-.1l.1-.1h3.9c.1 0 .1 0 .1.1l.1.1v.9c0 .1 0 .1-.1.1l-.1.1h-1.2v3.9c0 .1 0 .1-.1.1l-.1.1h-1c-.1 0-.1 0-.1-.1l-.1-.1v-3.9h-1.2c-.1 0-.1 0-.1-.1-.1-.1-.1-.1-.1-.2l-.1-.8z"/><path id="Path_1493" class="st0" d="M-722.9-7897.2s0-.1.1-.1h.1c0-.1.1 0 .1 0h.9c.1 0 .1 0 .1.1 0 0 .1 0 .1.1l.1.2 1.9 4.9v.1c-.1.1-.1.1-.2.1h-1c-.1 0-.1 0-.1-.1-.1 0-.1-.1-.1-.1-.1-.1-.1-.3-.2-.4-.1-.1-.1-.3-.2-.4h-1.9c-.1.1-.1.3-.2.4-.1.1-.1.3-.2.4-.1.1-.1.2-.2.2h-1c-.1 0-.1 0-.1-.1-.1 0-.1-.1 0-.1l2-5.2zm.7 1.5c-.1.1-.1.3-.2.4-.1.2-.1.3-.2.4 0 .1-.1.3-.2.4-.1.1-.1.3-.2.4h1.1l-.3-1.6z"/><path id="Path_1494" class="st0" d="M-713.3-7897c.1 0 .1.1.1.1v.2l-.6.9-.1.1s-.1 0-.1-.1c-.1-.1-.2-.2-.4-.2s-.3-.1-.5-.1-.4 0-.5.1c-.2.1-.3.2-.4.3-.1.1-.2.3-.3.5-.1.4-.1.8 0 1.1.1.2.1.3.3.5.1.1.3.2.4.3.2.1.3.1.5.1s.3 0 .5-.1c.1 0 .3-.1.4-.2 0 0 .1 0 .1-.1.1 0 .1.1.1.1l.6.9v.1c0 .1-.1.1-.1.1-.2.2-.5.3-.7.4-.3.1-.5.1-.8.1-.2 0-.5 0-.7-.1s-.5-.2-.7-.3c-.4-.2-.8-.6-1-1-.1-.2-.2-.4-.3-.7-.1-.2-.1-.5-.1-.7s0-.5.1-.7.1-.5.3-.7c.2-.4.6-.8 1-1 .2-.1.4-.2.7-.3.2-.1.5-.1.7-.1.3 0 .6 0 .8.1.3.1.5.2.7.4z"/><path id="Path_1495" class="st0" d="M-711.1-7897.2s0-.1.1-.1h.1c0-.1.1 0 .1 0h.9c.1 0 .1 0 .1.1 0 0 .1 0 .1.1l.1.2 1.9 4.9v.1c-.1.1-.1.1-.2.1h-1c-.1 0-.1 0-.1-.1-.1 0-.1-.1-.1-.1-.1-.1-.1-.3-.2-.4-.1-.1-.1-.3-.2-.4h-1.9c-.1.1-.1.3-.2.4-.1.1-.1.3-.2.4-.1.1-.1.2-.2.2h-1c-.1 0-.1 0-.1-.1-.1 0-.1-.1 0-.1l2-5.2zm.6 1.5c-.1.1-.1.3-.2.4-.1.2-.1.3-.2.4 0 .1-.1.3-.2.4-.1.1-.1.3-.2.4h1.1l-.3-1.6z"/><path id="Path_1496" class="st0" d="M-707.5-7897.2c0-.1 0-.1.1-.1s.1-.1.1-.1h1.3c.1 0 .1.1.1.1l.9 1.5.9 1.5v-2.9c0-.1.1-.1.1-.1.1 0 .1-.1.1-.1h1c.1 0 .1 0 .1.1l.1.1v5c0 .1 0 .1-.1.1s-.1.1-.1.1h-1.1c-.1 0-.1 0-.1-.1 0 0 0-.1-.1-.1l-.9-1.6-.9-1.6v3.1c0 .1 0 .1-.1.1 0 .1-.1.1-.1.1h-1c-.1 0-.1 0-.1-.1s-.1-.1-.1-.1l-.1-4.9z"/><path id="Path_1497" class="st0" d="M-697.9-7897c.1 0 .1.1.1.1v.2l-.6.9-.1.1s-.1 0-.1-.1c-.1-.1-.2-.2-.4-.2s-.3-.1-.5-.1-.4 0-.5.1c-.2.1-.3.2-.4.3-.1.1-.2.3-.3.5-.1.4-.1.8 0 1.1.1.2.1.3.3.5.1.1.3.2.4.3.2.1.3.1.5.1s.3 0 .5-.1c.1 0 .3-.1.4-.2 0 0 .1 0 .1-.1.1 0 .1.1.1.1l.6.9v.1c0 .1-.1.1-.1.1-.2.2-.5.3-.7.4-.3.1-.5.1-.8.1-.2 0-.5 0-.7-.1s-.5-.2-.7-.3c-.4-.2-.8-.6-1-1-.1-.2-.2-.4-.3-.7-.1-.2-.1-.5-.1-.7s0-.5.1-.7.1-.5.3-.7c.2-.4.6-.8 1-1 .2-.1.4-.2.7-.3.2-.1.5-.1.7-.1.3 0 .6 0 .8.1.3.1.5.2.7.4z"/><path id="Path_1498" class="st0" d="M-695.9-7894.2c0 .2 0 .3.1.5.1.1.1.2.2.3.1.1.2.2.3.2s.2.1.3.1.2 0 .4-.1c.1 0 .2-.1.3-.2s.2-.2.2-.3c0-.1.1-.3.1-.4v-3.1c0-.1 0-.1.1-.1l.1-.1h1c.1 0 .1 0 .1.1s.1.1.1.1v3c0 .4 0 .7-.2 1-.1.3-.3.5-.5.7s-.5.3-.7.4c-.3.1-.6.1-.9.1-.3 0-.6 0-.9-.1-.3-.1-.5-.2-.7-.4-.2-.2-.4-.4-.5-.7-.2-.3-.2-.7-.2-1v-3c0-.1 0-.1.1-.1s.1-.1.1-.1h1.1c.1 0 .1 0 .1.1s.1.1.1.1v3.1h-.2v-.1zm.7-4.7s0-.1.1-.1.1-.1.1-.1h1s.1 0 .1.1v.2l-.4.8-.1.1-.1.1h-.8c-.1 0-.1 0-.1-.1v-.3l.2-.7z"/><path id="Path_1499" class="st0" d="M-692-7897.2c0-.1 0-.1.1-.1s.1-.1.1-.1h1.3c.1 0 .1.1.1.1l.9 1.5.9 1.5v-2.9c0-.1.1-.1.1-.1.1 0 .1-.1.1-.1h1c.1 0 .1 0 .1.1l.1.1v5c0 .1 0 .1-.1.1s-.1.1-.1.1h-1.1c-.1 0-.1 0-.1-.1 0 0 0-.1-.1-.1l-.9-1.6-.9-1.6v3.1c0 .1 0 .1-.1.1 0 .1-.1.1-.1.1h-1c-.1 0-.1 0-.1-.1s-.1-.1-.1-.1l-.1-4.9z"/></g></g></svg>