<svg id="Layer_1" xmlns="http://www.w3.org/2000/svg" viewBox="0 0 134 31"><style>.st0{fill:#fff}</style><g id="Group_481" transform="translate(498 7905)"><g id="Group_480"><g id="Group_479"><g id="Group_476" transform="translate(29.154)"><path id="Path_1444" class="st0" d="M-430.7-7898.2l-.1 3.6 2.9.1h3.1l3.2-.4h.1l2.3.3-.1-3.5v-3.5l-2.2.1-3.2.2h-.1l-3.2-.2-2.8-.1.1 3.4z"/><path id="Path_1445" class="st0" d="M-469-7886c-.9 1.2-2.2 2.1-3.7 2.5l-2.5-.3-1.7-.8c-3.1-2.3-2.1-6.1-1.6-7.6.5-1.1 1.3-1.9 2.4-2.5l3.4-.3c1.4.3 2.6 1.3 3.1 2.6 1-.2 3-.5 3.3-.5.3 0 3 .3 3.7.3-.2-1.2-.6-2.4-1.1-3.6-.5-.6-2.5-4.2-3.2-4.6l-3.4-1.5-3.8-.3-4.2.6-3.1 1.4c-.9.7-1.6 1.6-2.1 2.6-.8 1.4-1.5 2.8-2 4.3l-.6 4.8s-.3 3 2.4 7.1c2.6 4.1 5.5 4.6 5.5 4.6 1.7.4 3.4.6 5.1.6 2.3-.4 4.6-1.2 6.6-2.5l2.3-2.7 1.7-4-3 .3-3.5-.5z"/><path id="Path_1446" class="st0" d="M-488.1-7885.3l.3-4.4-.3-4.1-.1-.1.2-4.3.1-3.5-1.7-.3-1.7.3-1.9-.1-1.7-.1-.5 3.8-.1 4.3.6 4.3v.1l-.6 4.2.6 4.3v.1l-.2 3.9 3.6.2 3.5-.3.2-3.7-.3-4.6z"/><path id="Path_1447" class="st0" d="M-431.8-7898l.3-3.9-3.6.4h-.1l-3.5-.3-.2 3.7v3.9l.6 4.5v.1l-.1 4.2v4.4l-.5 3.9 3.6.1 3.2-.6.3-3.5-.2-4.3v-.1l.3-4.1-.5-4.3v-.1l.4-4z"/><path id="Path_1448" class="st0" d="M-419.3-7880.3l.1-3.2-2.1-.1h-3.3l-3.4.1h-2.8l.1 3.3-.1 3.3 2.8.1h3.3l3.3-.3h.1l2.3.3-.3-3.5z"/><path id="Path_1449" class="st0" d="M-423.3-7892.7l-3.7.2h-.1l-3.7-.2-.1 3.4.1 3.4 3.7-.1 3.6-.1-.1-3.3.3-3.3z"/><path id="Path_1450" class="st0" d="M-441.1-7889.4l-.1-4.3-.5-4.2v-.1l.3-3.7-3.4-.4-3.2.6-.3 4.1.4 4.3.1.5h-.5l-5.7.4-.5.1v-.5l.1-4.6.5-4.6-3.8.4h-.1l-3.4.1-.1 3.6.3 4.2v.1l-.3 4.2.4 4.2v.1l-.5 4.2-.2 3.9 3.7-.5h3.4l.5-3.2-.1-2.4v-2.6l2.5-.1 3-.1h.5l-.1.5-.3 4.7.1 3.5 3.7-.4h.1l3.4.2.3-3.6-.4-4.2v-.1l.2-4.3z"/><path id="Path_1451" class="st0" d="M-403-7897.2l-.4 2.9 1.9 3.7 1.9 2.6 1.8 3.7 2.1 3v-2.9l-.3-2.3v-.1l.2-2.8-.1-2.7-.1-1.2.2-2.2-.2-2.7.3-3.8-3.7.1-3.7-.1.2 2.4v1l-.1 1.4z"/><path id="Path_1452" class="st0" d="M-395.7-7879.4l-2.2-3.5v-.1l-.1-.1-1.7-3.2-1.9-3v-.1l-1.8-3.2-1.9-2.6-1-2-1.2-1.4-.6-1-.9-2.2-3.9-.1-3.8-.1v2.2l2.3 3.6 2.1 3.1 1.8 3.1.1.1 2.5 3.3 1.4 3.3 2.1 2.9 1.2 3.3 3.8.3 3.7-.3v-2.3z"/><path id="Path_1453" class="st0" d="M-409.8-7884l.1-3.3-1.9-2.7-2.1-3-1.4-2.8-1.6-1.9v3.7l.4 4.3v.1l-.1 3.9.2 3.9-.1 2.8-.3 2.3 3.7-.3 3.5-.1v-2.1l-.1-1.9-.3-2.9z"/></g><g id="Group_478" transform="translate(0 .645)"><g id="Group_477" transform="translate(0 12.578)"><path id="Path_1454" class="st0" d="M-488-7902.4l.1 2.8h-2.5v2.9l-2.5.2.1 2.8-2.5.1-.2 3h7.5c.5-1 1.6-3.9 1.9-4.4.9-1.4 1.7-2.8 2.4-4.2l-.1-3.1-4.2-.1"/><path id="Path_1455" class="st0" d="M-475.1-7890.6h7.5l-.2-3.2h-2.6l.1-2.8-2.5-.2v-2.9l-2.5-.1v-2.8l-4.1.1-.1 3.2s2.7 5.9 2.9 6.1c.7.9 1.2 1.7 1.5 2.6z"/></g><path id="Path_1456" class="st0" d="M-495.4-7902.2c1.7-.3 5.1-.3 5.1-.3l3 .3c.4.9.9 1.7 1.5 2.5.6.6 3.2 3.1 3.7 4.1 0 0-2 0-2.8-.1s-5.2.2-5.2.2c-.1-.8-2.5-3.2-2.9-3.6-.3-.6-2.1-2.1-2.4-3.1z"/><path id="Path_1457" class="st0" d="M-480.9-7895.6s2.2-3.2 2.5-3.5c.2-.3 2.9-3.1 2.9-3.1l5.4-.3 2.8.3c-.8 1.1-2.4 2.2-2.8 2.8-.5.6-2.1 3-2.9 3.9-.7-.4-3.4-.1-3.7.1-1.5-.1-2.9-.1-4.2-.2z"/><path id="Path_1458" class="st0" d="M-489.4-7894.8l1.5 1.9s6.1-.3 6.4-.3c2 0 4 .1 6 .3l1.5-1.9c-1.4-.1-5.4.1-5.4.1s-2.6-.1-3.2-.2c-2.2-.1-4.5-.1-6.8.1z"/><path id="Path_1459" class="st0" d="M-488-7892.1l-.8 1.5 14.6.1-1.4-1.9-4.5.3h-7.9z"/><path id="Path_1460" class="st0" d="M-486.5-7878.2l.4-1.4 6.5.3 2.6.1.7 1-3.7-.1-6.5.1z"/><path id="Path_1461" class="st0" d="M-484.9-7881.3l.5-.9 4.6.1 1.1-.3.7 1.1-5.2-.1-1.7.1z"/><path id="Path_1462" class="st0" d="M-483.8-7884.5l.5-.8h3.4l.6.8-1.1-.1-1.4.1h-2z"/></g></g></g></g></svg>