<?xml version="1.0" encoding="utf-8"?>
<!-- Generator: Adobe Illustrator 23.0.0, SVG Export Plug-In . SVG Version: 6.00 Build 0)  -->
<svg version="1.1" id="Layer_1" xmlns="http://www.w3.org/2000/svg" xmlns:xlink="http://www.w3.org/1999/xlink" x="0px" y="0px"
	 viewBox="0 0 114.5 48" style="enable-background:new 0 0 114.5 48;" xml:space="preserve">
<style type="text/css">
	.st0{fill:#FFFFFF;}
</style>
<g>
	<g>
		<path class="st0" d="M112,9.6c-0.5-0.9-1.4-1.5-2.3-1.5c0,0-0.1,0-0.1,0c-0.3,0-0.5,0.1-0.7,0.1c-0.1,0-0.2,0-0.2,0.1
			c-0.2,0-0.4,0.1-0.5,0.1c-0.5,0.1-1.2,0.1-2.3,0.1l0,0l0,0c-0.1,0-0.1,0-0.2,0c0,0,0,0,0,0c-0.2,0-0.4,0-0.6,0l-0.1,0
			c-0.2,0-0.3,0-0.5,0h0c-2.7,0-4.1,1.1-4.5,1.4c-0.2,0.2-0.9,0.7-1.5,1.5c-0.6,0.9-1.1,1.8-1.3,2.8c-0.7,0.1-1.4,0.3-2.1,0.5
			c-1.5,0.4-4,1.4-5.8,2.3v-5c0-1.8-1.4-3.2-3.2-3.2c-0.2,0-0.3,0-0.5,0.1l-5.3,1.1c-1.6,0.3-2.7,1.7-2.7,3.3v5.3h-1.3V12
			c0-1.8-1.4-3.2-3.2-3.2c-0.2,0-0.3,0-0.5,0.1l-5.3,1.1l-0.1,0l0,0c-1.5,0.4-2.6,1.8-2.6,3.3V16c-0.7-0.2-1.7-0.3-2.8-0.3
			c-0.8,0-1.7,0.1-2.5,0.2l-0.3-3.5c0.5-0.5,0.8-1.1,0.9-1.8l0.2-1.3c0.1-0.5,0-1-0.2-1.5c0.1-0.1,0.1-0.2,0.2-0.4
			c0.4-1,0.1-2.2-0.8-2.9l-3.7-3.1c-0.6-0.6-1.5-0.9-2.3-0.9c-0.8,0-1.7,0.3-2.3,0.9l-3.7,3.1c-0.8,0.7-1.2,1.9-0.8,2.9
			c0.1,0.2,0.2,0.4,0.3,0.6c-0.2,0.4-0.2,0.9-0.1,1.3l0.2,1.3c0.1,0.7,0.4,1.3,0.9,1.8l-0.3,3.7c-1.1-1-2.5-1.7-3.9-1.9
			c-0.7-0.1-1.4-0.2-2.1-0.2c-6,0-11.2,3.8-13.5,9.8c-0.1,0.2-0.1,0.4-0.2,0.5l0,0l-0.4-0.7c0-0.4,0-0.9-0.1-1.5l1.4-2.1l4.1-6
			c0.7-1,0.8-2.4,0.2-3.5c-0.6-1.1-1.7-1.8-3-1.8h-6.6c-1.1,0-2.2,0.6-2.8,1.5L19,12.9l-1.7-2.6c-0.6-0.9-1.7-1.5-2.8-1.5H7.8
			c-1.3,0-2.4,0.7-3,1.8C4.2,11.7,4.3,13,5,14l5,7.4l1.6,2.5c0,0-0.1,0.1-0.1,0.1l0,0c0,0,0,0,0,0.1L5,33.7c-0.7,1-0.8,2.4-0.2,3.4
			c0.6,1.1,1.7,1.8,3,1.8h6.6c1.1,0,2.2-0.6,2.8-1.5l1.7-2.6l1.7,2.6c0.6,0.9,1.7,1.5,2.8,1.5h6.6c1,0,2-0.5,2.6-1.2
			c1.8,0.8,3.9,1.3,6.2,1.3c3.2,0,6-0.8,7.9-1.6c0.6,0.7,1.5,1.1,2.4,1.1h4h0.3h4c0.9,0,1.8-0.4,2.4-1c0.6-0.7,0.9-1.6,0.8-2.5
			l-0.1-1.1c0.3,0,0.6,0,0.9,0c1,0,2.1-0.2,3-0.4v2.3c0,1.8,1.4,3.2,3.2,3.2h5.3c1.8,0,3.2-1.4,3.2-3.2v-6.6v-0.6h1.3v2.2v4.9
			c0,1.8,1.4,3.2,3.2,3.2h5.2c0.9,0,1.8-0.4,2.4-1.1c1.4,0.9,3.1,1.3,5.1,1.3c1.7,0,3.6-0.3,5.2-1c0.5,0.5,1.1,0.7,1.8,0.7l0,0h5.9
			c0.9,0,1.8-0.5,2.2-1.3c0.4-0.7,0.5-1.7,0.1-2.4c0-0.1,0-0.1,0-0.2c0-0.1,0-0.1,0-0.2v-6.4v-3.9v-1.5c0,0,0-0.1,0-0.1l0,0l0,0
			c0-0.5,0-1.4-0.3-2.4c1-0.7,1.9-1.7,2.6-2.9c1-1.7,1.6-3.7,1.6-5.4C112.6,11,112.3,10.1,112,9.6z M111.1,14.6
			c-0.1,0.2-0.1,0.4-0.2,0.6c-0.1,0.4-0.3,0.8-0.5,1.2c-0.1,0.2-0.2,0.4-0.3,0.6c-0.2,0.3-0.4,0.7-0.6,0.9c-0.2,0.3-0.5,0.6-0.7,0.8
			c-0.1,0.1-0.2,0.2-0.4,0.4c-0.3,0.2-0.5,0.4-0.8,0.6c-0.1,0.1-0.3,0.2-0.4,0.3c0.5,1.2,0.5,2.3,0.5,2.9c0,0.1,0,0.1,0,0.1v1.5v3.9
			v6.4c0,0.1,0,0.1,0,0.2c0,0.1,0,0.2,0,0.3c0,0.1,0,0.1,0,0.2c0,0,0,0.1,0,0.1c0,0.1,0.1,0.1,0.1,0.2c0,0.1,0,0.1,0.1,0.2
			c0.1,0.3,0.1,0.5,0,0.8c0,0.1,0,0.1-0.1,0.2c0,0.1-0.1,0.1-0.1,0.2c-0.1,0.1-0.1,0.2-0.2,0.3c-0.2,0.2-0.4,0.3-0.7,0.4
			c-0.1,0-0.3,0.1-0.4,0.1l0,0h-5.9l0,0c0,0,0,0,0,0c-0.1,0-0.2,0-0.3,0c-0.1,0-0.3-0.1-0.4-0.2c-0.1-0.1-0.3-0.2-0.4-0.3
			c0,0-0.1-0.1-0.1-0.1c-0.1-0.1-0.1-0.2-0.2-0.3c-1.7,0.8-3.7,1.2-5.5,1.2c-2.3,0-4.2-0.7-5.4-1.9c0,0.1-0.1,0.2-0.1,0.3
			c-0.1,0.2-0.2,0.4-0.4,0.6c-0.3,0.3-0.7,0.6-1.2,0.7c-0.1,0-0.2,0-0.4,0l0,0h-5.2c-1.2,0-2.1-0.9-2.1-2.1v-4.9v-3.3h-3.5v1.7v6.6
			c0,0.3,0,0.5-0.1,0.7c-0.1,0.2-0.2,0.4-0.4,0.6c-0.1,0.1-0.2,0.2-0.3,0.3c-0.1,0-0.1,0.1-0.2,0.1c-0.1,0.1-0.2,0.1-0.4,0.2
			c-0.1,0-0.1,0-0.2,0.1c-0.1,0-0.3,0.1-0.4,0.1c-0.1,0-0.1,0-0.2,0h-5.3h0c-0.1,0-0.2,0-0.3,0c-0.1,0-0.2,0-0.3-0.1
			c-0.2-0.1-0.4-0.2-0.5-0.3c-0.6-0.4-0.9-1-0.9-1.7v-3.9c-0.6,0.3-1.3,0.6-2,0.7c-0.3,0.1-0.7,0.1-1.1,0.2c-0.4,0-0.7,0.1-1.1,0.1
			c-0.2,0-0.5,0-0.7,0c-0.2,0-0.5,0-0.7-0.1l-0.6-0.1l0.2,2.5c0,0.2,0,0.4,0,0.7c0,0.2-0.1,0.4-0.2,0.6c-0.1,0.1-0.2,0.2-0.3,0.4
			c-0.1,0.1-0.2,0.2-0.3,0.3c-0.1,0.1-0.2,0.2-0.4,0.2c-0.3,0.1-0.6,0.2-0.9,0.2h-4h-0.3l0,0h-4c-0.9,0-1.7-0.5-2-1.4
			c-1.3,0.6-3.1,1.2-5.2,1.6c-0.4,0.1-0.8,0.1-1.2,0.2c-0.6,0.1-1.3,0.1-1.9,0.1h0c-0.3,0-0.6,0-1,0c-0.9-0.1-1.8-0.2-2.7-0.4
			c-0.6-0.1-1.1-0.3-1.6-0.5c-0.5-0.2-1-0.4-1.4-0.7c0,0.1-0.1,0.3-0.2,0.4c-0.2,0.4-0.5,0.7-0.8,0.9c-0.2,0.1-0.4,0.2-0.6,0.2
			c-0.2,0.1-0.4,0.1-0.6,0.1h-6.6c-0.8,0-1.5-0.4-1.9-1l-2.7-4l-2.7,4c-0.2,0.2-0.4,0.4-0.6,0.6c-0.1,0.1-0.2,0.1-0.2,0.1
			c-0.3,0.2-0.7,0.3-1.1,0.3H7.8c-0.8,0-1.6-0.5-2-1.2c-0.4-0.7-0.3-1.6,0.1-2.3l6.5-9.7c0,0,0,0,0,0c0,0,0,0,0.1-0.1
			c0-0.1,0.1-0.2,0.2-0.3c0.1-0.1,0.1-0.2,0.2-0.3c0-0.1,0.1-0.1,0.1-0.2l0,0l-2.1-3.1l-5-7.4c-0.5-0.7-0.5-1.6-0.1-2.3
			c0.1-0.3,0.3-0.5,0.6-0.7c0.4-0.3,0.9-0.5,1.4-0.5h6.6c0.7,0,1.3,0.3,1.7,0.8c0.1,0.1,0.1,0.1,0.2,0.2l2.7,4l2.7-4
			c0.4-0.6,1.1-1,1.9-1h6.6c0.2,0,0.4,0,0.6,0.1c0.2,0.1,0.4,0.1,0.6,0.2c0.3,0.2,0.6,0.5,0.8,0.9c0.4,0.7,0.3,1.6-0.1,2.3l-4.1,6
			L26.3,22c0.1,0.4,0.2,0.9,0.2,1.3c0,0.1,0,0.3,0,0.4c0,0,0,0.1,0,0.1c0,0.1,0,0.2,0,0.2l1.9,3.6c0.1-0.8,0.3-1.6,0.5-2.4
			c0-0.1,0.1-0.2,0.1-0.3l0-0.1l0,0c0-0.1,0.1-0.3,0.2-0.5c0.1-0.3,0.3-0.7,0.4-1c0,0,0-0.1,0.1-0.1c0.1-0.3,0.3-0.6,0.4-0.8
			c0-0.1,0.1-0.1,0.1-0.2c0.1-0.1,0.1-0.2,0.2-0.3c0,0,0,0,0,0c0.2-0.3,0.4-0.6,0.6-0.9c1.4-2,3.2-3.5,5.3-4.5
			c0.2-0.1,0.3-0.1,0.5-0.2c0,0,0,0,0,0c0.3-0.1,0.6-0.2,0.9-0.3c0,0,0,0,0,0c0.2-0.1,0.3-0.1,0.5-0.1c0,0,0,0,0,0
			c0.2,0,0.3-0.1,0.5-0.1c0,0,0,0,0.1,0c0.1,0,0.3-0.1,0.4-0.1c0,0,0.1,0,0.1,0c0.1,0,0.3,0,0.4-0.1c0,0,0.1,0,0.1,0
			c0.1,0,0.3,0,0.4-0.1c0,0,0.1,0,0.1,0c0.1,0,0.2,0,0.4,0c0.1,0,0.1,0,0.2,0c0.1,0,0.2,0,0.3,0c0.1,0,0.1,0,0.2,0
			c0.1,0,0.2,0,0.3,0c0,0,0,0,0,0c0.6,0,1.3,0,1.9,0.1c0.1,0,0.3,0,0.4,0.1c0.3,0.1,0.5,0.1,0.8,0.2c0.1,0,0.2,0.1,0.4,0.1
			c0.4,0.2,0.7,0.3,1,0.6c0.2,0.1,0.4,0.3,0.6,0.5c0.3,0.3,0.6,0.5,0.9,0.9c0.4,0.4,0.7,0.9,0.9,1.4l0.1-1c0,0,0,0,0,0l0.5-6.1
			c-0.1-0.1-0.2-0.2-0.4-0.3s-0.2-0.2-0.3-0.3c-0.1-0.1-0.2-0.3-0.2-0.4c-0.1-0.1-0.1-0.3-0.1-0.4l-0.2-1.3c0-0.1,0-0.2,0-0.3
			c0-0.2,0.1-0.4,0.1-0.5c0-0.1,0.1-0.2,0.2-0.2c0.1-0.1,0.1-0.1,0.2-0.2c-0.2-0.1-0.4-0.3-0.6-0.6c0-0.1-0.1-0.2-0.1-0.3
			c0-0.1,0-0.2-0.1-0.2c0-0.2,0-0.5,0-0.7c0-0.2,0.1-0.3,0.2-0.4c0.1-0.1,0.2-0.3,0.3-0.4l3.7-3.1c0.5-0.4,1-0.6,1.6-0.6
			c0.4,0,0.9,0.1,1.2,0.3c0.1,0.1,0.2,0.2,0.4,0.3l3.7,3.1c0.4,0.3,0.6,0.8,0.5,1.2c0,0.2,0,0.3-0.1,0.5c0,0.1-0.1,0.2-0.1,0.2
			c0,0.1-0.1,0.1-0.1,0.2c-0.1,0.1-0.2,0.2-0.3,0.3c0.1,0.1,0.2,0.2,0.3,0.3c0,0.1,0.1,0.1,0.1,0.2c0.1,0.1,0.1,0.2,0.2,0.4
			c0,0.1,0,0.1,0,0.2c0,0.1,0,0.2,0,0.3L59,10.5c0,0.1,0,0.2-0.1,0.2c-0.1,0.2-0.2,0.4-0.3,0.6c-0.1,0.2-0.3,0.3-0.5,0.5
			c-0.1,0-0.1,0.1-0.2,0.1l0.2,2.7l0.2,2.7c0.6-0.2,1.1-0.3,1.7-0.4c0.3,0,0.6-0.1,0.9-0.1c0.3,0,0.6,0,0.9,0l0,0
			c0.7,0,1.4,0.1,1.9,0.2c0.5,0.1,1,0.2,1.2,0.3c0.2,0.1,0.5,0.2,0.8,0.3v-4.3c0-1,0.8-2,1.8-2.2c0,0,0,0,0,0l5.3-1.1
			c0.1,0,0.2,0,0.3,0c0.1,0,0.1,0,0.2,0c0.1,0,0.3,0,0.4,0.1c0.1,0,0.1,0,0.2,0.1c0.1,0.1,0.2,0.1,0.4,0.2c0.1,0,0.1,0.1,0.2,0.1
			c0.1,0.1,0.2,0.2,0.3,0.3c0.1,0.2,0.3,0.4,0.4,0.6c0.1,0.2,0.1,0.5,0.1,0.7v7.7h3.5v-6.4c0-1.1,0.8-2,1.8-2.3l5.2-1.1
			c0.1,0,0.2,0,0.3,0l0,0c0.4,0,0.7,0.1,1,0.3c0.2,0.1,0.4,0.3,0.6,0.5c0.3,0.4,0.5,0.8,0.5,1.3v7.8c0-0.2,0.1-0.4,0.2-0.5
			c0.1-0.3,0.3-0.5,0.5-0.7c0.2-0.2,0.4-0.4,0.7-0.5c1.7-0.9,4.3-1.9,5.8-2.3c0.7-0.2,1.4-0.3,2.1-0.4c0.2,0,0.4-0.1,0.7-0.1
			c0.1-0.8,0.4-1.7,1-2.7c0.1-0.1,0.2-0.3,0.3-0.4c0.5-0.7,1.1-1.1,1.2-1.3c1-0.8,2-1,2.8-1.1c0.2,0,0.3,0,0.4,0c0.1,0,0.1,0,0.2,0
			c0.2,0,0.3,0,0.4,0l0,0h0h0c0.1,0,0.3,0,0.5,0c0.2,0,0.4,0,0.7,0c0.1,0,0.1,0,0.2,0c0.4,0,0.8,0,1.1,0c0.2,0,0.4,0,0.6,0
			c0.2,0,0.3,0,0.5,0c0.1,0,0.1,0,0.2,0c0,0,0.1,0,0.1,0c0.1,0,0.2,0,0.3-0.1c0.1,0,0.1,0,0.1,0c0.1,0,0.1,0,0.2-0.1
			c0.1,0,0.1,0,0.2-0.1c0.1,0,0.3-0.1,0.4-0.1l0,0c0,0,0,0,0,0c0,0,0,0,0.1,0c0,0,0,0,0.1,0c0,0,0.1,0,0.1,0c0,0,0,0,0.1,0
			c0,0,0,0,0.1,0c0,0,0,0,0.1,0c0,0,0,0,0.1,0c0,0,0,0,0.1,0c0,0,0,0,0.1,0c0,0,0,0,0.1,0c0,0,0,0,0.1,0c0,0,0,0,0.1,0
			c0,0,0,0,0.1,0c0,0,0,0,0,0c0,0,0,0,0,0c0,0,0,0,0,0c0,0,0,0,0,0c0,0,0,0,0,0c0,0,0,0,0,0c0,0,0,0,0,0c0,0,0,0,0,0c0,0,0,0,0,0
			c0,0,0,0,0,0c0,0,0,0,0,0c0,0,0,0,0,0c0,0,0,0,0,0c0,0,0,0,0,0c0,0,0,0,0,0c0,0,0,0,0,0c0,0,0,0,0,0c0.1,0.1,0.1,0.3,0.2,0.5
			c0,0.2,0.1,0.3,0.1,0.5c0,0.1,0,0.2,0.1,0.3c0,0.2,0,0.5,0,0.7C111.5,13,111.4,13.8,111.1,14.6z"/>
		<path class="st0" d="M11.4,40.9h-1c-0.2,0-0.4,0.2-0.4,0.4v1.8H7.3v-1.8c0-0.2-0.2-0.4-0.4-0.4h-1c-0.2,0-0.4,0.2-0.4,0.4v5.2
			c0,0.2,0.2,0.4,0.4,0.4h1c0.2,0,0.4-0.2,0.4-0.4v-1.9H10v1.9c0,0.2,0.2,0.4,0.4,0.4h1c0.2,0,0.4-0.2,0.4-0.4v-5.2
			C11.8,41.1,11.6,40.9,11.4,40.9z"/>
		<path class="st0" d="M16.1,40.9h-1c-0.2,0-0.4,0.2-0.4,0.4v5.2c0,0.2,0.2,0.4,0.4,0.4h1c0.2,0,0.4-0.2,0.4-0.4v-5.2
			C16.5,41.1,16.3,40.9,16.1,40.9z"/>
		<path class="st0" d="M25.1,42.2c-0.2-0.2-0.3-0.4-0.5-0.6c-0.1-0.1-0.3-0.2-0.4-0.3c-0.2-0.1-0.3-0.2-0.5-0.2
			c-0.2-0.1-0.5-0.1-0.7-0.2c-0.3,0-0.6-0.1-1-0.1h-2.1c-0.2,0-0.4,0.2-0.4,0.4v5.2c0,0.2,0.2,0.4,0.4,0.4h2.9
			c0.8,0,1.4-0.2,1.8-0.5c0.3-0.2,0.6-0.5,0.8-0.9c0.2-0.4,0.3-0.9,0.3-1.5c0-0.4,0-0.7-0.1-1C25.3,42.7,25.2,42.5,25.1,42.2z
			 M23.2,45.3c-0.3,0.2-0.8,0.3-1.2,0.3h-0.8v-3.6H22c0.3,0,0.5,0,0.8,0.1c0.3,0.1,0.5,0.3,0.7,0.6c0.2,0.3,0.3,0.7,0.3,1.1
			C23.7,44.6,23.5,45.1,23.2,45.3z"/>
		<path class="st0" d="M33.7,42.2c-0.2-0.2-0.3-0.4-0.5-0.6c-0.1-0.1-0.3-0.2-0.4-0.3c-0.2-0.1-0.3-0.2-0.5-0.2
			C32,41,31.8,41,31.5,40.9c-0.3,0-0.6-0.1-1-0.1h-2.1c-0.2,0-0.4,0.2-0.4,0.4v5.2c0,0.2,0.2,0.4,0.4,0.4h2.9c0.8,0,1.4-0.2,1.8-0.5
			c0.3-0.2,0.6-0.5,0.8-0.9c0.2-0.4,0.3-0.9,0.3-1.5c0-0.4,0-0.7-0.1-1C34,42.7,33.9,42.5,33.7,42.2z M31.9,45.3
			c-0.3,0.2-0.8,0.3-1.2,0.3h-0.8v-3.6h0.8c0.3,0,0.5,0,0.8,0.1c0.3,0.1,0.5,0.3,0.7,0.6c0.2,0.3,0.3,0.7,0.3,1.1
			C32.4,44.6,32.2,45.1,31.9,45.3z"/>
		<path class="st0" d="M40.8,45.7h-2.3v-1.3h2.1c0.2,0,0.4-0.2,0.4-0.4v-0.4c0-0.2-0.2-0.4-0.4-0.4h-2.1v-1.1h2.2
			c0.2,0,0.4-0.2,0.4-0.4v-0.4c0-0.2-0.2-0.4-0.4-0.4h-3.7c-0.2,0-0.4,0.2-0.4,0.4v5.2c0,0.2,0.2,0.4,0.4,0.4h3.7
			c0.2,0,0.4-0.2,0.4-0.4v-0.4C41.2,45.9,41,45.7,40.8,45.7z"/>
		<path class="st0" d="M49.9,40.9h-1c-0.2,0-0.4,0.2-0.4,0.4v2.9l-3-3.2c-0.1-0.1-0.2-0.1-0.3-0.1h-1c-0.2,0-0.4,0.2-0.4,0.4v5.2
			c0,0.2,0.2,0.4,0.4,0.4h1c0.2,0,0.4-0.2,0.4-0.4v-3l3,3.2c0.1,0.1,0.2,0.1,0.3,0.1h1c0.2,0,0.4-0.2,0.4-0.4v-5.2
			C50.3,41.1,50.2,40.9,49.9,40.9z"/>
		<path class="st0" d="M66.4,40.9h-1c-0.2,0-0.3,0.1-0.3,0.2l-1.2,3.1l-1.3-3.1c-0.1-0.1-0.2-0.2-0.3-0.2h-0.8
			c-0.1,0-0.3,0.1-0.3,0.2l-1.3,3.1l-1.2-3.1c-0.1-0.1-0.2-0.2-0.3-0.2H57c-0.3,0-0.4,0.3-0.3,0.5l2.2,5.4c0.1,0.1,0.2,0.2,0.3,0.2
			h0.6c0.1,0,0.3-0.1,0.3-0.2l1.5-3.3l1.5,3.3c0.1,0.1,0.2,0.2,0.3,0.2h0.6c0.1,0,0.3-0.1,0.3-0.2l2.3-5.4
			C66.8,41.2,66.6,40.9,66.4,40.9z"/>
		<path class="st0" d="M74.7,41.7c-0.3-0.3-0.6-0.5-1.1-0.7c-0.4-0.2-0.9-0.2-1.5-0.2c-0.7,0-1.4,0.1-1.9,0.4
			c-0.5,0.3-0.9,0.7-1.2,1.1c-0.2,0.5-0.4,1-0.4,1.5c0,0.5,0.1,1,0.4,1.5c0.3,0.5,0.6,0.9,1.2,1.1c0.5,0.3,1.1,0.4,1.9,0.4
			c0.7,0,1.4-0.1,1.9-0.4c0.5-0.3,0.9-0.7,1.2-1.1c0.3-0.5,0.4-1,0.4-1.6c0-0.4-0.1-0.8-0.2-1.2C75.2,42.3,75,42,74.7,41.7z
			 M73.5,44.7c-0.1,0.2-0.3,0.4-0.5,0.5c-0.2,0.1-0.5,0.2-0.9,0.2c-0.5,0-0.9-0.1-1.1-0.4c-0.3-0.3-0.4-0.7-0.4-1.1s0.1-0.8,0.4-1.1
			c0.3-0.3,0.7-0.4,1.1-0.4c0.3,0,0.5,0,0.7,0.1c0.2,0.1,0.4,0.2,0.5,0.3c0.1,0.1,0.2,0.3,0.3,0.5c0.1,0.2,0.1,0.4,0.1,0.6
			C73.7,44.2,73.6,44.5,73.5,44.7z"/>
		<path class="st0" d="M79.3,46.9c0.2,0,0.4-0.2,0.4-0.4v-3l3,3.2c0.1,0.1,0.2,0.1,0.3,0.1h1.1c0.2,0,0.4-0.2,0.4-0.4v-5.3
			c0-0.2-0.2-0.4-0.4-0.4H83c-0.2,0-0.4,0.2-0.4,0.4v3l-3-3.2c-0.1-0.1-0.2-0.1-0.3-0.1h-1.1c-0.2,0-0.4,0.2-0.4,0.4v5.3
			c0,0.2,0.2,0.4,0.4,0.4H79.3z"/>
		<path class="st0" d="M90.5,46.9c0.8,0,1.4-0.2,1.8-0.5c0.3-0.2,0.6-0.5,0.8-0.9c0.2-0.4,0.3-0.9,0.3-1.5c0-0.4,0-0.7-0.1-1
			c-0.1-0.3-0.2-0.6-0.4-0.8c-0.2-0.2-0.3-0.4-0.5-0.6c-0.1-0.1-0.3-0.2-0.4-0.3c-0.2-0.1-0.3-0.2-0.5-0.2C91.3,41,91,41,90.8,40.9
			c-0.3,0-0.6-0.1-1-0.1h-2.1c-0.2,0-0.4,0.2-0.4,0.4v5.3c0,0.2,0.2,0.4,0.4,0.4H90.5z M89.1,42.1h0.8c0.3,0,0.5,0,0.8,0.1
			c0.3,0.1,0.5,0.3,0.7,0.6c0.2,0.3,0.3,0.7,0.3,1.1c0,0.7-0.2,1.2-0.5,1.4c-0.3,0.2-0.8,0.3-1.2,0.3h-0.8V42.1z"/>
		<path class="st0" d="M100.5,46.5v-0.4c0-0.2-0.2-0.4-0.4-0.4h-2.3v-1.3h2.1c0.2,0,0.4-0.2,0.4-0.4v-0.4c0-0.2-0.2-0.4-0.4-0.4
			h-2.1v-1.1h2.2c0.2,0,0.4-0.2,0.4-0.4v-0.4c0-0.2-0.2-0.4-0.4-0.4h-3.7c-0.2,0-0.4,0.2-0.4,0.4v5.2c0,0.2,0.2,0.4,0.4,0.4h3.7
			C100.3,46.9,100.5,46.7,100.5,46.5z"/>
		<path class="st0" d="M108.1,43.5c0.1-0.2,0.2-0.5,0.2-0.8c0-0.3-0.1-0.5-0.2-0.8c-0.1-0.3-0.4-0.5-0.7-0.7
			c-0.3-0.2-0.7-0.3-1.2-0.3h-2.7c-0.2,0-0.4,0.2-0.4,0.4v5.2c0,0.2,0.2,0.4,0.4,0.4h1c0.2,0,0.4-0.2,0.4-0.4v-1.9h0.2
			c0.2,0,0.4,0,0.5,0.1c0.1,0.1,0.3,0.2,0.4,0.3c0.1,0.2,0.3,0.5,0.5,0.9l0.4,0.8c0.1,0.1,0.2,0.2,0.4,0.2h1.1
			c0.3,0,0.5-0.3,0.4-0.6l-0.3-0.7c-0.2-0.5-0.4-0.8-0.5-0.9c-0.1-0.2-0.3-0.3-0.5-0.4c0.2-0.1,0.3-0.2,0.4-0.3
			C107.8,43.9,108,43.7,108.1,43.5z M106.2,43.4c-0.2,0.1-0.5,0.1-0.9,0.1h-0.4V42h0.4c0.4,0,0.7,0.1,0.9,0.2
			c0.2,0.1,0.3,0.3,0.3,0.6C106.4,43.1,106.3,43.3,106.2,43.4z"/>
	</g>
	<path class="st0" d="M109.5,10.8c0,0-0.1,0-0.2,0.1c-0.3,0.2-0.9,0.4-3.4,0.4c-0.4,0-0.8,0-1,0c-0.2,0-0.3,0-0.4,0
		c-1.5,0-2.2,0.3-2.8,1.4c-0.2,0.3-0.3,0.8-0.4,1.4c0,0.2,0,0.4,0,0.6c0.1,0.5,0.2,0.9,0.5,0.7c0.1-0.1,0.2-0.2,0.2-0.3
		c0.1-0.3,0.2-1,0-1.9c0-0.2,0.2-0.2,0.3-0.1c0.4,0.6,0.4,1.5,0.4,1.5c0.2-0.2,0.5-0.3,0.7-0.4c0.2-0.1,0.4-0.3,0.5-0.5
		c0.1-0.3,0.3-0.8,0.2-1.4c0-0.2,0.2-0.2,0.3-0.1c0.2,0.3,0.4,0.8,0.3,1.6l0,0c0.5-0.1,0.7-0.1,0.9-0.1c0.2-0.1,0.4-0.8,0.6-1.2
		c0-0.1,0.2-0.1,0.2,0c0.1,0.5-0.1,1.1-0.1,1.1c0.9-0.1,1.8-0.9,2.3-1.3c0.1-0.1,0.3,0,0.2,0.1c-0.7,1.8-3.3,1.9-4.5,2.4
		c-0.5,0.2-0.8,0.5-1.1,0.8c-0.4,0.5-0.3,1.3,0.3,1.6c0.1,0,0.2,0.1,0.2,0.1c1.5,1,3.3,0.1,4.2-0.7c-0.9-0.1-1.3-0.4-1.6-0.7
		c-0.1-0.1,0-0.2,0.1-0.2c0.9,0.2,1.6,0.1,2-0.1c0.3-0.1,0.5-0.3,0.6-0.5c0.1-0.1,0.1-0.2,0.2-0.3c-0.2,0.1-0.6,0.2-1.1-0.1
		c-0.1-0.1-0.1-0.2,0-0.2c0.2,0,0.5-0.1,0.8-0.2c0.4-0.1,0.7-0.4,0.8-0.8c0.1-0.5,0.2-0.9,0.2-1.4C109.8,11.1,109.6,10.8,109.5,10.8
		z"/>
	<g>
		<path class="st0" d="M86.1,11.2l-5.3,1.1c-0.5,0.1-0.8,0.6-0.8,1V21h-6.1v-9c0-0.4-0.4-0.8-0.8-0.8l-5.3,1.1
			c-0.4,0.1-0.8,0.6-0.8,1v6.5c0.4,0.3,0.7,0.6,1.1,0.9c1.3,1.4,2,2.9,2.1,4.5c0.1,0.8-0.2,2.2-1.7,3.1c-0.4,0.2-0.8,0.4-1.3,0.5
			c0,0.2-0.1,0.3-0.1,0.5v6.5c0,0.4,0.4,0.8,0.8,0.8h5.3c0.4,0,0.8-0.4,0.8-0.8v-6.6v-3H80v4.6v4.9c0,0.4,0.4,0.8,0.8,0.8h5.3
			c0.4,0,0.8-0.4,0.8-0.8v-8v-1V12C86.9,11.5,86.5,11.2,86.1,11.2z"/>
		<path class="st0" d="M13.2,21.9c3.4-3.7,5.8-3.8,7.8-3.8c2.2,0,4,0.6,5,2.1l5-7.5c0.4-0.7,0-1.5-0.8-1.5h-6.6
			c-0.3,0-0.6,0.2-0.8,0.4L19,17.1l-3.7-5.6c-0.2-0.3-0.5-0.4-0.8-0.4H7.8C7,11.2,6.5,12,7,12.7L13.2,21.9z"/>
		<path class="st0" d="M26.1,26c0,0-0.9,1.5-3.5,1.5c-1.8,0-3.4-1.1-3.4-2.8c0-2.2,1.7-2.2,2-2.2c0.2,0,1.6,0,1.6,1.5
			c0,1.2-1.3,1.4-1.7,1.5c0,0-0.1,0.1,0,0.1c0.1,0.2,0.6,0.6,1.5,0.6c1.4,0,2.6-1.2,2.6-2.6c0-0.3,0-0.7-0.2-1.1
			c-0.1-0.3-0.3-0.7-0.5-1c-0.6-0.9-1.7-1.5-3.6-1.5c-1,0-2.8,0.3-4.8,2.3c-1,1-2.5,3.2-2.5,3.2L7,35.1c-0.4,0.7,0,1.5,0.8,1.5h6.6
			c0.3,0,0.6-0.2,0.8-0.4l3.7-5.6l3.7,5.6c0.2,0.3,0.5,0.4,0.8,0.4h6.6c0.8,0,1.3-0.9,0.8-1.5L26.1,26z"/>
		<path class="st0" d="M106.6,36.3c-0.2-0.4-0.2-1-0.2-1.3v-6.5v-3.9V23c0,0,0-0.1,0-0.1c0-0.5,0-2.1-0.9-3.3c0-0.1-0.1-0.1-0.2-0.2
			c-0.3-0.3-0.6-0.8-1.2-1.3c-0.8-0.7-2-1.4-3.7-1.6c-0.4-0.1-0.8-0.1-1.2-0.1c0,0,0,0-0.1,0c-1,0-2.2,0.2-3.5,0.5
			c-1.3,0.4-3.9,1.4-5.6,2.2c-0.4,0.2-0.7,0.7-0.8,1.2c0,1.1,0,2.2,0,3c0,0.3,0.4,0.5,0.7,0.4c1.4-0.9,5.3-3,7.6-2.4
			c0.8,0.2,1.4,0.6,1.9,1.4c0.1,0.1,0.1,0.3,0,0.4c-0.1,0.1-0.2,0.2-0.3,0.2c-3-0.1-7.7,1-10.1,3.9c-1,1.2-1.6,2.7-1.6,4.6
			c0.2,6.4,7.9,5.8,11.8,3.6c0.2-0.1,0.5,0,0.6,0.3c0.1,0.4,0.2,0.7,0.3,0.8c0.1,0.1,0.2,0.2,0.3,0.2c0,0,4.7,0,5.9,0
			C106.6,36.6,106.7,36.4,106.6,36.3z M99.7,27.6c-0.3,1.6-1.5,3.3-3.4,4c-2,0.7-2.3-1.4-2.1-2.1c0.5-1.7,2.5-2.5,4-2.9
			c0.3-0.1,0.5-0.1,0.7-0.2c0.6-0.1,0.9-0.2,0.9-0.2C99.8,26.7,99.8,27.1,99.7,27.6z"/>
		<path class="st0" d="M49.1,6.8H50V9h-0.9l0.2,1.3c0.1,0.3,0.4,0.6,0.7,0.6h0.4l-0.3,4.3l0,0.4c5.1-2.1,6.6-4.8,6.6-4.8l0,0H57
			c0.3,0,0.6-0.3,0.7-0.6L57.9,9H57l0-2.1h0.7c0.2,0,0.3-0.3,0.1-0.4l-3.7-3.1c-0.5-0.4-1.1-0.4-1.5,0l-3.7,3.1
			C48.8,6.5,48.8,6.8,49.1,6.8z M52.4,7.8c0-0.6,0.5-1.1,1.1-1.1c0.6,0,1.1,0.5,1.1,1.1v1.3h-2.2V7.8z"/>
		<path class="st0" d="M57.1,30.5c-0.2-0.2-0.4-0.6-0.4-1.2c-0.2,0-0.5,0-0.7,0c-0.9,0-1.5-0.3-1.8-1c-0.4-1,0.3-1.7,0.7-2.1
			c0.2-0.2,0.5-0.5,0.6-0.8c0.1-0.1,0.1-0.2,0.1-0.3c0-0.1,0-0.2-0.1-0.3c-0.1-0.2-0.3-0.5-0.5-0.7c0-0.1-0.1-0.1-0.1-0.2
			c-0.1-0.1-0.1-0.2-0.2-0.3c-2,1.6-4.5,3.5-5.5,3.9c0,0-4.8,3.2-9.1,3.2c-0.3-0.1-0.6-0.1-0.9-0.2c-0.7-0.3-2-1.3-1.6-1.4
			c0,0,5.4-0.3,8.6-2.8c3.9-3,1.5-9-2.8-9.7c-5.2-0.8-10.7,2.2-12.9,8.1c-0.1,0.2-0.1,0.3-0.2,0.5c0,0,0,0.1,0,0.1
			c0,0.1-0.1,0.2-0.1,0.3c-1.9,6.3,1.5,11.1,8.9,11.1c4.7,0,8.6-2,9.6-2.7h0c0,0,0.7-0.4,1.6-1c0.2-0.1,0.5,0.2,0.4,0.4
			c-0.4,0.8-1.3,1.7-2,2.1c0.1,0.4,0.4,0.6,0.8,0.6h4h0.3h4c0.5,0,0.9-0.4,0.9-0.9l-0.3-4.1C57.8,31.1,57.4,30.8,57.1,30.5z
			 M36.9,25.4c0.1-0.5,0.2-0.9,0.3-1.3c0.5-1.5,1.9-3.1,3.9-3.5c2-0.4,2.1,1.7,1.8,2.4C41.7,25.6,36.9,25.4,36.9,25.4z"/>
		<path class="st0" d="M49.9,18.2l-0.5,5.7c0,0,3.2-0.9,7.8-5.9l0,0l-0.4-5.2C53.9,16.8,49.9,18.2,49.9,18.2z"/>
		<path class="st0" d="M67.4,27.3c0.1-0.1,0.3-0.1,0.4-0.2c0.1-0.1,0.3-0.2,0.4-0.3c0.2-0.1,0.3-0.3,0.4-0.4
			c0.1-0.1,0.1-0.2,0.1-0.3c0-0.1,0.1-0.2,0.1-0.3c0-0.1,0-0.2,0-0.2c0-0.2,0-0.3,0-0.3c0-1.2-0.6-2.3-1.3-3.2
			c-0.1-0.1-0.2-0.3-0.4-0.4c-0.1-0.1-0.2-0.2-0.3-0.3c-0.1-0.1-0.2-0.2-0.4-0.3c-0.2-0.2-0.5-0.4-0.8-0.5c-0.4-0.2-0.7-0.4-1.1-0.6
			c-0.1,0-0.2-0.1-0.3-0.1c-0.1,0-0.1,0-0.2-0.1c0,0,0,0-0.1,0c0,0-0.1,0-0.2,0c0,0-0.1,0-0.1,0c-0.1,0-0.1,0-0.2,0c0,0-0.1,0-0.1,0
			c-0.1,0-0.1,0-0.2,0c0,0-0.1,0-0.1,0c-0.1,0-0.1,0-0.2,0c0,0-0.1,0-0.1,0c-0.1,0-0.1,0-0.2,0c-0.1,0-0.1,0-0.2,0
			c-0.1,0-0.1,0-0.2,0c-0.1,0-0.1,0-0.2,0c-0.1,0-0.1,0-0.2,0c-0.1,0-0.1,0-0.2,0c-0.1,0-0.1,0-0.2,0c-0.1,0-0.1,0-0.2,0
			c-0.1,0-0.1,0-0.2,0c-0.1,0-0.2,0-0.2,0c-0.1,0-0.1,0-0.2,0c-0.1,0-0.2,0-0.2,0c-0.1,0-0.1,0-0.2,0c-0.1,0-0.2,0-0.3,0.1
			c-0.1,0-0.1,0-0.2,0c-0.1,0-0.2,0-0.3,0.1c-0.1,0-0.1,0-0.2,0.1c-0.1,0-0.2,0.1-0.3,0.1c-0.1,0-0.1,0-0.2,0.1
			c-0.2,0.1-0.3,0.1-0.5,0.2c0,0,0,0,0,0c0,0,0,0,0,0c-0.1,0.1-0.3,0.2-0.3,0.4c0,0.1,0,0.3,0.1,0.5c0.1,0.1,0.1,0.2,0.2,0.4
			c0.4,0.6,0.7,0.9,1,1.2c0,0,0,0.1,0.1,0.1c0,0,0,0,0,0c0,0,0,0,0,0.1c0,0,0,0,0,0c0,0,0,0,0,0.1c0,0,0,0,0,0c0,0,0,0,0,0.1
			c0,0,0,0,0,0c0,0,0,0-0.1,0.1c0,0,0,0,0,0c0,0,0,0-0.1,0c0,0,0,0,0,0c0,0,0,0,0,0c0,0,0,0,0,0c0,0,0,0,0,0c0,0-0.1,0-0.1,0
			c-0.1-0.1-0.3-0.2-0.4-0.3c-0.2-0.1-0.3-0.2-0.5-0.2c-0.2-0.1-0.4-0.1-0.6-0.2c0,0,0,0-0.1,0c-0.1,0-0.3,0-0.4-0.1
			c-0.1,0-0.2,0-0.4,0c-0.1,0-0.2,0-0.3,0c0,0,0,0,0,0c-0.1,0-0.3,0-0.4,0c-0.2,0-0.3,0-0.3,0c-0.1,0-0.1,0-0.1,0.1c0,0,0,0.1,0,0.1
			c0,0,0,0,0,0.1c0,0,0,0.1,0,0.1c0,0,0,0.1,0.1,0.1c0,0,0,0.1,0.1,0.1c0,0,0,0,0,0c0.1,0.1,0.2,0.3,0.4,0.4
			c0.1,0.1,0.1,0.1,0.2,0.2c0.1,0.1,0.1,0.2,0.2,0.2c0.1,0.1,0.2,0.2,0.2,0.4c0,0.1,0.1,0.1,0.1,0.2c0,0.1,0.1,0.1,0.1,0.2
			c0.1,0.2,0.1,0.4,0.1,0.5c0,0.1,0,0.1,0,0.2c0,0.3-0.1,0.7-0.2,0.9c-0.3,0.5-0.7,0.9-0.9,1.2c-0.2,0.2-0.3,0.3-0.3,0.4
			c0,0,0,0.1,0,0.1c0,0,0.1,0,0.1,0.1c0.1,0,0.2,0,0.3,0c0.1,0,0.3,0,0.4,0s0.2,0,0.4,0c0.3,0,0.6-0.1,0.8-0.1
			c0.1,0,0.3-0.1,0.4-0.1c0.1,0,0.2-0.1,0.3-0.1c0.1,0,0.2-0.1,0.2-0.1c0.2-0.1,0.4-0.3,0.6-0.5c0,0,0.1-0.1,0.1-0.1c0,0,0,0,0,0
			c0,0,0,0,0.1,0c0,0,0,0,0,0c0,0,0,0,0.1,0c0,0,0,0,0,0c0,0,0,0,0.1,0c0,0,0,0,0,0c0,0,0,0,0,0c0,0,0,0,0,0c0,0,0,0,0,0.1
			c0,0,0,0,0,0c0,0,0,0,0,0.1c0,0,0,0,0,0c0,0,0,0.1-0.1,0.1c0,0,0,0,0,0c-0.1,0.1-0.1,0.2-0.2,0.3c-0.2,0.3-0.4,0.6-0.5,0.8
			c-0.2,0.4-0.3,0.7-0.4,0.9c0,0.1,0,0.1,0,0.1c0,0,0,0,0,0c0,0,0,0,0,0.1c0,0,0,0,0,0c0,0,0,0,0,0c0,0,0,0,0,0c0,0,0,0,0,0
			c0,0,0,0,0,0c0,0,0,0,0,0c0,0,0,0,0,0c0,0,0,0,0,0c0,0,0,0,0,0c0,0,0,0,0,0c0,0,0,0,0,0c0,0,0,0,0,0l2.2,0.4l0,0
			c0.2,0,0.4,0.1,0.6,0.1c0.1,0,0.1,0,0.2,0c0.1,0,0.3,0,0.4,0c0.1,0,0.1,0,0.2,0c0.1,0,0.3,0,0.4,0c0.1,0,0.1,0,0.2,0
			c0.2,0,0.4-0.1,0.6-0.1h0c0.2,0,0.4-0.1,0.6-0.2c0.1,0,0.1,0,0.2-0.1c0.1,0,0.3-0.1,0.4-0.2c0.1,0,0.1-0.1,0.2-0.1
			c0.1-0.1,0.3-0.1,0.4-0.2c0.1,0,0.1-0.1,0.2-0.1c0.2-0.1,0.3-0.2,0.5-0.3c0.1,0,0.1-0.1,0.1-0.1c0,0,0,0,0,0c0,0,0,0,0,0
			c0,0,0,0,0,0c0,0,0,0,0,0c-0.1,0-0.3,0-0.4,0c-0.1,0-0.2,0-0.3-0.1c-0.6-0.1-1-0.3-1.3-0.4c-0.1,0-0.1-0.1-0.1-0.1
			c-0.2-0.1-0.4-0.3-0.6-0.4c-0.1-0.1-0.2-0.2-0.3-0.3c0,0,0,0,0,0c-0.1-0.1-0.1-0.2-0.2-0.2c-0.1-0.2-0.2-0.3-0.3-0.5
			c0,0,0-0.1-0.1-0.1c-0.1-0.2-0.2-0.5-0.2-0.7c-0.1-0.5-0.1-1,0-1.5c0-0.1,0-0.1,0-0.2c0-0.1,0-0.1,0.1-0.2l0-0.1l0,0l0.1-0.2
			l0-0.1l0-0.1l0.1-0.1l0,0l0,0l0,0l0-0.1c0,0,0,0,0.1-0.1c0,0,0,0,0.1-0.1c0.1-0.1,0.2-0.2,0.2-0.3c0.1-0.1,0.2-0.2,0.3-0.2
			c0.1-0.1,0.2-0.1,0.3-0.2c0.1-0.1,0.2-0.1,0.3-0.1c0,0,0,0,0,0c0.1,0,0.2-0.1,0.4-0.1c0,0,0.1,0,0.1,0c0.1,0,0.2,0,0.3,0
			c0,0,0,0,0.1,0c0,0,0,0,0,0c0.1,0,0.2,0,0.4,0h0h0c0.1,0,0.2,0,0.2,0.1c0.1,0,0.2,0,0.2,0.1c0.1,0,0.1,0.1,0.2,0.1
			c0.1,0,0.1,0.1,0.2,0.1c0,0,0,0,0,0c0,0,0,0,0.1,0c0.1,0.1,0.2,0.2,0.3,0.4c0,0.1,0.1,0.1,0.1,0.2c0,0.1,0.1,0.1,0.1,0.2
			c0,0.1,0,0.1,0,0.2c0,0.2,0,0.3,0,0.4c0,0,0,0,0,0.1c0,0.1,0,0.1,0,0.1l0,0c0,0.1,0,0.2-0.1,0.2c0,0.1-0.1,0.1-0.1,0.2
			c-0.1,0.1-0.1,0.1-0.2,0.2c-0.1,0-0.1,0.1-0.2,0.1c-0.1,0-0.1,0.1-0.2,0.1c0,0,0,0-0.1,0c-0.1,0-0.1,0-0.2,0c0,0,0,0,0,0
			c0,0,0,0,0,0c-0.1,0-0.2,0-0.2,0h0c0,0-0.1,0-0.1,0c-0.1-0.1-0.3-0.1-0.4-0.2c-0.1-0.1-0.2-0.3-0.3-0.5c-0.1-0.4,0-0.8,0.3-1.1
			c0,0,0,0,0-0.1c0,0,0,0,0,0c0,0,0,0,0,0c0,0,0,0,0,0c0,0,0,0,0,0c0,0,0,0,0,0c0,0,0,0-0.1,0c-0.2,0-0.4,0-0.5,0.1
			c-0.1,0-0.1,0.1-0.2,0.1c-0.1,0.1-0.3,0.2-0.4,0.3c-0.1,0.1-0.1,0.1-0.2,0.2c0,0-0.1,0.1-0.1,0.1L63,23.8l0,0.1l0,0.1l0,0.1l0,0.1
			l0,0.1l0,0.1l0,0.1c0,0,0,0,0,0.1c0,0.1,0,0.1,0,0.2c0,0.1,0,0.2,0,0.3c0,0.1,0,0.2,0,0.3c0,0.2,0,0.4,0.1,0.5
			c0,0.1,0.1,0.2,0.1,0.3c0,0.1,0.1,0.2,0.1,0.3c0,0,0,0.1,0.1,0.1c0,0.1,0.1,0.1,0.1,0.2c0,0.1,0.1,0.1,0.1,0.2
			c0.1,0.1,0.1,0.1,0.2,0.2c0.2,0.2,0.4,0.3,0.6,0.5c0.2,0.1,0.5,0.2,0.7,0.3c0.1,0,0.2,0,0.2,0c0,0,0.1,0,0.1,0c0,0,0.1,0,0.1,0
			c0.1,0,0.2,0,0.3,0c0.1,0,0.2,0,0.3,0c0.2,0,0.4,0,0.5,0c0.2,0,0.4-0.1,0.6-0.1C67.2,27.4,67.3,27.3,67.4,27.3z"/>
	</g>
</g>
</svg>
