<?xml version="1.0" encoding="utf-8"?>
<!-- Generator: Adobe Illustrator 23.0.0, SVG Export Plug-In . SVG Version: 6.00 Build 0)  -->
<svg version="1.1" id="Layer_1" xmlns="http://www.w3.org/2000/svg" xmlns:xlink="http://www.w3.org/1999/xlink" x="0px" y="0px"
	 viewBox="0 0 125 37" style="enable-background:new 0 0 125 37;" xml:space="preserve">
<style type="text/css">
	.st0{fill-rule:evenodd;clip-rule:evenodd;fill:#FFFFFF;}
	.st1{fill:#FFFFFF;}
</style>
<g>
	<g>
		<g>
			<g>
				<g>
					<path class="st0" d="M65.4,11.2c0,0.1-0.1,0.1-0.1,0.1C65.3,11.2,65.4,11.2,65.4,11.2"/>
					<g>
						<path class="st1" d="M67.1,19.9c0.2,0,0.5-0.1,0.7-0.2c0.4-0.1,0.7-0.4,1-0.7c0.2-0.2,0.4-0.5,0.5-0.8c0.2-0.8-0.1-2-1-2.3
							c-0.2-0.1-0.4-0.1-0.5-0.2c-0.3-0.1-0.6-0.1-0.9-0.1c-0.3,0-0.6,0.1-0.8,0.1c-0.1,0.1-0.2,0.1-0.3,0.1
							c-0.3,0.1-0.6,0.2-0.9,0.3c-0.1,0.1-0.2,0.1-0.3,0.1c-0.3,0-0.5,0-0.8,0.1c-0.5,0.3-0.9,0.9-1.2,1.4c-0.4,0.6-0.6,1.3-0.1,1.8
							c0.3,0.4,0.8,0.3,1.3,0.4c0.1,0,0.2,0,0.3,0c0,0,0,0,0,0c0.2,0,0.3,0,0.5,0c0.4,0,0.7,0,0.8-0.1c0,0,0.1,0,0.2-0.1
							c0.2-0.1,0-0.3-0.2-0.3c-0.1,0-0.3-0.1-0.4-0.1c-0.8-0.2-0.7-1.1-0.1-1.6c0.7-0.6,1.7-0.5,2.5-0.3c0.8,0.3,0.6,1.3,0,1.7
							c-0.1,0.1-0.3,0.1-0.4,0.2C66.6,19.8,66.9,19.9,67.1,19.9z"/>
						<path class="st1" d="M70.6,16.8c-0.1-0.2-0.2-0.5-0.3-0.7c-0.4-0.4-0.4,0.1-0.4,0.2c0,0.1,0,0.1,0,0.2c0,0.4,0,0.8,0,1.2
							c0,0.2,0,0.4-0.1,0.5c-0.1,0.5-0.4,0.9-0.8,1.2c-0.4,0.3-0.9,0.6-1.4,0.6c-0.4,0-0.7,0.1-1,0.2c-0.3,0.1-0.5,0.1-0.8,0.1
							c-0.7,0-1.4,0.1-2.1,0c0,0,0,0,0,0c0,0-0.1,0-0.1,0c-0.3,0-0.6-0.1-0.9-0.1c0,0,0,0,0,0c-0.1,0-0.2-0.1-0.3-0.1c0,0,0,0-0.1,0
							c-0.8-0.2-1.4-0.6-1.6-1.3c-0.3-0.9-0.5-1.7,0.3-2.5c0.2-0.2,0.3-0.5,0.5-0.7c0.2-0.2,0.4-0.4,0.6-0.5
							c0.5-0.3,1.1-0.4,1.7-0.6c0.6-0.2,1.2-0.4,1.9-0.6c0.7-0.2,1.3-0.1,2,0c0.3,0.1,1.4,0.4,1.6-0.1c0.1-0.3-0.3-0.6-0.6-0.8
							c-0.2-0.1-0.3-0.2-0.5-0.3c-0.2-0.1-0.4-0.4-0.6-0.4c-0.4,0-0.5-0.3-0.9-0.3c-0.2-0.2-0.6-0.1-1-0.2c-0.2,0-0.5-0.1-0.7-0.1
							c-1.2,0-2.2,0.4-3.3,1c-0.7,0.3-1.6,0.8-2,1.5c-0.7,1-0.7,2.5-0.6,3.6c0.1,0.5,0.2,1,0.4,1.4c0.5,1,1.8,1.4,2.8,1.6
							c0.4,0.1,1.1,0.1,1.5,0.1c0.6,0.1,1.2-0.1,1.8-0.2c1.2-0.3,2.5-0.6,3.7-1.2c0.2-0.1,0.4-0.3,0.5-0.4c0.1-0.1,0.2-0.2,0.3-0.3
							c0.2-0.3,0.4-0.6,0.5-1c0,0,0,0,0,0c0-0.1,0.1-0.3,0.1-0.4C70.7,17.2,70.7,17,70.6,16.8z"/>
						<path class="st1" d="M66.8,18.8C66.8,18.8,66.8,18.8,66.8,18.8c-0.2-0.4-0.7-0.4-1-0.2c-0.2,0.1-0.3,0.3-0.2,0.5
							c0,0.1,0.3,0.4,0.4,0.2c0-0.1-0.2-0.1-0.2-0.3c0.1-0.1,0.3-0.2,0.4-0.2c0.1,0,0.3-0.1,0.4,0c0.1,0.1,0,0.3,0,0.4
							C66.8,19.3,66.8,19,66.8,18.8z"/>
					</g>
					<g>
						<path class="st1" d="M75.8,13.1c-0.1-1.2-1.4-2.3-2.1-3c-0.7-0.7-2.3-2.2-3.2-2.7c-0.9-0.5-4.3-1-5.6-1
							c-1.2,0-2.8,1.1-3.8,1.7c-1,0.6-2.2,1.6-3.2,2.6c-1,1.1-1.4,2.7-1.4,3.9s0.9,2.9,1.2,3c1.1,0.6-0.2-1.9-0.3-2.6
							c-0.1-0.7,0.4-1.7,1.2-2.7c0.8-1,3-1.7,4.6-1.8c1.5-0.1,3-0.6,4.3-0.8c1.3-0.2,2.6,0,3.4,0.6c0.8,0.6,2.5,1.9,3.3,3.3
							c0.7,1.4,0.1,3.7-0.3,4.6c-0.4,0.9-1.5,2.3-0.9,2.5c0.6,0.3,1.4-1.5,1.8-2.2C75.3,17.8,75.9,14.3,75.8,13.1z"/>
						<path class="st1" d="M73.1,13.6c-1.1-1.7-3.4-2.5-5.3-2.5c-0.4,0-1.1,0-0.6,0.5c0.7,0.6,1.6,0.9,2.3,1.4
							c0.9,0.5,1.7,1.2,2.2,2.1c0.2,0.4,0.3,0.8,0.3,1.2c0.1,0.9,0,1.7-0.5,2.4c-0.1,0.2-1.4,1.5-1.9,1.8c-0.6,0.2-1.5,0.5-2.1,0.7
							c-1.2,0.4-2.1,0.4-3.3,0.6c-0.6,0.1-1.3,0-1.9-0.1c-0.4,0-0.9-0.1-1.3-0.2c-0.4-0.2-0.8-0.5-1.2-0.7c-0.2-0.1-0.5-0.2-0.7-0.4
							c-0.7-0.5-1.1-0.9-1.5-1.7c-0.1-0.2-0.4-1.2-0.7-1c0.3,0.9,0.6,1.8,1.2,2.6c0,0.1,0.1,0.1,0.1,0.2c1.1,1.3,2.7,2,4.3,2.2
							c0.9,0.1,1.7,0.1,2.6,0c0.8,0,1.5-0.1,2.3-0.2c2.2-0.3,4.4-1.3,5.5-3.3C73.9,17.5,74.2,15.2,73.1,13.6z"/>
					</g>
					<g>
						<path class="st1" d="M56.6,20.2c0.6-0.4-0.5-1.4-1-2c-0.5-0.6-0.7-2.6-0.7-4.1c0-1.5,0.8-2.1,1.2-3c0.3-0.8,1.1-2.3,1.9-2.9
							c0.8-0.5,2.4-2.2,3.5-2.9c1.1-0.6,5.1-0.3,7.2-0.1c2.1,0.2,5,2.5,5.4,3.2c0.4,0.7,0.8,2,1.4,2.5c0.6,0.5,1,2.4,1.1,3
							c0.1,0.6,0.6-0.2,0.8-0.4c0.2-0.2,0.3-2.1,0.3-3.6c0-1.5-1.7-3.4-2.3-4.2c-0.6-0.8-1.2-1.7-1.9-2.6c-0.7-0.8-2.8-1.5-3.9-2.1
							c-1.1-0.6-3.7-0.6-5-0.6c-1.3,0-3.7,1.2-4.9,2c-1.2,0.8-4,2.3-4.9,3.5c-0.8,1.3-1.5,5.2-1.5,8.2c0,3,1.2,4,2,4.9
							C55.9,20.3,56.6,20.2,56.6,20.2z"/>
						<path class="st1" d="M77.2,15.5c0-0.2-0.1-0.6-0.4-0.6c0,0-0.1,0-0.1,0c-0.2,0.1-0.3,0.5-0.3,0.8c0,0.1,0,0.1,0,0.2
							c-0.1,0.4-0.2,0.8-0.3,1.2c-0.3,0.9-0.6,1.7-1.1,2.4l-0.1,0.2c-0.4,0.6-0.8,1.4-1.4,1.8c-0.1,0.1-0.2,0.2-0.3,0.3
							c0,0-0.1,0.1-0.1,0.1c0,0-0.1,0.1-0.2,0.1c-0.1,0-0.1,0.1-0.2,0.1c-0.3,0.3-0.7,0.5-1.1,0.6c-0.2,0.1-0.4,0.2-0.5,0.3l0,0
							c-0.6,0.3-1.2,0.6-1.8,0.8c-0.3,0.1-0.6,0.2-0.9,0.3c-0.2,0.1-0.4,0.1-0.6,0.2l-0.1,0c-0.7,0.2-1.3,0.4-2.1,0.4
							c-0.5,0-1.1-0.1-1.6-0.2c-0.2,0-0.4-0.1-0.6-0.1c-0.8-0.1-1.6-0.3-2.4-0.6l-0.2-0.1c-0.7-0.3-1.3-0.6-2-0.9
							c-0.6-0.2-1.1-0.6-1.6-1.1l-0.1-0.1c-0.1-0.1-0.3-0.2-0.4-0.3c-0.2-0.1-0.4-0.3-0.6-0.4c-0.2-0.2-0.3-0.3-0.4-0.4
							c0,0,0-0.1-0.1-0.1c-0.2-0.3-0.2-0.3-0.2-0.3c0,0,0,0,0,0c-0.1-0.2-0.3-0.6-0.6-0.6c-0.1,0-0.2,0-0.2,0.1l-0.1,0l0,0.1
							c0,0.1,0,0.2,0,0.2c0,0,0,0.1,0,0.1l0,0l0,0c0.1,0,0.1,0.1,0.1,0.2c0,0,0,0.1,0,0.1c0.1,0.3,0.3,0.5,0.5,0.7
							c0.1,0.1,0.1,0.2,0.2,0.2c0.1,0.1,0.2,0.2,0.2,0.3c0.1,0.2,0.3,0.4,0.4,0.5c0.5,0.6,1.3,1,1.9,1.3c1.4,0.8,3,1.7,4.8,2.1
							c0.6,0.1,1.2,0.2,1.9,0.2c1.6,0,3.3-0.4,4.8-0.8l0,0c1-0.3,2-0.5,2.9-1.1c1-0.6,1.7-1.5,2.2-2.2l0.2-0.3
							C76.2,19.7,77.7,17.8,77.2,15.5L77.2,15.5z"/>
						<path class="st1" d="M71.3,21.4c-0.3,0.2-0.6,0.5-0.9,0.7c-1.4,0.8-3.1,0.5-4.5,0.8c-0.8,0.2-1.6,0.2-2.4,0.1
							c-0.8-0.1-1.5-0.1-2.3-0.2c-0.3-0.1-0.7-0.2-1-0.3c-0.1-0.1-0.6-0.5-0.8-0.3c-0.2,0.3,1.1,0.9,1.3,1c0.6,0.2,1.3,0.4,1.9,0.4
							c0.9,0.1,1.8,0.3,2.7,0.3c1,0,1.9-0.1,2.8-0.4c0.8-0.2,1.6-0.5,2.4-0.8c0.7-0.4,1.2-0.9,1.6-1.6c0,0,0,0,0,0
							C72,20.8,71.5,21.3,71.3,21.4z"/>
					</g>
				</g>
				<path class="st1" d="M54.1,22.2c0-0.1-1.3-1.4-1.5-1.7c-0.5-0.5-0.1-1.5-0.5-2c-0.8-0.9-1.3-4.3-1.2-5.5c0.1-0.8,0.5-3.8,0.9-5
					c0.2-0.8,0.1-1.1,0.5-1.8c0.5-0.9,1.1-1.6,1.6-2.4c0.1-0.2,0.7-0.8,0.8-1.1c0.4-0.9,0.4-1.4-0.6-1.4c-0.8,0-3.9,0.8-5.9,1
					c-0.5,0.1-1-0.3-1,0.7c0,0.9,0,6.8,0,7.3c0,0.5,0,1.1-0.9,0.2c-0.9-0.9-5.2-6.7-5.7-7.7c-0.4-0.8-0.5-1.1-1.7-1
					c-1,0-2.5,0-3.3,0c0,0-0.1,0-0.1,0c-2.4,0-12.7,0.3-13.6,0.3c-0.4,0-0.9-0.1-1.1,0.5c-1.2-0.3-2.4-0.6-2.9-0.8
					c-0.7-0.2-1.1-0.4-1.5,0.5c-0.4,1-2.1,3.9-2.5,4.3c-0.7,0.7-1,0.9-1.7-0.1c-1-1.5-2.3-3.7-2.8-4.4C9,1.8,8.9,1.4,7.7,1.7
					C6.5,2,1.9,3.4,1.5,3.5c-0.4,0.1-0.8,0.4,0,1.2c0.8,0.8,5.5,6.3,6,6.8c0.6,0.7,0.5,1,0.1,1.8c-0.4,0.9-5.8,7.3-6.1,7.8
					c-0.3,0.5-0.7,1.4,0.5,1.5c1.2,0,5.5,1,6,1.2c0.4,0.1,1.3,0.2,1.8-0.7c1-1.8,1.9-3.4,2.4-4c0.4-0.4,0.5-1.1,1.4,0
					c0.7,0.9,2.8,3.9,3.2,4.4c0.4,0.5,0.8,0.6,1.9,0.3c0.4-0.1,1.1-0.3,1.9-0.5c0,0.4,0.2,0.7,1.2,0.6c1.5-0.1,10.8,0,13.6,0
					c0.1,0.1,0.3,0.1,0.5,0.1c0.2,0,0.5,0,1,0c1.2,0,3,0,3.5,0c0.7,0,1-0.1,0.9-0.7c-0.1-0.7,0-7.6-0.1-7.9
					c-0.1-0.3,0.1-1.1,0.6-0.4c0.6,0.7,4.4,6.3,5.1,7.4c0.7,1.2,1.1,1.5,2,1.4c0.9-0.1,5.7-0.1,6-0.1C55.8,23.6,54.1,22.7,54.1,22.2
					z M18.4,14.2c-0.6-0.7-1.5-1-0.1-2.7c0.6-0.6,1.4-1.7,2.3-2.8c0,2.6,0,5.7-0.1,8.2C19.5,15.6,18.6,14.4,18.4,14.2z M26.7,17.7
					c0-0.7-0.4-1.9,0.3-1.9c1.4-0.1,5.8-0.2,6.2-0.1c0.4,0,1.5,0.5,1.4-0.8c0-1-0.7-2.2-1-3.9c-0.3-1.4-0.1-0.9-1.5-0.8
					c-0.5,0-3.2,0.3-4.4,0.3c-1,0-1-0.3-1-0.7c0-0.4-0.3-1.7,0.3-1.7c0.8-0.1,5.4,0,7.4,0.3c0.3,0,0.5,0.1,0.7,0.1
					c0.1,2.4,0.1,4.8,0.1,5.7c0,0.8-0.1,2.5-0.1,4.2c-2.8,0.1-6.5,0.1-7,0.1C27.5,18.4,26.7,18.4,26.7,17.7z"/>
				<path class="st1" d="M122.8,14.4c-0.9-2.2-3.1-3-5.3-3.7c-1-0.3-1.9-0.7-2.7-1.1c-1.1-0.6-1.7-1.6-1.3-2.6c0.3-1,1.6-1,2.4-1
					c2,0.1,4.2,1.2,5.1,2.6l0,0.1c0.1,0.1,0.3,0.2,0.5,0.2c0.2,0,0.4-0.2,0.4-0.3l0.7-4.3c0-0.2,0-0.4-0.1-0.6
					c-0.1-0.2-0.3-0.3-0.4-0.4c-1.7-0.9-4.3-1.5-7-1.6c-2.4-0.2-5.7,0-7.6,1.8c-0.2,0.2-0.4,0.5-0.6,0.7c-0.1-0.6-0.2-1.1-0.2-1.5
					c-0.1-0.8-0.4-0.8-1.4-0.7c-0.9,0.1-4.9,0.2-8.2,0.2c-0.1,0-0.1,0-0.2,0l-0.5,0c-0.1,0-0.2,0-0.3,0c-1.8,0-3.2,0-3.5,0
					c-0.1,0-0.3,0-0.5,0c-3.1,0-6.9,0-8.1,0c-2-0.1-6.6,0-7.3-0.2c-0.8-0.2-1.3-0.2-1.5,0.6c-0.1,0.3,0.7,0.9,1,1.2
					c0.3,0.3,1.4,1,1.9,1.7c0.4,0.6,0.5,2.2,1.2,2.3c0.3,0.1,0.5-0.1,0.7,0.2c0.3,0.4-0.1,4.1-0.1,4.8c0,0.6-0.5,1.3-0.5,1.8
					c0.1,0.7,0.5,1.4,0.5,2.3c0,1.2-0.4,1.5-0.8,2.3c-0.3,0.7-1.5,2.4-2,3c-0.4,0.4-0.6,1.5,0.2,1.5c0.6,0,4.7-0.1,5.9-0.1
					c1,0.1,2.6,0.1,3.1,0.1c0.5,0,1,0.2,0.8-0.9c-0.2-1.1-0.6-6.2-0.6-7.7c0-1.5,0.1-5.1,0.2-5.9c0.1-0.7-0.1-1,0.7-0.9
					c0.4,0,2.2,0.1,3.9,0.1c0,5.6-0.1,13.6-0.2,14.2c-0.1,0.8-0.3,1.4,1.2,1.3c1.7-0.1,9.9,0,11.5,0.1c1.5,0.1,1.8,0.1,2-0.8
					c0-0.1,0-0.1,0-0.2c0.7,0.3,2.9,1.2,4.5,1.3c0.2,0,0.3,0,0.5,0c4.6,0.3,9.4-0.9,11.3-3.5C122.9,19.4,123.7,16.6,122.8,14.4z
					 M115.5,16.8c-0.3,1.4-2.7,2.2-4.7,2l-0.1,0c-1.5-0.1-2.6-0.8-3.4-2.1l0,0c-0.1-0.2-0.3-0.3-0.5-0.2c-0.2,0-0.4,0.2-0.4,0.3
					l-0.3,1.3c0,0-0.1,0-0.2,0c-1.2,0.2-6.5,0.3-7.2,0.3c-0.7,0-1.4,0-1.4-0.7c0-0.7-0.4-1.9,0.3-1.9c1.4-0.1,6.5-0.2,6.9-0.1
					c0.4,0,1.5,0.5,1.4-0.8c0-1-0.7-2.2-1-3.9c-0.3-1.4-0.1-0.9-1.5-0.8c-0.5,0-3.8,0.3-5.1,0.3c-1,0-1-0.3-1-0.7
					c0-0.4-0.3-1.7,0.3-1.7c0.8-0.1,5.9,0,7.9,0.3c0.1,0,0.1,0,0.2,0c0.5,3.5,3.4,4.5,7,5.8l0.5,0.2
					C115.1,14.9,115.7,15.6,115.5,16.8z"/>
			</g>
		</g>
	</g>
	<g>
		<path class="st1" d="M5.5,34.4l0,1.1H1c0-1.1,0.1-2.2,0.1-3.6c0-1.3,0-2.3-0.1-3.2h4.2l-0.1,1.1c-1-0.1-2-0.1-2.8-0.1
			c0,0.5,0.1,1.1,0.1,1.7c0.7,0,1.5,0,2.3-0.1v1.1c-0.8,0-1.6-0.1-2.3-0.1c0,0.7,0,1.4,0,2C3.4,34.5,4.4,34.5,5.5,34.4z"/>
		<path class="st1" d="M12.2,35.5h-1.3c0-0.1-0.5-0.9-1.4-2.3c-1-1.4-1.6-2.4-1.7-2.9H7.7c0.1,0.8,0.1,1.5,0.1,2.1
			c0,0.9,0,1.9,0.1,3.1H6.6c0.1-1.1,0.1-2.3,0.1-3.6c0-1.3,0-2.3-0.1-3.2h1.5c0,0.2,0.4,0.9,1.3,2.2c0.9,1.4,1.4,2.3,1.6,2.8h0.1
			C11,33,11,32.3,11,31.7c0-0.9,0-1.9-0.1-2.9h1.3c0,0.9-0.1,1.9-0.1,3.2C12.2,33.3,12.2,34.5,12.2,35.5z"/>
		<path class="st1" d="M15.2,35.5h-1.5c0-1.1,0.1-2.3,0.1-3.6c0-1.3,0-2.3-0.1-3.2h1.5c0,0.9-0.1,2-0.1,3.2
			C15.1,33.3,15.2,34.5,15.2,35.5z"/>
		<path class="st1" d="M22.1,35.4c-0.8,0.2-1.5,0.3-2.1,0.3c-1.2,0-2.1-0.3-2.7-1c-0.6-0.7-0.9-1.5-0.9-2.4c0-1,0.3-1.8,1-2.6
			c0.7-0.7,1.6-1.1,2.8-1.1c0.6,0,1.1,0.1,1.5,0.2L21.5,30c-0.5-0.1-1-0.2-1.5-0.2c-0.7,0-1.3,0.2-1.6,0.7c-0.4,0.5-0.5,1-0.5,1.7
			c0,0.7,0.2,1.2,0.6,1.7c0.4,0.5,1,0.7,1.7,0.7c0.2,0,0.4,0,0.7-0.1c-0.1-0.4-0.1-0.8-0.1-1.1c0-0.4,0-0.8-0.1-1.3h1.5
			c0,0.5,0,1.1,0,1.6C22,34.2,22.1,34.7,22.1,35.4z"/>
		<path class="st1" d="M31.2,35.5h-1.5c0-0.6,0-1.6-0.1-3c-0.1-1.4-0.1-2.3-0.1-2.6h-0.1c0,0.2-0.1,0.6-0.3,1.2
			c-0.1,0.6-0.4,1.4-0.8,2.5c-0.4,1.1-0.6,1.8-0.6,2h-1.2c0-0.2-0.2-0.9-0.6-2c-0.4-1.1-0.7-1.9-0.8-2.3c-0.1-0.4-0.2-0.9-0.3-1.3
			h-0.1c0,0.4,0,1.4-0.1,2.8c-0.1,1.4-0.1,2.4-0.1,2.8h-1.4c0-0.1,0.1-1.1,0.4-3.1s0.4-3.2,0.4-3.7h2c0,0.4,0.2,1.2,0.6,2.6
			c0.4,1.3,0.6,2.2,0.6,2.6h0.1c0-0.4,0.2-1.2,0.7-2.6c0.5-1.3,0.7-2.2,0.7-2.6h2c0,0.7,0.1,2,0.2,3.9
			C31.1,34.5,31.2,35.4,31.2,35.5z"/>
		<path class="st1" d="M38.5,35.5h-1.7c0-0.2-0.2-0.9-0.5-2H34c-0.3,1.1-0.5,1.7-0.5,2h-1.6c0-0.1,0.4-1.2,1.2-3.3
			c0.8-2.1,1.2-3.2,1.2-3.5h2c0,0.2,0.4,1.3,1.1,3.4C38.1,34.2,38.5,35.4,38.5,35.5z M36.1,32.6c-0.6-1.8-0.9-2.8-0.9-2.9h-0.1
			c0,0.1-0.3,1.1-0.9,2.9H36.1z"/>
		<path class="st1" d="M43.8,28.8l0,1.1c-0.7-0.1-1.4-0.1-2-0.1c0,0.7,0,1.4,0,2.2c0,1.3,0,2.4,0.1,3.6h-1.5c0-1.1,0.1-2.3,0.1-3.6
			c0-0.8,0-1.5,0-2.2c-0.5,0-1.2,0-2,0.1l0-1.1H43.8z"/>
		<path class="st1" d="M46.2,35.5h-1.5c0-1.1,0.1-2.3,0.1-3.6c0-1.3,0-2.3-0.1-3.2h1.5c0,0.9-0.1,2-0.1,3.2
			C46.1,33.3,46.1,34.5,46.2,35.5z"/>
		<path class="st1" d="M52.5,34.3l-0.1,1.2c-0.5,0.1-1,0.2-1.5,0.2c-1.2,0-2.1-0.3-2.7-1c-0.6-0.7-0.9-1.5-0.9-2.4
			c0-1,0.3-1.8,1-2.6s1.6-1.1,2.7-1.1c0.4,0,0.8,0,1.2,0.1L52,30c-0.4-0.1-0.8-0.2-1.2-0.2c-0.7,0-1.2,0.2-1.6,0.7
			c-0.3,0.4-0.5,1-0.5,1.6c0,0.7,0.2,1.2,0.6,1.7c0.4,0.5,1,0.7,1.7,0.7C51.5,34.5,52,34.5,52.5,34.3z"/>
		<path class="st1" d="M64.9,28.8c0,0.3-0.3,1.5-1,3.4c-0.7,2-1,3.1-1,3.3h-1.4c0-0.3-0.2-1-0.6-2.3c-0.4-1.4-0.7-2.3-0.8-2.7h-0.1
			c-0.1,0.4-0.3,1.3-0.7,2.7c-0.4,1.3-0.6,2.1-0.6,2.3h-1.4c0-0.3-0.3-1.5-1-3.5c-0.7-2-1-3.1-1-3.3h1.7c0,0.2,0.2,1.1,0.6,2.6
			c0.4,1.5,0.6,2.4,0.6,2.7h0.1c0-0.3,0.2-1.2,0.6-2.7c0.4-1.5,0.6-2.4,0.6-2.7h1.5c0,0.3,0.2,1.2,0.6,2.7s0.6,2.4,0.6,2.6h0.1
			c0-0.3,0.2-1.1,0.6-2.6c0.4-1.5,0.6-2.4,0.6-2.8H64.9z"/>
		<path class="st1" d="M71.4,35.5h-1.7c0-0.2-0.2-0.9-0.5-2h-2.4c-0.3,1.1-0.5,1.7-0.5,2h-1.6c0-0.1,0.4-1.2,1.2-3.3
			c0.8-2.1,1.2-3.2,1.2-3.5h2c0,0.2,0.4,1.3,1.1,3.4C71,34.2,71.4,35.4,71.4,35.5z M69,32.6c-0.6-1.8-0.9-2.8-0.9-2.9H68
			c0,0.1-0.3,1.1-0.9,2.9H69z"/>
		<path class="st1" d="M76.7,28.8l0,1.1c-0.7-0.1-1.4-0.1-2-0.1c0,0.7,0,1.4,0,2.2c0,1.3,0,2.4,0.1,3.6h-1.5c0-1.1,0.1-2.3,0.1-3.6
			c0-0.8,0-1.5,0-2.2c-0.5,0-1.2,0-2,0.1l0-1.1H76.7z"/>
		<path class="st1" d="M82,34.4l0,1.1h-4.4c0-1.1,0.1-2.2,0.1-3.6c0-1.3,0-2.3-0.1-3.2h4.2l-0.1,1.1c-1-0.1-2-0.1-2.8-0.1
			c0,0.5,0.1,1.1,0.1,1.7c0.7,0,1.5,0,2.3-0.1v1.1c-0.8,0-1.6-0.1-2.3-0.1c0,0.7,0,1.4,0,2C79.9,34.5,80.9,34.5,82,34.4z"/>
		<path class="st1" d="M88.7,35.5h-1.5c-0.4-1.2-0.7-2-0.9-2.3c-0.2-0.3-0.6-0.4-1-0.4c-0.2,0-0.4,0-0.6,0c0,0.9,0,1.8,0,2.7h-1.5
			c0-1.1,0.1-2.2,0.1-3.6c0-1.3,0-2.3-0.1-3.2h0.9c0.1,0,0.3,0,0.7,0c0.3,0,0.6,0,0.9,0c1.6,0,2.4,0.5,2.4,1.6
			c0,0.9-0.5,1.5-1.4,1.8v0.1c0.4,0.1,0.7,0.4,0.9,0.8C87.9,33.5,88.2,34.3,88.7,35.5z M86.7,30.7c0-0.7-0.4-1-1.3-1
			c-0.3,0-0.6,0-0.9,0.1c0,0.5,0.1,1.2,0.1,2.1c0.2,0,0.4,0,0.5,0C86.2,31.9,86.7,31.5,86.7,30.7z"/>
		<path class="st1" d="M94,33.7c0,1.4-1,2-2.9,2c-0.7,0-1.3-0.1-1.9-0.2l0.3-1.2c0.6,0.2,1.1,0.3,1.6,0.3c0.6,0,1-0.1,1.2-0.2
			c0.2-0.1,0.4-0.3,0.4-0.5c0-0.3-0.1-0.5-0.3-0.7c-0.2-0.2-0.6-0.4-1.2-0.6c-0.5-0.2-1-0.5-1.2-0.8c-0.3-0.4-0.5-0.8-0.5-1.3
			c0-0.6,0.2-1.1,0.7-1.4c0.4-0.3,1.1-0.5,1.9-0.5c0.7,0,1.3,0.1,1.7,0.2L93.4,30c-0.5-0.2-1-0.3-1.5-0.3c-0.8,0-1.2,0.2-1.2,0.7
			c0,0.2,0.1,0.4,0.3,0.6c0.2,0.1,0.5,0.3,1.1,0.5c0.6,0.2,1,0.5,1.3,0.8C93.8,32.7,94,33.1,94,33.7z"/>
		<path class="st1" d="M102.2,28.8l0,1.1c-0.7-0.1-1.4-0.1-2-0.1c0,0.7,0,1.4,0,2.2c0,1.3,0,2.4,0.1,3.6h-1.5c0-1.1,0.1-2.3,0.1-3.6
			c0-0.8,0-1.5,0-2.2c-0.5,0-1.2,0-2,0.1l0-1.1H102.2z"/>
		<path class="st1" d="M109.4,32c0,1.1-0.3,2-1,2.7c-0.7,0.7-1.5,1.1-2.4,1.1c-0.9,0-1.7-0.3-2.3-1c-0.6-0.6-0.9-1.5-0.9-2.5
			c0-1.1,0.3-2,1-2.7c0.7-0.7,1.5-1.1,2.4-1.1c0.9,0,1.7,0.3,2.3,1C109,30.2,109.4,31,109.4,32z M107.9,32.2c0-0.7-0.2-1.3-0.6-1.8
			c-0.4-0.5-0.8-0.7-1.4-0.7c-0.5,0-0.9,0.2-1.3,0.7c-0.4,0.5-0.5,1-0.5,1.7c0,0.7,0.2,1.3,0.6,1.8c0.4,0.5,0.8,0.7,1.4,0.7
			c0.5,0,0.9-0.2,1.3-0.7C107.7,33.4,107.9,32.9,107.9,32.2z"/>
		<path class="st1" d="M116.2,28.8c0,1.2,0,2.3,0,3.5c0,2.3-0.9,3.5-2.8,3.5c-0.9,0-1.6-0.3-2.1-0.8c-0.5-0.5-0.7-1.4-0.7-2.8
			c0-1.2,0-2.3,0-3.4h1.5c0,1.2-0.1,2.3-0.1,3.4c0,1,0.1,1.6,0.4,2c0.2,0.4,0.6,0.5,1.1,0.5c0.5,0,0.9-0.2,1.2-0.5
			c0.2-0.4,0.4-1,0.4-2c0-1.1,0-2.2-0.1-3.4H116.2z"/>
		<path class="st1" d="M123,35.5h-1.5c-0.4-1.2-0.7-2-0.9-2.3c-0.2-0.3-0.6-0.4-1-0.4c-0.2,0-0.4,0-0.6,0c0,0.9,0,1.8,0,2.7h-1.5
			c0-1.1,0.1-2.2,0.1-3.6c0-1.3,0-2.3-0.1-3.2h0.9c0.1,0,0.3,0,0.7,0c0.3,0,0.6,0,0.9,0c1.6,0,2.4,0.5,2.4,1.6
			c0,0.9-0.5,1.5-1.4,1.8v0.1c0.4,0.1,0.7,0.4,0.9,0.8C122.2,33.5,122.6,34.3,123,35.5z M121.1,30.7c0-0.7-0.4-1-1.3-1
			c-0.3,0-0.6,0-0.9,0.1c0,0.5,0.1,1.2,0.1,2.1c0.2,0,0.4,0,0.5,0C120.5,31.9,121.1,31.5,121.1,30.7z"/>
	</g>
</g>
</svg>
