<?xml version="1.0" encoding="utf-8"?>
<!-- Generator: Adobe Illustrator 23.0.0, SVG Export Plug-In . SVG Version: 6.00 Build 0)  -->
<svg version="1.1" id="Layer_1" xmlns="http://www.w3.org/2000/svg" xmlns:xlink="http://www.w3.org/1999/xlink" x="0px" y="0px"
	 viewBox="0 0 125 39" style="enable-background:new 0 0 125 39;" xml:space="preserve">
<style type="text/css">
	.st0{fill:#FFFFFF;}
</style>
<path class="st0" d="M19.7,18.5c0.4-0.4,0.7-0.8,0.9-1.3c0.4-0.8,0.5-1.8,0-2.7c-0.4-0.8-1.3-1.2-2.2-1.2h-0.1
	c-0.7,0-1.3,0.4-1.9,1.1l-0.8,1l-0.8-1c-0.5-0.7-1.2-1.1-1.9-1.1h-0.1c-0.5,0-1,0.1-1.4,0.4c-0.8,0.5-1.2,1.4-1.1,2.4
	c0.1,0.9,0.6,1.7,1.2,2.5l4.1,4.1l3.5-3.5C19,19.2,19.7,18.5,19.7,18.5z M121.3,17.7c-0.7-0.8-1.5-1.5-2.6-2.2
	c-0.8-0.5-1.8-0.9-2.8-1.2c0.2,0.4,0.3,0.8,0.3,1.1c0.1,0.7,0.2,2.3-1.1,3c-1.3,0.7-2.3-0.4-2.3-0.4s-1.1-2.2-2.3-3.5
	c-1.1-1.3-1.8-2.3-1.8-2.3s-1.7-1.9-1.9-4.7c0-0.5,0-1,0.2-1.4c-0.9,0.4-1.7,0.9-2.5,1.5l-0.4,0.4c2.3,2.7,3.6,6.1,3.6,9.7
	c0,0.7,0,1.3-0.1,2.1c0.1,0,0.2,0.1,0.3,0.1c0.8,0.3,1.6,0.5,2.5,0.8c0.7,0.2,1.3,0.4,1.9,0.6c0.4,0.1,0.8,0.3,1.2,0.5
	c0.2,0.1,0.3,0.3,0.3,0.5v0.2l-0.1,0.1c-0.5,0.3-1.1,0.4-1.7,0.5c-0.8,0.1-1.5,0.1-2.4,0c-0.8-0.1-1.6-0.2-2.3-0.4l-0.3-0.1
	c-0.8,2.5-2.4,4.7-4.3,6.4l2.2,0.6c1.2,0.3,2.6,0.6,3.9,0.7c1.3,0.1,2.7,0.1,3.9-0.1c1.3-0.1,2.7-0.4,3.9-0.9s2.4-1.1,3.3-1.8
	c0.9-0.8,1.7-1.7,2.3-2.8c0.5-1.1,0.7-2.3,0.6-3.5C122.5,19.9,122.1,18.7,121.3,17.7L121.3,17.7z"/>
<path class="st0" d="M123.8,9.8c0,0-0.4-0.1-1.1-0.3c-0.6-0.2-1.5-0.4-2.4-0.6c-1.1-0.3-2.2-0.5-2.3-0.6c-0.1,0-0.4-0.1-0.3-0.4
	c0.1-0.3,0.5-0.2,0.5-0.2s1,0.1,2.3,0.2c0.9,0.1,1.8,0.2,2.4,0.3h0.4c0.2,0,0.7,0,0.7-0.5S123.4,7,123.4,7h-0.3
	c-0.5-0.1-1.4-0.2-2.4-0.3c-1.3-0.2-2.6-0.4-2.8-0.4c-0.4-0.1-0.6-0.2-0.6-0.5c0-0.3,0.2-0.4,0.3-0.5h0.2c0,0,3.3-0.2,3.5-0.2
	c0.2,0,0.5-0.1,0.5-0.6c0-0.2-0.1-0.3-0.2-0.4S121.3,4,121.3,4h-0.1c-3.4-0.2-6.4-0.3-9.4,0c-1.5,0.1-2.5,0.8-2.9,1.4
	c-0.4,0.6-0.5,1.1-0.5,1.1c-0.4,1.6,0,3.2,2.2,5.7s3.1,4.1,3.2,4.5c0.2,0.4,0.5,0.7,0.9,0.4c0.4-0.4,0.4-0.8,0.2-1.5
	c-0.1-0.4-0.4-1.2-0.7-1.8c-0.2-0.4-0.3-0.6-0.3-0.7c0-0.2-0.2-0.6,0.1-0.9c0.1-0.1,0.3-0.2,0.5-0.3c1-0.4,3,0.4,3,0.4s1,0.5,2.2,1
	c0.8,0.4,1.7,0.8,1.8,0.9c0.1,0.1,0.3,0.1,0.4,0.1c0.3,0.1,0.5,0,0.6-0.3c0.2-0.4-0.3-0.7-0.3-0.7l-0.1-0.1l-2.2-1.3l-1.9-1.1
	c0,0-0.5-0.3-0.4-0.6c0.1-0.3,0.6-0.2,0.6-0.2s0.9,0.2,1.9,0.4c0.8,0.1,1.6,0.3,2.4,0.4c0.6,0.1,1,0.2,1.1,0.2c0.2,0,0.7,0,0.8-0.5
	C124.5,9.9,123.8,9.8,123.8,9.8z M105.1,20.3c0.1-0.5,0.2-1.1,0.2-1.6v-0.9c0-0.7-0.1-1.3-0.2-2.1c-0.3-2.2-1.2-4.1-2.6-5.7
	c-0.5-0.6-1.1-1.2-1.7-1.8c-2.5-2.1-5.6-3.2-9.1-3c-2.2,0.1-4.1,0.8-5.8,1.9c0.1,0.4,0,0.8-0.1,1.2l-2.1,7.8
	c0.4,0.4,0.8,0.9,1.1,1.4c1,1.4,1.5,3.1,1.5,4.9c0,2.2-0.6,3.8-1.5,5.1c2.4,1.7,5,2.8,8,2.8c2.9,0,5.5-1,7.7-2.7
	c1.2-0.9,2.3-2.1,3.1-3.4c0.2-0.3,0.3-0.6,0.5-0.8l-0.3-0.1l-1.5-0.5v0.4c-0.2,1.1-0.6,2.1-1.3,2.7c-0.4,0.4-0.9,0.7-1.5,1
	c-0.5,0.2-1.2,0.3-1.8,0.3c-1.5,0-3-0.5-4.2-1.5c-0.6-0.5-1-1-1.3-1.4c-1.5-0.8-2.8-2.4-3.2-4.1h16.3V20.3z M88.3,15
	c0-2.9,1.9-5.2,4.4-5.2c1.4,0,2.7,0.8,3.5,1.9c0.6,0.9,0.9,2.1,0.9,3.3c0,0.3-0.3,0.6-0.7,0.6h-7.5C88.6,15.7,88.3,15.4,88.3,15z"/>
<path class="st0" d="M98.1,24.3c-0.1,0-0.1,0.1-0.2,0.1c-0.2,0-0.3-0.2-0.3-0.2c-0.7-1.1-1.5-1.6-1.5-1.6c-0.8-0.5-1.5-0.7-2.3-0.7
	c-0.9,0-1.5,0.3-1.5,0.3s0.2,1.3,1.6,2.6c0.2,0.1,0.4,0.3,0.6,0.4c0.9,0.6,1.9,0.8,2.8,0.8c0.6,0,1-0.1,1.3-0.2
	c1.3-0.6,1.8-1.3,2.1-2.7v-0.5c0-0.1-0.1-0.2-0.2-0.3h-0.1c-0.5-0.2-1.1-0.3-1.5-0.3c-0.9,0-1.6,0.3-1.7,0.3c-0.1,0,0,0.1,0,0.1
	c0.7,0.6,1,1.3,1,1.3S98.4,24.1,98.1,24.3z M80.8,16.5c-0.1-0.1-0.3-0.2-0.4-0.3c-0.7-0.5-1.4-0.8-2.3-1.2c-1.4-0.7-3-1.2-4.4-2.1
	c0,0-0.1,0-0.1-0.1c-1.8-0.6-3.1-2.2-3.2-2.3c-0.1-0.2-0.1-0.4,0-0.6c0-0.1,1.8-2.5,4.9-2.5c2.6,0,4.3,1.7,4.7,2.4
	c0.1,0.1,0.1,0.2,0.1,0.2c0.1,0.2,0.1,0.4,0,0.6c0,0-0.4,0.6-1.2,1.1c-0.4,0.3-1,0.7-1.6,0.9c0.2,0.1,0.4,0.1,0.6,0.2
	c0.2,0.1,0.3,0.1,0.5,0.2c0.7,0.3,1.5,0.6,2.3,1c0.4,0.2,0.7,0.4,1,0.5l1.3-5l0.6-2.2l-1.3-0.6l-0.7-0.3c-1-0.4-2.2-0.8-3.4-1
	c-2.5-0.5-5.4-0.5-7.6,0c-1.5,0.4-2.7,0.9-3.5,1.6c0.2,0.5,0.5,1,0.7,1.5c0.5,1.1,1,2.4,1.6,3.5c0.5,1.2,1.1,2.5,1.6,3.7
	c0.3,0.7,0.7,1.5,1,2.3c0.2,0.4,0.3,0.7,0.3,1.1c0,0.5-0.2,1-0.5,1.4c-0.4,0.4-0.9,0.6-1.5,0.7l-3.3,0.1v3.4H72
	c0.3,0,0.6,0.2,0.7,0.6c0.1,0.3-0.1,0.6-0.3,0.7s-0.5,0.1-0.7,0.1h-4.5v3.1c3.6,1,6.3,0.9,6.3,0.9c4.2,0,6.9-1.4,8.3-2.7
	c1.1-0.9,1.5-1.8,1.5-1.8c0.6-1,0.9-2.2,0.9-3.4c0-1.3-0.4-2.6-1.1-3.6C82.4,17.9,81.7,17.1,80.8,16.5z"/>
<path class="st0" d="M75.4,12.1c1.7,0,3.2-1.2,3.7-1.7c-0.5-0.6-1.9-1.8-3.8-1.8c-0.4,0-0.7,0-1,0.1c1,0,1.8,0.9,1.8,1.9
	C76.1,11.1,75.8,11.8,75.4,12.1z M71.4,10.2c0.2,0.2,0.4,0.4,0.8,0.7v-0.4c0-0.5,0.2-0.9,0.5-1.2C72.1,9.6,71.7,10,71.4,10.2z
	 M10.5,19.6c-0.3-0.3-0.5-0.5-0.7-0.8L0.6,30.3h9.9l4-5l0.7-0.9l-4.1-4.1C11.1,20.3,10.5,19.6,10.5,19.6z M21.6,13.3
	c0.5,0.6,0.8,1.3,0.9,2.2l0.4-0.6V13c0.1-2.1,0.9-4.1,2.2-5.8C25.6,6.3,26.3,5.6,27,5h-6.8l-3.5,4.6l-1,1.3l-1-1.3L11.2,5h-10
	l7.5,10.4c0.1-0.7,0.3-1.6,0.9-2.2c0.8-0.9,1.9-1.3,3.2-1.3c1,0,2.1,0.5,2.8,1.3c0.7-0.8,1.6-1.2,2.8-1.3
	C19.5,12,20.7,12.4,21.6,13.3z M20.7,19.6l-3.3,3.3L16,24.3l0.7,0.9l4,5h9.9l-9.1-11.6C21.2,19,21,19.3,20.7,19.6z M55.4,10.6
	c0-0.4,0.1-0.8,0.4-1.1c-0.4,0.3-0.8,0.6-1,0.9c0.2,0.2,0.4,0.4,0.7,0.6C55.4,10.8,55.4,10.7,55.4,10.6z"/>
<path class="st0" d="M53.1,13.7l-5.8-8.5h-6.5c1.5,1.2,2.6,2.9,3.3,4.7c0.4,1,0.6,2.1,0.7,3.2c0,0.4,0,1-0.2,1.4
	c-0.2,0.4-0.6,0.6-1,0.7c-0.4,0.1-0.8,0.3-1.1,0.5c-0.4,0.3-0.6,0.6-0.8,1.1c-0.3,0.8-0.2,1.7,0.1,2.6v0.1c0,0.1,0.2,0.4,0.3,0.4
	l0.6,1.2c0.3,0.9,0.5,1.8,0.7,2.8c0.2,1.6,0.2,3.4-0.5,4.9c-0.3,0.6-0.6,1.1-1,1.5h8.6v-7.8h0.1l5.3,7.8h8.4v-3.9H64
	c-0.8,0-1.6-0.1-2.4-0.3c-0.8-0.2-1.5-0.5-2.3-0.9c-1.3-0.8-2.5-1.8-3.4-3.1l-0.6-0.9c-0.1-0.3-0.2-0.6,0-0.8
	c0.2-0.2,0.4-0.3,0.7-0.3s0.5,0.3,0.6,0.6c1.1,1.9,3.1,3.5,5.2,4.1c0.7,0.2,1.4,0.3,2.2,0.3v-20H53.1V13.7z M53.7,10
	c0.1-0.1,1.9-2.6,4.9-2.6c1.8,0,3.3,0.9,4.1,1.7c0.5,0.4,0.8,0.8,0.8,0.9c0.1,0.2,0.1,0.4,0,0.6c0,0.1-0.6,0.7-1.4,1.3
	c-0.8,0.6-2.1,1.1-3.4,1.1c-2.9,0-4.9-2.5-4.9-2.6C53.5,10.4,53.5,10.2,53.7,10z M68,18c0.3,0,0.7,0.2,0.9-0.1
	c0.4-0.3,0.3-0.9-0.1-1.2c-0.4-0.2-0.8-0.2-1.2-0.1c-0.5,0.1-1,0.3-1.4,0.6L66,17.4l-0.2,0.2c-0.3,0.3-0.4,0.6-0.5,0.9
	c0,0.2-0.1,0.3,0,0.5s0.2,0.4,0.5,0.4H66c0.3,0,0.5-0.3,0.6-0.5c0.1-0.3,0.3-0.5,0.5-0.7C67.4,18.1,67.7,18,68,18z"/>
<path class="st0" d="M59.3,10.6c0,0.6-0.3,1.1-0.7,1.5c1.7,0,3.1-1,3.7-1.6l0.1-0.1l-0.1-0.1c-0.6-0.6-1.9-1.7-3.7-1.7
	c-0.4,0-0.7,0-1,0.1C58.5,8.7,59.3,9.6,59.3,10.6z M40.3,19.9c-0.3-0.2-0.6-0.3-1-0.4c-0.4,0-0.9,0.1-1.2,0.3s-0.5,0.5-0.6,0.8
	c-0.1,0.4-0.1,0.8-0.2,1.2c-0.1,0.5-0.3,0.9-0.6,1.3c-0.2,0.3-0.5,0.6-0.8,0.8c-0.7,0.5-1.6,0.7-2.5,0.5c-1.5-0.4-2.7-1.9-2.5-3.6
	c0.1-0.8,0.5-1.5,1.1-2.1c0.3-0.3,0.8-0.5,1.2-0.6c0.5-0.1,1-0.1,1.5-0.2c0.7-0.2,1.2-0.8,1-1.5c-0.2-0.6-0.9-0.7-1.4-0.7
	c-0.9,0-1.7,0.1-2.7,0.1c-0.7,0-1.6-0.1-2.3-0.5c-0.7-0.5-0.6-1.4-0.5-2.3c0.2-0.9,0.6-1.8,1.2-2.5C31.3,9.3,33,8.8,34.8,9
	c0.6,0.1,1.2,0.3,1.8,0.6c0.9,0.5,1.6,1.2,2.2,2.2c0.2,0.4,0.4,0.9,0.5,1.3v0.1c0.1,0.4,0.3,0.8,0.6,1c0.3,0.3,0.7,0.3,1.1,0.2
	c0.3,0,0.7-0.1,1-0.2c0.4-0.2,0.4-0.7,0.3-1.1c0-0.5-0.1-0.9-0.2-1.4C42,10.7,41.6,9.8,41.1,9c-0.5-0.7-1-1.4-1.7-2.1l-0.1-0.1
	c-0.7-0.6-1.5-1-2.5-1.3h-0.1c-1.3-0.4-2.8-0.6-4.2-0.4c-0.5,0.1-0.9,0.2-1.3,0.3c-0.7,0.2-1.4,0.6-2.2,1c-0.8,0.5-1.4,1.2-2.1,2.1
	c-0.5,0.8-1,1.6-1.3,2.6c-0.3,0.9-0.4,1.8-0.4,2.8c0,0.4,0,0.8,0.1,1.2c0.1,1.5,0.5,3.1,1.1,4.5c0.7,1.8,1.8,3.6,3,5.1
	c1.2,1.6,2.7,3,4.1,4.4l0.1,0.1c0.6,0.6,1.8,1,3,1c0.8,0,1.6-0.2,2.4-0.6c0.1-0.1,0.2-0.2,0.4-0.2c1.3-1,1.9-2.8,2.1-4.4
	c0.1-0.9,0.1-1.9,0-2.9C41.3,21.4,41.1,20.4,40.3,19.9z"/>
</svg>
