<svg id="Layer_1" xmlns="http://www.w3.org/2000/svg" viewBox="0 0 275 34"><style>.st0{fill:#fff}</style><g id="Group_464" transform="translate(506 7839.647)"><g id="Group_461" transform="translate(182.819)"><path id="Path_1384" class="st0" d="M-457.3-7828.9c-1.4-1-3.1-1.6-4.9-1.6-4.4 0-8 3.6-8 8v.1c0 1.7.6 3.5 1.6 4.9 1.5 2 3.8 3.1 6.3 3.1h.5c1.7 0 3.3-.6 4.6-1.6v1.6h3.2v-16.1h-3.2l-.1 1.6zm0 6.6c0 .9-.3 1.9-.9 2.6-.9 1.2-2.3 2-3.8 2.1h-.2c-.8 0-1.5-.2-2.2-.5-1.6-.9-2.6-2.5-2.6-4.3 0-1 .3-2 .9-2.8.9-1.3 2.3-2 3.9-2.1.8 0 1.7.3 2.4.6 1.5.8 2.4 2.4 2.4 4.1l.1.3z"/><path id="Path_1385" class="st0" d="M-419.1-7837.5h-3.1v6.9h-2.9v3.2h2.9v12.9h3.1v-12.9h2.8v-3.2h-2.8v-6.9z"/><path id="Path_1386" class="st0" d="M-473.8-7819.9c-.9 1.3-2.4 2.2-4 2.2-.8 0-1.6-.2-2.3-.6-1.5-.8-2.5-2.5-2.5-4.2 0-.9.3-1.8.7-2.5.9-1.4 2.4-2.3 4-2.3s3.2.8 4 2.2h.1l2.1-2.5c-1.5-1.8-3.7-2.9-6.1-2.9-2 0-4 .7-5.5 2.1-1.7 1.5-2.6 3.7-2.6 5.9 0 1.8.6 3.5 1.6 4.9 1.5 2 3.9 3.1 6.4 3.1h.1c1.8 0 3.6-.7 5-1.8.5-.4.9-.8 1.2-1.1l-2.2-2.5z"/><path id="Path_1387" class="st0" d="M-433.1-7830.6c-1.9 0-3.8.7-5.2 1.9a8.14 8.14 0 0 0-2.9 6.2c0 1.9.7 3.7 1.9 5.2 1.5 1.8 3.8 2.9 6.1 2.9h.1c2 0 4-.8 5.4-2.2l-2.1-2.4c-.9.9-2.1 1.4-3.4 1.4-.8 0-1.5-.2-2.2-.5-1.1-.5-2-1.5-2.3-2.7h12.4c.1-.5.2-1.1.2-1.6 0-1.9-.7-3.7-1.9-5.2-1.5-1.9-3.8-3-6.1-3zm-4.6 6.5l.4-.8c1.4-2.3 4.3-3.1 6.7-1.8 1 .6 1.8 1.5 2.2 2.6h-9.3z"/><path id="Path_1388" class="st0" d="M-441.2-7830.6c-2.3-.1-4.5.6-6.4 1.8v-1.8h-3.2v16.1h3.2v-7.9c0-.6.1-1.2.4-1.8.9-2.2 3-3.2 6-3.2v-3.2z"/><g id="Group_460" transform="translate(0 6.928)"><path id="Path_1389" class="st0" d="M-492.6-7829.4l6.7-8.1h-4.1l-.5.5-4.1 5.1-4.7-5.6h-4l.6.7 5.9 7.4-6.7 8h4.1l4.6-5.5 4.7 5.5h4.2l-6.7-8z"/></g></g><g id="Group_463" transform="translate(0 2.969)"><path id="Path_1390" class="st0" d="M-419.6-7834.3h.4c.7-.2 1.2-.8 1.2-1.5v-.4c-.1-.7-.8-1.3-1.5-1.3l-.5.1c-.7.2-1.1.8-1.1 1.4v.4c.4.8.8 1.3 1.5 1.3z"/><path id="Path_1391" class="st0" d="M-395.4-7825.4c0-.7.1-1.4.4-2 .3-.8.9-1.6 1.6-2.1 0 0 .1-.1.2-.1.1-.1.2-.1.4-.2.1 0 .1 0 .2-.1.2-.1.3-.1.4-.2.1 0 .2-.1.4-.1.1 0 .3-.1.4-.1h1.8c.1 0 .3 0 .4.1.1 0 .2.1.4.1s.3.1.4.2c.1 0 .1 0 .2.1s.3.1.4.2c.1 0 .1.1.2.1.7.5 1.3 1.2 1.6 2.1.2.6.4 1.3.4 2v7.7h3.1v-7.9c0-1-.2-2-.6-3-.5-1.3-1.4-2.5-2.5-3.3-1.1-.8-2.5-1.3-3.9-1.3h-1.6c-1.4 0-2.7.5-3.9 1.4-1.1.9-2 2-2.5 3.3-.4 1-.5 2-.5 3v7.9h3.1l-.5-7.8z"/><path id="Rectangle_286" class="st0" d="M-421.1-7833.3h3.1v15.6h-3.1z"/><path id="Path_1392" class="st0" d="M-429.1-7825.3c0-.6.1-1.2.4-1.7.9-2.1 2.9-3.1 5.8-3.1v-3.1c-2.2-.1-4.4.6-6.2 1.8v-1.8h-3.1v15.6h3.1v-7.7z"/><path id="Path_1393" class="st0" d="M-495.6-7833.3c-1.9 0-3.7.6-5.1 1.8-1.7 1.5-2.7 3.7-2.8 5.9 0 1.8.7 3.6 1.8 5 1.5 1.8 3.6 2.8 5.9 2.8h.1c1.9 0 3.8-.7 5.2-2.1l-1.9-2.4c-.9.9-2.1 1.4-3.3 1.4-.7 0-1.4-.2-2.1-.5-1.1-.5-1.9-1.5-2.2-2.6h12.1c.1-.5.2-1 .2-1.5 0-1.8-.7-3.6-1.8-5-1.6-1.8-3.8-2.8-6.1-2.8zm-4.4 6.2l.3-.7c.8-1.4 2.4-2.3 4-2.3.8 0 1.6.2 2.3.5 1 .5 1.7 1.4 2.1 2.5h-8.7z"/><path id="Rectangle_287" class="st0" d="M-364.5-7833.3h3.1v15.6h-3.1z"/><path id="Path_1394" class="st0" d="M-373-7820.8c-.8 0-1.6-.2-2.2-.6-1.5-.8-2.4-2.4-2.4-4 0-.9.3-1.7.7-2.4.8-1.4 2.3-2.2 4-2.2 1.6 0 3.1.8 4 2.1l2.1-2.4c-2.7-3.3-7.6-3.8-10.9-1.1a7.79 7.79 0 0 0-2.8 6c0 4.3 3.5 7.8 7.8 7.8h.1c1.8 0 3.5-.6 4.9-1.7.4-.3.7-.7 1.1-1.1l-2.1-2.4c-1.1 1.1-2.6 1.9-4.3 2z"/><path id="Path_1395" class="st0" d="M-327.2-7824.2c-.8-1.9-2.4-2.9-4.9-2.9h-4.1l-.5-.1c-.6-.2-1-.8-1-1.4 0-.5.2-.9.5-1.3.2-.3.7-.4 1.5-.4h8.3v-3h-8.3c-1.4-.1-2.9.4-3.9 1.4-.8.9-1.2 2-1.3 3.2 0 1.2.4 2.4 1.3 3.2.9.8 2 1.3 3.2 1.4h4.5c1.3 0 1.9.5 1.9 1.5l-.1.6c-.2.6-.8 1-1.4.9h-12v-12.3h-3.1v1.5c-1.3-1-2.9-1.5-4.6-1.5-4.3 0-7.8 3.5-7.8 7.8 0 1.7.5 3.3 1.5 4.7 1.4 1.9 3.6 3 6 3.1h.5c1.6 0 3.1-.6 4.4-1.5v1.5h15.3c.7 0 1.4-.2 2-.5 1.6-.7 2.6-2.4 2.5-4.1-.1-.5-.2-1.2-.4-1.8zm-19.5-1.1c0 .9-.3 1.8-.8 2.5-.8 1.2-2.2 2-3.7 2h-.2c-2.6 0-4.7-2.1-4.7-4.7 0-1 .3-1.9.9-2.7.8-1.3 2.3-2 3.8-2 .8 0 1.6.2 2.3.6 1.4.8 2.3 2.3 2.3 4l.1.3z"/><path id="Path_1396" class="st0" d="M-363-7837.5l-.4.1c-.7.2-1.1.8-1.1 1.4v.4c.1.7.7 1.2 1.4 1.2h.4c.7-.2 1.2-.8 1.2-1.5v-.4c-.2-.7-.8-1.2-1.5-1.2z"/><path id="Path_1397" class="st0" d="M-408.4-7817.8c2 0 3.9-.7 5.3-2.1l-2-2.3c-.9.9-2.1 1.4-3.3 1.3-.7 0-1.4-.2-2.1-.5-1.1-.5-1.9-1.5-2.2-2.6h12.1c.1-.5.2-1 .2-1.5 0-1.8-.7-3.6-1.8-5-2.8-3.3-7.7-3.7-11-1-1.7 1.5-2.7 3.7-2.8 5.9 0 1.8.7 3.6 1.8 5 1.3 1.8 3.5 2.9 5.8 2.8zm-4.1-10.1c.8-1.4 2.4-2.3 4-2.3.8 0 1.6.2 2.3.5 1 .5 1.7 1.4 2.1 2.5h-8.8l.4-.7z"/><path id="Path_1398" class="st0" d="M-442.2-7833.3c-1.8 0-3.6.6-5 1.8-1.7 1.5-2.7 3.7-2.8 5.9 0 1.8.7 3.6 1.8 5 1.5 1.8 3.6 2.8 5.9 2.8h.1c1.9 0 3.8-.7 5.2-2.1l-2-2.3c-.9.9-2.1 1.4-3.3 1.4-.7 0-1.4-.2-2.1-.5-1.1-.5-1.9-1.5-2.2-2.6h12.1c.1-.5.2-1 .2-1.5 0-1.8-.7-3.6-1.8-5-1.6-1.9-3.8-2.9-6.1-2.9zm-4.4 6.2l.3-.7c.8-1.4 2.4-2.3 4-2.3.8 0 1.6.2 2.3.5 1 .5 1.7 1.4 2.1 2.5h-8.7z"/><g id="Group_462" transform="translate(16.105 4.229)"><path id="Path_1399" class="st0" d="M-493-7829.8l6.5-7.7h-4l-.4.4-4 4.9-4.5-5.3h-4l6.5 7.7-6.5 7.7h4.1l4.4-5.3 4.5 5.4h4l-6.6-7.8z"/></g><path id="Path_1400" class="st0" d="M-453.5-7830.4c-1.5-1.9-3.7-3-6.1-3-1.7 0-3.3.6-4.6 1.5h-.1v-1.5h-3.1v22.6h3.1v-8.5h.1c1.2.9 2.8 1.5 4.3 1.5h.6c1.8 0 3.5-.7 4.9-2 1.6-1.4 2.6-3.4 2.6-5.6v-.4c0-1.7-.6-3.3-1.7-4.6zm-1.4 4.9c0 1-.3 2-.9 2.8-.8 1.1-2.1 1.8-3.5 1.8h-.4c-.7 0-1.4-.2-2.1-.5-1.5-.8-2.4-2.4-2.4-4.1 0-1 .3-1.9.9-2.7.9-1.2 2.3-2 3.8-2 1 0 1.9.3 2.7.8 1.3.8 2 2.3 2 3.8l-.1.1z"/></g></g></svg>